<svg width="0" height="0" class="hidden"
    xmlns="http://www.w3.org/2000/svg"
    xmlns:xlink="http://www.w3.org/1999/xlink">

    <symbol xmlns="http://www.w3.org/2000/svg" viewBox="0 0 24 24" id="dot_advlab">
        <circle fill="#fff" cx="12" cy="12" r="12" />
        <circle fill="#90CAF9" cx="12" cy="12" r="10" />
    </symbol>
    <symbol xmlns="http://www.w3.org/2000/svg" viewBox="0 0 24 24" id="dot_cgeo">
        <circle fill="#fff" cx="12" cy="12" r="12" />
        <circle fill="#f7991d" cx="12" cy="12" r="10" />
    </symbol>
    <symbol xmlns="http://www.w3.org/2000/svg" viewBox="0 0 24 24" id="dot_advlab3">
        <circle fill="#fff" cx="12" cy="12" r="12" />
        <circle fill="#7b1fa2" cx="12" cy="12" r="10" />
    </symbol>
    <symbol xmlns="http://www.w3.org/2000/svg" viewBox="0 0 24 24" id="dot_advlab2">
        <circle fill="#fff" cx="12" cy="12" r="12" />
        <circle fill="#90CAF9" cx="12" cy="12" r="10" />
        <circle fill="#fff" cx="12" cy="9" r="2" />
        <g transform="translate(3.6,3.6)">
            <path fill="#e64a19" stroke-width="1" stroke="#212121" d="M12,11.5A2.5,2.5 0 0,1 9.5,9A2.5,2.5 0 0,1 12,6.5A2.5,2.5 0 0,1 14.5,9A2.5,2.5 0 0,1 12,11.5M12,2A7,7 0 0,0 5,9C5,14.25 12,22 12,22C12,22 19,14.25 19,9A7,7 0 0,0 12,2Z" transform="scale(0.7)" />
        </g>
    </symbol>
    <symbol xmlns="http://www.w3.org/2000/svg" viewBox="0 0 24 24" id="dot_black">
        <circle fill="#fff" cx="12" cy="12" r="12" />
        <circle fill="#212121" cx="12" cy="12" r="10" />
    </symbol>
    <symbol xmlns="http://www.w3.org/2000/svg" viewBox="0 0 24 24" id="dot_event">
        <circle fill="#fff" cx="12" cy="12" r="12" />
        <circle fill="#D32F2F" cx="12" cy="12" r="10" />
    </symbol>
    <symbol xmlns="http://www.w3.org/2000/svg" viewBox="0 0 24 24" id="dot_event2">
        <circle fill="#fff" cx="12" cy="12" r="12" />
        <circle fill="#D32F2F" cx="12" cy="12" r="10" />
        <g transform="translate(5,4.8)">
            <path fill="#fff" d="M12,3C17.5,3 22,6.58 22,11C22,15.42 17.5,19 12,19C10.76,19 9.57,18.82 8.47,18.5C5.55,21 2,21 2,21C4.33,18.67 4.7,17.1 4.75,16.5C3.05,15.07 2,13.13 2,11C2,6.58 6.5,3 12,3M17,12V10H15V12H17M13,12V10H11V12H13M9,12V10H7V12H9Z" transform="scale(0.6)" />
        </g>
    </symbol>
    <symbol xmlns="http://www.w3.org/2000/svg" viewBox="0 0 24 24" id="dot_multi">
        <circle fill="#fff" cx="12" cy="12" r="12" />
        <circle fill="#F57C00" cx="12" cy="12" r="10" />
    </symbol>
    <symbol xmlns="http://www.w3.org/2000/svg" viewBox="0 0 24 24" id="dot_multi2">
        <circle fill="#fff" cx="12" cy="12" r="12" />
        <circle fill="#F57C00" cx="12" cy="12" r="10" />
    </symbol>
    <symbol xmlns="http://www.w3.org/2000/svg" viewBox="0 0 24 24" id="dot_mystery">
        <circle fill="#fff" cx="12" cy="12" r="12" />
        <circle fill="#303F9F" cx="12" cy="12" r="10" />
    </symbol>
    <symbol xmlns="http://www.w3.org/2000/svg" viewBox="0 0 24 24" id="dot_mystery2">
        <circle fill="#fff" cx="12" cy="12" r="12" />
        <path fill="#303F9F" d="M15.07,11.25L14.17,12.17C13.45,12.89 13,13.5 13,15H11V14.5C11,13.39 11.45,12.39 12.17,11.67L13.41,10.41C13.78,10.05 14,9.55 14,9C14,7.89 13.1,7 12,7A2,2 0 0,0 10,9H8A4,4 0 0,1 12,5A4,4 0 0,1 16,9C16,9.88 15.64,10.67 15.07,11.25M13,19H11V17H13M12,2A10,10 0 0,0 2,12A10,10 0 0,0 12,22A10,10 0 0,0 22,12C22,6.47 17.5,2 12,2Z" />
    </symbol>
    <symbol xmlns="http://www.w3.org/2000/svg" viewBox="0 0 24 24" id="dot_specialgc">
        <circle fill="#fff" cx="12" cy="12" r="12" />
        <circle fill="#afb42b" cx="12" cy="12" r="10" />
    </symbol>
    <symbol xmlns="http://www.w3.org/2000/svg" viewBox="0 0 24 24" id="dot_not_found_offline2">
        <g transform="translate(1.8,1.8) scale(0.85)">
            <circle fill="#1A237E" cx="12" cy="12" r="12" />
            <path fill="#448AFF" d="m 12,2 c -5.5228475,10e-8 -9.9999999,4.4771525 -9.9999999,10 0,5.522847 4.4771524,10 9.9999999,10 5.522847,0 10,-4.477153 10,-10 C 22,6.4771525 17.522847,2 12,2 M 7.0000001,9.5 c 0,-0.8 0.7,-1.5 1.5,-1.5 C 9.3,8 10,8.7 10,9.5 10,10.3 9.3,11 8.5000001,11 c -0.8,0 -1.5,-0.7 -1.5,-1.5 M 6.89,17.5 C 7.8497124,15.16013 9.9475614,14.045447 12,14 c 1.75,0 4.130266,1.014652 5.11,3.5 M 15.5,11 C 14.7,11 14,10.3 14,9.5 14,8.7 14.7,8 15.5,8 16.3,8 17,8.7 17,9.5 17,10.3 16.3,11 15.5,11 Z" />
        </g>
    </symbol>
    <symbol xmlns="http://www.w3.org/2000/svg" viewBox="0 0 24 24" id="dot_not_found_offline">
        <circle fill="#fff" cx="12" cy="12" r="12" />
        <circle fill="#1A237E" cx="12" cy="12" r="9" />
            <path fill="#448AFF" d="m 12,2 c -5.5228475,10e-8 -9.9999999,4.4771525 -9.9999999,10 0,5.522847 4.4771524,10 9.9999999,10 5.522847,0 10,-4.477153 10,-10 C 22,6.4771525 17.522847,2 12,2 M 7.0000001,9.5 c 0,-0.8 0.7,-1.5 1.5,-1.5 C 9.3,8 10,8.7 10,9.5 10,10.3 9.3,11 8.5000001,11 c -0.8,0 -1.5,-0.7 -1.5,-1.5 M 6.89,17.5 C 7.8497124,15.16013 9.9475614,14.045447 12,14 c 1.75,0 4.130266,1.014652 5.11,3.5 M 15.5,11 C 14.7,11 14,10.3 14,9.5 14,8.7 14.7,8 15.5,8 16.3,8 17,8.7 17,9.5 17,10.3 16.3,11 15.5,11 Z" />
    </symbol>
    <symbol xmlns="http://www.w3.org/2000/svg" viewBox="0 0 24 24" id="dot_marker_calendar">
        <circle fill="#fff" cx="12" cy="12" r="12" />
        <circle fill="#D32F2F" cx="12" cy="12" r="10" />
        <g transform="translate(4.5,4.5)">
            <path fill="#fff" d="M19,19H5V8H19M16,1V3H8V1H6V3H5C3.89,3 3,3.89 3,5V19A2,2 0 0,0 5,21H19A2,2 0 0,0 21,19V5C21,3.89 20.1,3 19,3H18V1M17,12H12V17H17V12Z" transform="scale(0.625)" />
        </g>
    </symbol>
    <symbol xmlns="http://www.w3.org/2000/svg" viewBox="0 0 24 24" id="dot_marker_usermodifiedcoords">
        <circle fill="#fff" cx="12" cy="12" r="12" />
        <circle fill="#303F9F" cx="12" cy="12" r="10" />
        <g transform="translate(4,3.5)">
            <path fill="#fff" d="M14.4,6L14,4H5V21H7V14H12.6L13,16H20V6H14.4Z" transform="scale(0.666666667)" />
        </g>
    </symbol>
    <symbol xmlns="http://www.w3.org/2000/svg" viewBox="0 0 24 24" id="dot_note_offline">
        <circle fill="#fff" cx="12" cy="12" r="12" />
        <circle fill="#4e342e" cx="12" cy="12" r="10" />
        <path fill="#fff" d="M14,10H19.5L14,4.5V10M5,3H15L21,9V19A2,2 0 0,1 19,21H5C3.89,21 3,20.1 3,19V5C3,3.89 3.89,3 5,3M5,12V14H19V12H5M5,16V18H14V16H5Z" transform="translate(5.5,4.1) scale(0.57,0.65)" />
    </symbol>
    <symbol xmlns="http://www.w3.org/2000/svg" viewBox="0 0 24 24" id="dot_marker_archive_offline">
        <circle fill="#fff" cx="12" cy="12" r="12" />
        <circle fill="#D32F2F" cx="12" cy="12" r="10" />
 <path d="m7.2 16.8 9.6-9.6" stroke="#fff" stroke-width="2.5"/>
 <path d="m16.8 16.8-9.6-9.6" stroke="#fff" stroke-width="2.5"/>
    </symbol>
    <symbol xmlns="http://www.w3.org/2000/svg" viewBox="0 0 24 24" id="dot_marker_archive_offline2">
        <circle fill="#fff" cx="12" cy="12" r="12" />
        <circle fill="#7b1fa2" cx="12" cy="12" r="10" />
        <g transform="translate(4.5,4.5)">
            <path fill="#fff" d="M10,2H14C17.31,2 19,4.69 19,8V18.66C16.88,17.63 15.07,17 12,17C8.93,17 7.12,17.63 5,18.66V8C5,4.69 6.69,2 10,2M8,8V9.5H16V8H8M9,12V13.5H15V12H9M3,22V21.31C5.66,19.62 13.23,15.84 21,21.25V22H3Z" transform="scale(0.625)" />
        </g>
    </symbol>
    <symbol xmlns="http://www.w3.org/2000/svg" viewBox="0 0 24 24" id="dot_marker_maintenance_offline">
        <circle fill="#fff" cx="12" cy="12" r="12" />
        <circle fill="#C62828" cx="12" cy="12" r="10" />
        <path fill="#fff" d="M18 14H14V18H10V14H6V10H10V6H14V10H18" />
    </symbol>
    <symbol xmlns="http://www.w3.org/2000/svg" viewBox="0 0 24 24" id="dot_traditional">
        <circle fill="#fff" cx="12" cy="12" r="12" />
        <circle fill="#388E3C" cx="12" cy="12" r="10" />
    </symbol>
    <symbol xmlns="http://www.w3.org/2000/svg" viewBox="0 0 24 24" id="dot_traditional2">
        <circle fill="#fff" cx="12" cy="12" r="12" />
        <circle fill="#388E3C" cx="12" cy="12" r="10" />
        <g transform="translate(5.4,5.2) scale(0.55)">
            <path d="m22.728 9.3045c-0.42044 2.0106-0.83827 4.0217-1.2562 6.0328l-13.273 6.5925c-0.37493 0.12498-0.64626 0.11052-0.88371-0.0707l-6.2037-7.1404 0.093493-6.1414z" fill="none" stroke="#fff" stroke-width="1.5" />
            <path d="m23.598 8.4876-0.3835 1.2639c-0.26933 0.2688-0.44314 0.37116-0.44314 0.37116l-14.139 6.4688c-0.64362 0.23745-0.97208-0.0707-0.97208-0.0707l-6.9813-6.9106c-0.18746-0.17497-0.15907-0.38883-0.15907-0.38883s-0.063329-0.4547-0.002326-1.8774z" fill="#fffffe" />
            <path d="m16.116 2.0639 7.4939 6.1153c0.21209 0.28279-0.08837 0.45953-0.08837 0.45953l-14.793 6.0092c-0.34705 0.16835-0.69625 0.050181-0.88371-0.10604l-7.1757-6.6102c-0.63627-0.72464 0.31814-1.0251 0.31814-1.0251l14.157-4.8781c0.56557-0.22976 0.97208 0.035349 0.97208 0.035349z" fill="#fffffe" />
            <path d="m7.9375 22.344 0.125-6.125" fill="none" stroke="#fff" stroke-width="1.5" />
        </g>
    </symbol>
    <symbol xmlns="http://www.w3.org/2000/svg" viewBox="0 0 24 24" id="dot_virtual">
        <circle fill="#fff" cx="12" cy="12" r="12" />
        <circle fill="#0288d1" cx="12" cy="12" r="10" />
    </symbol>
    <symbol xmlns="http://www.w3.org/2000/svg" viewBox="0 0 24 24" id="dot_waypoint_flag">

        <circle fill="#999" cx="12" cy="12" r="12" />
        <circle fill="#fff" cx="12" cy="12" r="10" />
        <path fill="#C62828" d="M6,3A1,1 0 0,1 7,4V4.88C8.06,4.44 9.5,4 11,4C14,4 14,6 16,6C19,6 20,4 20,4V12C20,12 19,14 16,14C13,14 13,12 11,12C8,12 7,14 7,14V21H5V4A1,1 0 0,1 6,3Z" transform="translate(3,3) scale(0.75)" />
    </symbol>
    <symbol xmlns="http://www.w3.org/2000/svg" viewBox="0 0 24 24" id="dot_waypoint_pkg">

        <circle fill="#999" cx="12" cy="12" r="12" />
        <circle fill="#fff" cx="12" cy="12" r="10" />
        <path fill="#01579B" d="M13.2,11H10V7H13.2A2,2 0 0,1 15.2,9A2,2 0 0,1 13.2,11M13,3H6V21H10V15H13A6,6 0 0,0 19,9C19,5.68 16.31,3 13,3Z" transform="translate(3.3,3) scale(0.75)" />
    </symbol>
    <symbol xmlns="http://www.w3.org/2000/svg" viewBox="0 0 24 24" id="dot_waypoint_stage">

        <circle fill="#999" cx="12" cy="12" r="12" />
        <circle fill="#fff" cx="12" cy="12" r="10" />
        <path fill="#6d4c41" d="M10.74,11.72C11.21,12.95 11.16,14.23 9.75,14.74C6.85,15.81 6.2,13 6.16,12.86L10.74,11.72M5.71,10.91L10.03,9.84C9.84,8.79 10.13,7.74 10.13,6.5C10.13,4.82 8.8,1.53 6.68,2.06C4.26,2.66 3.91,5.35 4,6.65C4.12,7.95 5.64,10.73 5.71,10.91M17.85,19.85C17.82,20 17.16,22.8 14.26,21.74C12.86,21.22 12.8,19.94 13.27,18.71L17.85,19.85M20,13.65C20.1,12.35 19.76,9.65 17.33,9.05C15.22,8.5 13.89,11.81 13.89,13.5C13.89,14.73 14.17,15.78 14,16.83L18.3,17.9C18.38,17.72 19.89,14.94 20,13.65Z" transform="translate(3.6,3.6) scale(0.7)" />
    </symbol>
    <symbol xmlns="http://www.w3.org/2000/svg" viewBox="0 0 24 24" id="dot_waypoint_trailhead">

        <circle fill="#999" cx="12" cy="12" r="12" />
        <circle fill="#fff" cx="12" cy="12" r="10" />
        <path fill="#f57c00" d="M11,10H5L3,8L5,6H11V3L12,2L13,3V4H19L21,6L19,8H13V10H19L21,12L19,14H13V20A2,2 0 0,1 15,22H9A2,2 0 0,1 11,20V10Z" transform="translate(3.1,3.4) scale(0.7)" />
    </symbol>
    <symbol xmlns="http://www.w3.org/2000/svg" viewBox="0 0 24 24" id="dot_waypoint_puzzle">

        <circle fill="#999" cx="12" cy="12" r="12" />
        <circle fill="#fff" cx="12" cy="12" r="10" />
        <path fill="#689f38" d="M20.5,11H19V7C19,5.89 18.1,5 17,5H13V3.5A2.5,2.5 0 0,0 10.5,1A2.5,2.5 0 0,0 8,3.5V5H4A2,2 0 0,0 2,7V10.8H3.5C5,10.8 6.2,12 6.2,13.5C6.2,15 5,16.2 3.5,16.2H2V20A2,2 0 0,0 4,22H7.8V20.5C7.8,19 9,17.8 10.5,17.8C12,17.8 13.2,19 13.2,20.5V22H17A2,2 0 0,0 19,20V16H20.5A2.5,2.5 0 0,0 23,13.5A2.5,2.5 0 0,0 20.5,11Z" transform="translate(4.7,4.1) scale(0.63)" />
    </symbol>
    <symbol xmlns="http://www.w3.org/2000/svg" viewBox="0 0 24 24" id="dot_waypoint_waypoint">
        <circle fill="#999" cx="12" cy="12" r="12" />
        <circle fill="#fff" cx="12" cy="12" r="10" />
        <circle fill="#C62828" cx="12" cy="12" r="7" />
        <circle fill="#fff" cx="12" cy="12" r="5.5" />
        <circle fill="#C62828" cx="12" cy="12" r="2" />
    </symbol>
    <symbol xmlns="http://www.w3.org/2000/svg" viewBox="0 0 24 24" id="dot_unknown2">
        <circle fill="#fff" cx="12" cy="12" r="12" />
        <path fill="#616161" d="M15.07,11.25L14.17,12.17C13.45,12.89 13,13.5 13,15H11V14.5C11,13.39 11.45,12.39 12.17,11.67L13.41,10.41C13.78,10.05 14,9.55 14,9C14,7.89 13.1,7 12,7A2,2 0 0,0 10,9H8A4,4 0 0,1 12,5A4,4 0 0,1 16,9C16,9.88 15.64,10.67 15.07,11.25M13,19H11V17H13M12,2A10,10 0 0,0 2,12A10,10 0 0,0 12,22A10,10 0 0,0 22,12C22,6.47 17.5,2 12,2Z" />
    </symbol>
    <symbol xmlns="http://www.w3.org/2000/svg" viewBox="0 0 24 24" id="dot_unknown">
        <circle fill="#fff" cx="12" cy="12" r="12" />
        <circle fill="#616161" cx="12" cy="12" r="10" />
    </symbol>
    <!-- scale down the smiley as it seems larger due to the dark border -->
    <symbol xmlns="http://www.w3.org/2000/svg" viewBox="0 0 24 24" id="dot_found2">
        <g transform="translate(1.8,1.8) scale(0.85)">
            <circle fill="#5D4037" cx="12" cy="12" r="12" />
            <path fill="#FBC02D" d="M12,2C6.47,2 2,6.5 2,12A10,10 0 0,0 12,22A10,10 0 0,0 22,12A10,10 0 0,0 12,2M15.5,8A1.5,1.5 0 0,1 17,9.5A1.5,1.5 0 0,1 15.5,11A1.5,1.5 0 0,1 14,9.5A1.5,1.5 0 0,1 15.5,8M8.5,8A1.5,1.5 0 0,1 10,9.5A1.5,1.5 0 0,1 8.5,11A1.5,1.5 0 0,1 7,9.5A1.5,1.5 0 0,1 8.5,8M12,17.5C9.67,17.5 7.69,16.04 6.89,14H17.11C16.3,16.04 14.33,17.5 12,17.5Z" />
        </g>

    </symbol>
    <symbol xmlns="http://www.w3.org/2000/svg" viewBox="0 0 24 24" id="dot_found_offline2">
        <g transform="translate(1.8,1.8) scale(0.85)">

            <circle fill="#5D4037" cx="12" cy="12" r="12" />
            <path fill="#F57C00" d="M12,2C6.47,2 2,6.5 2,12A10,10 0 0,0 12,22A10,10 0 0,0 22,12A10,10 0 0,0 12,2M15.5,8A1.5,1.5 0 0,1 17,9.5A1.5,1.5 0 0,1 15.5,11A1.5,1.5 0 0,1 14,9.5A1.5,1.5 0 0,1 15.5,8M8.5,8A1.5,1.5 0 0,1 10,9.5A1.5,1.5 0 0,1 8.5,11A1.5,1.5 0 0,1 7,9.5A1.5,1.5 0 0,1 8.5,8M12,17.5C9.67,17.5 7.69,16.04 6.89,14H17.11C16.3,16.04 14.33,17.5 12,17.5Z" />
        </g>
    </symbol>
    <symbol xmlns="http://www.w3.org/2000/svg" viewBox="0 0 24 24" id="dot_found_offline">
        <circle fill="#fff" cx="12" cy="12" r="12" />
        <circle fill="#5D4037" cx="12" cy="12" r="9" />
            <path fill="#F57C00" d="M12,2C6.47,2 2,6.5 2,12A10,10 0 0,0 12,22A10,10 0 0,0 22,12A10,10 0 0,0 12,2M15.5,8A1.5,1.5 0 0,1 17,9.5A1.5,1.5 0 0,1 15.5,11A1.5,1.5 0 0,1 14,9.5A1.5,1.5 0 0,1 15.5,8M8.5,8A1.5,1.5 0 0,1 10,9.5A1.5,1.5 0 0,1 8.5,11A1.5,1.5 0 0,1 7,9.5A1.5,1.5 0 0,1 8.5,8M12,17.5C9.67,17.5 7.69,16.04 6.89,14H17.11C16.3,16.04 14.33,17.5 12,17.5Z" />
    </symbol>
    <symbol xmlns="http://www.w3.org/2000/svg" viewBox="0 0 24 24" id="dot_found">
        <circle fill="#fff" cx="12" cy="12" r="12" />
        <circle fill="#5D4037" cx="12" cy="12" r="9" />
        <path fill="#FBC02D" d="M12,2C6.47,2 2,6.5 2,12A10,10 0 0,0 12,22A10,10 0 0,0 22,12A10,10 0 0,0 12,2M15.5,8A1.5,1.5 0 0,1 17,9.5A1.5,1.5 0 0,1 15.5,11A1.5,1.5 0 0,1 14,9.5A1.5,1.5 0 0,1 15.5,8M8.5,8A1.5,1.5 0 0,1 10,9.5A1.5,1.5 0 0,1 8.5,11A1.5,1.5 0 0,1 7,9.5A1.5,1.5 0 0,1 8.5,8M12,17.5C9.67,17.5 7.69,16.04 6.89,14H17.11C16.3,16.04 14.33,17.5 12,17.5Z" />
    </symbol>
    <symbol xmlns="http://www.w3.org/2000/svg" viewBox="0 0 24 24" id="dot_disabled">
        <circle fill="#fff" cx="12" cy="12" r="12" />
        <circle fill="#90a4ae" cx="12" cy="12" r="10" />
    </symbol>
</svg>