<svg width="0" height="0" class="hidden"
    xmlns="http://www.w3.org/2000/svg"
    xmlns:xlink="http://www.w3.org/1999/xlink">
    <symbol xmlns="http://www.w3.org/2000/svg" viewBox="0 0 30 30" id="marker_pin">
 <g fill="#fff" stroke="#383838">
  <path id="pin" transform="matrix(1.1451 0 0 1.0688 -1.0308 .66564)" d="m14 21.197c-0.70408 0.29179-1.4046 0.93052-1.8086 1.7949-0.88162 1.8863 1.8086 4.0078 1.8086 4.0078s2.6902-2.1215 1.8086-4.0078c-0.40401-0.86441-1.1045-1.5031-1.8086-1.7949z" fill-rule="evenodd" stroke-width=".7" style="mix-blend-mode:normal"/>
  </g>
    </symbol>
    <symbol xmlns="http://www.w3.org/2000/svg" viewBox="0 0 30 30" id="marker">
 <g fill="#fff" stroke="#383838">
  <circle id="marker_gc" cx="15" cy="15" r="11.613" stroke-width=".75"/>
 </g>
    </symbol>
    <symbol xmlns="http://www.w3.org/2000/svg" viewBox="0 0 30 30" id="marker_oc">
 <g fill="#fff" stroke="#383838">
  <rect id="marker_oc" x="3.387" y="3.387" width="23.226" height="23.226" rx="4.5852" ry="4.5852" stroke-linecap="square" stroke-width=".75"/>
 </g>
    </symbol>
    <symbol xmlns="http://www.w3.org/2000/svg" viewBox="0 0 30 30" id="marker_other">
 <g fill="#fff" stroke="#383838">
  <path id="marker_other" transform="matrix(.50193 0 0 .50193 6.9717 -1.7222)" d="m42.711 33.316-13.358 23.137h-26.716l-13.358-23.137 13.358-23.137h26.716z" stroke-width="1.4942"/>
  </g>
    </symbol>
    <symbol xmlns="http://www.w3.org/2000/svg" viewBox="0 0 30 30" id="marker_other2">
 <g fill="#fff" stroke="#383838">
  <path id="pin" transform="matrix(1.1451 0 0 1.0688 -1.0308 .66564)" d="m14 21.197c-0.70408 0.29179-1.4046 0.93052-1.8086 1.7949-0.88162 1.8863 1.8086 4.0078 1.8086 4.0078s2.6902-2.1215 1.8086-4.0078c-0.40401-0.86441-1.1045-1.5031-1.8086-1.7949z" fill-rule="evenodd" stroke-width=".7" style="mix-blend-mode:normal"/>
  <path id="hexa" transform="matrix(.98491 0 0 .98491 .28885 .005942)" d="m28.509 15.152-6.7239 11.79-13.572 0.071811-6.8483-11.718 6.7239-11.79 13.572-0.071811z" display="none" stroke-width=".78586"/>
  <rect id="rect" x="3.387" y="3.387" width="23.226" height="23.226" rx="4.5852" ry="4.5852" display="none" stroke-linecap="square" stroke-width=".774"/>
  <circle id="gc" cx="15" cy="15" r="11.613" display="none" stroke-width=".774"/>
  <path id="octagon" transform="matrix(1.0209 0 0 1.0209 17.333 10.023)" d="m-6.9966 16.25-6.6633-6.6633v-9.4233l6.6633-6.6633 9.4233-1e-7 6.6633 6.6633 1e-7 9.4233-6.6633 6.6633z" stroke-width=".75813"/>
 </g>
    </symbol>
    <symbol xmlns="http://www.w3.org/2000/svg" viewBox="0 0 24 24" id="tick">
        <path fill="#43a047" d="M9,20.42L2.79,14.21L5.62,11.38L9,14.77L18.88,4.88L21.71,7.71L9,20.42Z" />
    </symbol>
    <symbol xmlns="http://www.w3.org/2000/svg" viewBox="0 0 24 24" id="compass_arrow_mini_black">
        <path fill="#212121" d="M12,2L4.5,20.29L5.21,21L12,18L18.79,21L19.5,20.29L12,2Z" />
    </symbol>
    <symbol xmlns="http://www.w3.org/2000/svg" viewBox="0 0 24 24" id="compass_arrow_mini_white">
        <path fill="#e0e0e0" d="M12,2L4.5,20.29L5.21,21L12,18L18.79,21L19.5,20.29L12,2Z" />
    </symbol>
    <symbol xmlns="http://www.w3.org/2000/svg" viewBox="0 0 24 24" id="type_overlay_archived">
        <path d="m2.4 21.6 19.2-19.2" stroke="#b71c1c" stroke-width="3" />
        <path d="m21.6 21.6-19.2-19.2" stroke="#b71c1c" stroke-width="3" />
        <!--
        <line x1="10%" y1="90%" x2="90%" y2="10%" stroke="#b71c1c" stroke-width="3" />
        <line x1="90%" y1="90%" x2="10%" y2="10%" stroke="#b71c1c" stroke-width="3" />-->
    </symbol>
    <symbol xmlns="http://www.w3.org/2000/svg" viewBox="0 0 24 24" id="type_overlay_visited">
        <path fill="#43a047" d="M9,20.42L2.79,14.21L5.62,11.38L9,14.77L18.88,4.88L21.71,7.71L9,20.42Z" />
    </symbol>
</svg>