<!--

colors:
700 for cache types
800 for markers / waypoints

-->
<svg width="0" height="0" class="hidden"
    xmlns="http://www.w3.org/2000/svg"
    xmlns:xlink="http://www.w3.org/1999/xlink">
    <symbol xmlns="http://www.w3.org/2000/svg" viewBox="0 0 24 24" id="marker_found">
        <circle fill="#5D4037" cx="12" cy="12" r="12" />
        <path fill="#FBC02D" d="M12,2C6.47,2 2,6.5 2,12A10,10 0 0,0 12,22A10,10 0 0,0 22,12A10,10 0 0,0 12,2M15.5,8A1.5,1.5 0 0,1 17,9.5A1.5,1.5 0 0,1 15.5,11A1.5,1.5 0 0,1 14,9.5A1.5,1.5 0 0,1 15.5,8M8.5,8A1.5,1.5 0 0,1 10,9.5A1.5,1.5 0 0,1 8.5,11A1.5,1.5 0 0,1 7,9.5A1.5,1.5 0 0,1 8.5,8M12,17.5C9.67,17.5 7.69,16.04 6.89,14H17.11C16.3,16.04 14.33,17.5 12,17.5Z" />
    </symbol>
    <symbol xmlns="http://www.w3.org/2000/svg" viewBox="0 0 24 24" id="marker_found_offline">
        <circle fill="#5D4037" cx="12" cy="12" r="12" />
        <path fill="#F57C00" d="M12,2C6.47,2 2,6.5 2,12A10,10 0 0,0 12,22A10,10 0 0,0 22,12A10,10 0 0,0 12,2M15.5,8A1.5,1.5 0 0,1 17,9.5A1.5,1.5 0 0,1 15.5,11A1.5,1.5 0 0,1 14,9.5A1.5,1.5 0 0,1 15.5,8M8.5,8A1.5,1.5 0 0,1 10,9.5A1.5,1.5 0 0,1 8.5,11A1.5,1.5 0 0,1 7,9.5A1.5,1.5 0 0,1 8.5,8M12,17.5C9.67,17.5 7.69,16.04 6.89,14H17.11C16.3,16.04 14.33,17.5 12,17.5Z" />
    </symbol>
    <symbol xmlns="http://www.w3.org/2000/svg" viewBox="0 0 24 24" id="marker_not_found_offline">
        <circle fill="#1A237E" cx="12" cy="12" r="12" />
        <path fill="#448AFF" d="m 12,2 c -5.5228475,10e-8 -9.9999999,4.4771525 -9.9999999,10 0,5.522847 4.4771524,10 9.9999999,10 5.522847,0 10,-4.477153 10,-10 C 22,6.4771525 17.522847,2 12,2 M 7.0000001,9.5 c 0,-0.8 0.7,-1.5 1.5,-1.5 C 9.3,8 10,8.7 10,9.5 10,10.3 9.3,11 8.5000001,11 c -0.8,0 -1.5,-0.7 -1.5,-1.5 M 6.89,17.5 C 7.8497124,15.16013 9.9475614,14.045447 12,14 c 1.75,0 4.130266,1.014652 5.11,3.5 M 15.5,11 C 14.7,11 14,10.3 14,9.5 14,8.7 14.7,8 15.5,8 16.3,8 17,8.7 17,9.5 17,10.3 16.3,11 15.5,11 Z" />
    </symbol>
    <symbol xmlns="http://www.w3.org/2000/svg" viewBox="0 0 24 24" id="marker_unknown_offline">
        <circle fill="#424242" cx="12" cy="12" r="12" />
        <path fill="#9E9E9E" d="M12,2A10,10 0 0,0 2,12A10,10 0 0,0 12,22A10,10 0 0,0 22,12A10,10 0 0,0 12,2M7,9.5C7,8.7 7.7,8 8.5,8C9.3,8 10,8.7 10,9.5C10,10.3 9.3,11 8.5,11C7.7,11 7,10.3 7,9.5M14.77,17.23C14.32,16.5 13.25,16 12,16C10.75,16 9.68,16.5 9.23,17.23L7.81,15.81C8.71,14.72 10.25,14 12,14C13.75,14 15.29,14.72 16.19,15.81L14.77,17.23M15.5,11C14.7,11 14,10.3 14,9.5C14,8.7 14.7,8 15.5,8C16.3,8 17,8.7 17,9.5C17,10.3 16.3,11 15.5,11Z" />
    </symbol>
    <symbol xmlns="http://www.w3.org/2000/svg" viewBox="0 0 24 24" id="marker_own">
        <circle fill="#fff" cx="12" cy="12" r="12" />
        <path fill="#FFAB00" d="M16.23,18L12,15.45L7.77,18L8.89,13.19L5.16,9.96L10.08,9.54L12,5L13.92,9.53L18.84,9.95L15.11,13.18L16.23,18M12,2C6.47,2 2,6.5 2,12A10,10 0 0,0 12,22A10,10 0 0,0 22,12A10,10 0 0,0 12,2Z" />
    </symbol>
    <symbol xmlns="http://www.w3.org/2000/svg" viewBox="0 0 24 24" id="marker_own2">
        <circle fill="#fff" cx="12" cy="12" r="12" />
        <circle fill="#FFAB00" cx="12" cy="12" r="10" />
        <g transform="translate(3,3)">
            <path fill="#fff" d="M12,17.27L18.18,21L16.54,13.97L22,9.24L14.81,8.62L12,2L9.19,8.62L2,9.24L7.45,13.97L5.82,21L12,17.27Z" transform="scale(0.75)" />
        </g>
    </symbol>
    <symbol xmlns="http://www.w3.org/2000/svg" viewBox="0 0 24 24" id="marker_personalnote">
        <circle fill="#fff" cx="12" cy="12" r="12" />
        <circle fill="#689F38" cx="12" cy="12" r="10" />
        <g transform="translate(4,3.5)">
            <path fill="#fff" d="M16.84,2.73C16.45,2.73 16.07,2.88 15.77,3.17L13.65,5.29L18.95,10.6L21.07,8.5C21.67,7.89 21.67,6.94 21.07,6.36L17.9,3.17C17.6,2.88 17.22,2.73 16.84,2.73M12.94,6L4.84,14.11L7.4,14.39L7.58,16.68L9.86,16.85L10.15,19.41L18.25,11.3M4.25,15.04L2.5,21.73L9.2,19.94L8.96,17.78L6.65,17.61L6.47,15.29" transform="scale(0.666666667)" />
        </g>
    </symbol>
    <symbol xmlns="http://www.w3.org/2000/svg" viewBox="0 0 24 24" id="marker_maintenance">
        <circle fill="#fff" cx="12" cy="12" r="12" />
        <circle fill="#C62828" cx="12" cy="12" r="10" />
        <path fill="#fff" d="M18 14H14V18H10V14H6V10H10V6H14V10H18" />
    </symbol>
    <symbol xmlns="http://www.w3.org/2000/svg" viewBox="0 0 24 24" id="marker_owner_maintenance">
        <circle fill="#fff" cx="12" cy="12" r="12" />
        <circle fill="#2E7D32" cx="12" cy="12" r="10" />
        <path fill="#fff" d="M18 14H14V18H10V14H6V10H10V6H14V10H18" />
    </symbol>
    <symbol xmlns="http://www.w3.org/2000/svg" viewBox="0 0 24 24" id="marker_note">
        <circle fill="#fff" cx="12" cy="12" r="12" />
        <circle fill="#4e342e" cx="12" cy="12" r="10" />
        <path fill="#fff" d="M14,10H19.5L14,4.5V10M5,3H15L21,9V19A2,2 0 0,1 19,21H5C3.89,21 3,20.1 3,19V5C3,3.89 3.89,3 5,3M5,12V14H19V12H5M5,16V18H14V16H5Z" transform="translate(5.5,4.1) scale(0.57,0.65)" />
    </symbol>
    <symbol xmlns="http://www.w3.org/2000/svg" viewBox="0 0 24 24" id="marker_archive">
        <circle fill="#fff" cx="12" cy="12" r="12" />
        <circle fill="#7b1fa2" cx="12" cy="12" r="10" />
        <g transform="translate(4.5,4.5)">
            <path fill="#fff" d="M10,2H14C17.31,2 19,4.69 19,8V18.66C16.88,17.63 15.07,17 12,17C8.93,17 7.12,17.63 5,18.66V8C5,4.69 6.69,2 10,2M8,8V9.5H16V8H8M9,12V13.5H15V12H9M3,22V21.31C5.66,19.62 13.23,15.84 21,21.25V22H3Z" transform="scale(0.625)" />
        </g>
    </symbol>
    <symbol xmlns="http://www.w3.org/2000/svg" viewBox="0 0 24 24" id="marker_usermodifiedcoords">
        <circle fill="#fff" cx="12" cy="12" r="12" />
        <circle fill="#0288D1" cx="12" cy="12" r="10" />
        <g transform="translate(4,3.5)">
            <path fill="#fff" d="M14.4,6H20V16H13L12.6,14H7V21H5V4H14L14.4,6M14,14H16V12H18V10H16V8H14V10L13,8V6H11V8H9V6H7V8H9V10H7V12H9V10H11V12H13V10L14,12V14M11,10V8H13V10H11M14,10H16V12H14V10Z" transform="scale(0.666666667)" />
        </g>
    </symbol>
    <symbol xmlns="http://www.w3.org/2000/svg" viewBox="0 0 24 24" id="marker_calendar">
        <circle fill="#fff" cx="12" cy="12" r="12" />
        <circle fill="#D32F2F" cx="12" cy="12" r="10" />
        <g transform="translate(4.5,4.5)">
            <path fill="#fff" d="M19,19H5V8H19M16,1V3H8V1H6V3H5C3.89,3 3,3.89 3,5V19A2,2 0 0,0 5,21H19A2,2 0 0,0 21,19V5C21,3.89 20.1,3 19,3H18V1M17,12H12V17H17V12Z" transform="scale(0.625)" />
        </g>
    </symbol>
    <!-- want to keep this small as most caches will have it -->
    <symbol xmlns="http://www.w3.org/2000/svg" viewBox="0 0 24 24" id="marker_stored">
        <g transform="translate(4,2)">
            <path fill="#3c3c3c" stroke-width="1" stroke="#fff" d="M15,9H5V5H15M12,19A3,3 0 0,1 9,16A3,3 0 0,1 12,13A3,3 0 0,1 15,16A3,3 0 0,1 12,19M17,3H5C3.89,3 3,3.9 3,5V19A2,2 0 0,0 5,21H19A2,2 0 0,0 21,19V7L17,3Z" transform="scale(0.75)" />
        </g>
    </symbol>
    <symbol xmlns="http://www.w3.org/2000/svg" viewBox="0 0 24 24" id="dot_advlab">
        <circle fill="#fff" cx="12" cy="12" r="12" />
        <circle fill="#90CAF9" cx="12" cy="12" r="10" />
    </symbol>
    <symbol xmlns="http://www.w3.org/2000/svg" viewBox="0 0 24 24" id="dot_cgeo">
        <circle fill="#fff" cx="12" cy="12" r="12" />
        <circle fill="#f7991d" cx="12" cy="12" r="10" />
    </symbol>
    <symbol xmlns="http://www.w3.org/2000/svg" viewBox="0 0 24 24" id="dot_advlab3">
        <circle fill="#fff" cx="12" cy="12" r="12" />
        <circle fill="#7b1fa2" cx="12" cy="12" r="10" />
    </symbol>
    <symbol xmlns="http://www.w3.org/2000/svg" viewBox="0 0 24 24" id="dot_advlab2">
        <circle fill="#fff" cx="12" cy="12" r="12" />
        <circle fill="#90CAF9" cx="12" cy="12" r="10" />
        <circle fill="#fff" cx="12" cy="9" r="2" />
        <g transform="translate(3.6,3.6)">
            <path fill="#e64a19" stroke-width="1" stroke="#212121" d="M12,11.5A2.5,2.5 0 0,1 9.5,9A2.5,2.5 0 0,1 12,6.5A2.5,2.5 0 0,1 14.5,9A2.5,2.5 0 0,1 12,11.5M12,2A7,7 0 0,0 5,9C5,14.25 12,22 12,22C12,22 19,14.25 19,9A7,7 0 0,0 12,2Z" transform="scale(0.7)" />
        </g>
    </symbol>
    <symbol xmlns="http://www.w3.org/2000/svg" viewBox="0 0 24 24" id="dot_black">
        <circle fill="#fff" cx="12" cy="12" r="12" />
        <circle fill="#212121" cx="12" cy="12" r="10" />
    </symbol>
    <symbol xmlns="http://www.w3.org/2000/svg" viewBox="0 0 24 24" id="dot_event">
        <circle fill="#fff" cx="12" cy="12" r="12" />
        <circle fill="#D32F2F" cx="12" cy="12" r="10" />
    </symbol>
    <symbol xmlns="http://www.w3.org/2000/svg" viewBox="0 0 24 24" id="dot_event2">
        <circle fill="#fff" cx="12" cy="12" r="12" />
        <circle fill="#D32F2F" cx="12" cy="12" r="10" />
        <g transform="translate(5,4.8)">
            <path fill="#fff" d="M12,3C17.5,3 22,6.58 22,11C22,15.42 17.5,19 12,19C10.76,19 9.57,18.82 8.47,18.5C5.55,21 2,21 2,21C4.33,18.67 4.7,17.1 4.75,16.5C3.05,15.07 2,13.13 2,11C2,6.58 6.5,3 12,3M17,12V10H15V12H17M13,12V10H11V12H13M9,12V10H7V12H9Z" transform="scale(0.6)" />
        </g>
    </symbol>
    <symbol xmlns="http://www.w3.org/2000/svg" viewBox="0 0 24 24" id="dot_multi">
        <circle fill="#fff" cx="12" cy="12" r="12" />
        <circle fill="#F57C00" cx="12" cy="12" r="10" />
    </symbol>
    <symbol xmlns="http://www.w3.org/2000/svg" viewBox="0 0 24 24" id="dot_multi2">
        <circle fill="#fff" cx="12" cy="12" r="12" />
        <circle fill="#F57C00" cx="12" cy="12" r="10" />
    </symbol>
    <symbol xmlns="http://www.w3.org/2000/svg" viewBox="0 0 24 24" id="dot_mystery">
        <circle fill="#fff" cx="12" cy="12" r="12" />
        <circle fill="#303F9F" cx="12" cy="12" r="10" />
    </symbol>
    <symbol xmlns="http://www.w3.org/2000/svg" viewBox="0 0 24 24" id="dot_mystery2">
        <circle fill="#fff" cx="12" cy="12" r="12" />
        <path fill="#303F9F" d="M15.07,11.25L14.17,12.17C13.45,12.89 13,13.5 13,15H11V14.5C11,13.39 11.45,12.39 12.17,11.67L13.41,10.41C13.78,10.05 14,9.55 14,9C14,7.89 13.1,7 12,7A2,2 0 0,0 10,9H8A4,4 0 0,1 12,5A4,4 0 0,1 16,9C16,9.88 15.64,10.67 15.07,11.25M13,19H11V17H13M12,2A10,10 0 0,0 2,12A10,10 0 0,0 12,22A10,10 0 0,0 22,12C22,6.47 17.5,2 12,2Z" />
    </symbol>
    <symbol xmlns="http://www.w3.org/2000/svg" viewBox="0 0 24 24" id="dot_special">
        <circle fill="#fff" cx="12" cy="12" r="12" />
        <circle fill="#689F38" cx="12" cy="12" r="10" />
    </symbol>
    <symbol xmlns="http://www.w3.org/2000/svg" viewBox="0 0 24 24" id="dot_traditional">
        <circle fill="#fff" cx="12" cy="12" r="12" />
        <circle fill="#388E3C" cx="12" cy="12" r="10" />
    </symbol>
    <symbol xmlns="http://www.w3.org/2000/svg" viewBox="0 0 24 24" id="dot_traditional2">
        <circle fill="#fff" cx="12" cy="12" r="12" />
        <circle fill="#388E3C" cx="12" cy="12" r="10" />
        <g transform="translate(5.4,5.2) scale(0.55)">
            <path d="m22.728 9.3045c-0.42044 2.0106-0.83827 4.0217-1.2562 6.0328l-13.273 6.5925c-0.37493 0.12498-0.64626 0.11052-0.88371-0.0707l-6.2037-7.1404 0.093493-6.1414z" fill="none" stroke="#fff" stroke-width="1.5" />
            <path d="m23.598 8.4876-0.3835 1.2639c-0.26933 0.2688-0.44314 0.37116-0.44314 0.37116l-14.139 6.4688c-0.64362 0.23745-0.97208-0.0707-0.97208-0.0707l-6.9813-6.9106c-0.18746-0.17497-0.15907-0.38883-0.15907-0.38883s-0.063329-0.4547-0.002326-1.8774z" fill="#fffffe" />
            <path d="m16.116 2.0639 7.4939 6.1153c0.21209 0.28279-0.08837 0.45953-0.08837 0.45953l-14.793 6.0092c-0.34705 0.16835-0.69625 0.050181-0.88371-0.10604l-7.1757-6.6102c-0.63627-0.72464 0.31814-1.0251 0.31814-1.0251l14.157-4.8781c0.56557-0.22976 0.97208 0.035349 0.97208 0.035349z" fill="#fffffe" />
            <path d="m7.9375 22.344 0.125-6.125" fill="none" stroke="#fff" stroke-width="1.5" />
        </g>
    </symbol>
    <symbol xmlns="http://www.w3.org/2000/svg" viewBox="0 0 24 24" id="dot_virtual">
        <circle fill="#fff" cx="12" cy="12" r="12" />
        <circle fill="#0288d1" cx="12" cy="12" r="10" />
    </symbol>
    <symbol xmlns="http://www.w3.org/2000/svg" viewBox="0 0 24 24" id="dot_waypoint_flag">
        <circle fill="#999" cx="12" cy="12" r="12" />
        <circle fill="#fff" cx="12" cy="12" r="10" />
        <g transform="translate(3,3)">
            <path fill="#C62828" d="M6,3A1,1 0 0,1 7,4V4.88C8.06,4.44 9.5,4 11,4C14,4 14,6 16,6C19,6 20,4 20,4V12C20,12 19,14 16,14C13,14 13,12 11,12C8,12 7,14 7,14V21H5V4A1,1 0 0,1 6,3Z" transform="scale(0.75)" />
        </g>
    </symbol>
    <symbol xmlns="http://www.w3.org/2000/svg" viewBox="0 0 24 24" id="dot_waypoint_pkg">
        <circle fill="#999" cx="12" cy="12" r="12" />
        <circle fill="#fff" cx="12" cy="12" r="10" />
        <g transform="translate(3.3,3)">
            <path fill="#01579B" d="M13.2,11H10V7H13.2A2,2 0 0,1 15.2,9A2,2 0 0,1 13.2,11M13,3H6V21H10V15H13A6,6 0 0,0 19,9C19,5.68 16.31,3 13,3Z" transform="scale(0.75)" />
        </g>
    </symbol>
    <symbol xmlns="http://www.w3.org/2000/svg" viewBox="0 0 24 24" id="dot_waypoint_reference">
        <circle fill="#999" cx="12" cy="12" r="12" />
        <circle fill="#fff" cx="12" cy="12" r="10" />
        <circle fill="#C62828" cx="12" cy="12" r="7" />
        <circle fill="#fff" cx="12" cy="12" r="5.5" />
        <circle fill="#C62828" cx="12" cy="12" r="2" />
    </symbol>
    <symbol xmlns="http://www.w3.org/2000/svg" viewBox="0 0 24 24" id="dot_waypoint">
        <circle fill="#999" cx="12" cy="12" r="12" />
        <circle fill="#fff" cx="12" cy="12" r="10" />
    </symbol>
    <symbol xmlns="http://www.w3.org/2000/svg" viewBox="0 0 24 24" id="dot_unknown2">
        <circle fill="#fff" cx="12" cy="12" r="12" />
        <path fill="#616161" d="M15.07,11.25L14.17,12.17C13.45,12.89 13,13.5 13,15H11V14.5C11,13.39 11.45,12.39 12.17,11.67L13.41,10.41C13.78,10.05 14,9.55 14,9C14,7.89 13.1,7 12,7A2,2 0 0,0 10,9H8A4,4 0 0,1 12,5A4,4 0 0,1 16,9C16,9.88 15.64,10.67 15.07,11.25M13,19H11V17H13M12,2A10,10 0 0,0 2,12A10,10 0 0,0 12,22A10,10 0 0,0 22,12C22,6.47 17.5,2 12,2Z" />
    </symbol>
    <symbol xmlns="http://www.w3.org/2000/svg" viewBox="0 0 24 24" id="dot_unknown">
        <circle fill="#fff" cx="12" cy="12" r="12" />
        <circle fill="#616161" cx="12" cy="12" r="10" />
    </symbol>
    <!-- scale down the smiley as it seems larger due to the dark border -->
    <symbol xmlns="http://www.w3.org/2000/svg" viewBox="0 0 24 24" id="dot_found">
        <g transform="translate(2,2) scale(0.8333333333333333)">
            <circle fill="#5D4037" cx="12" cy="12" r="12" />
            <path fill="#FBC02D" d="M12,2C6.47,2 2,6.5 2,12A10,10 0 0,0 12,22A10,10 0 0,0 22,12A10,10 0 0,0 12,2M15.5,8A1.5,1.5 0 0,1 17,9.5A1.5,1.5 0 0,1 15.5,11A1.5,1.5 0 0,1 14,9.5A1.5,1.5 0 0,1 15.5,8M8.5,8A1.5,1.5 0 0,1 10,9.5A1.5,1.5 0 0,1 8.5,11A1.5,1.5 0 0,1 7,9.5A1.5,1.5 0 0,1 8.5,8M12,17.5C9.67,17.5 7.69,16.04 6.89,14H17.11C16.3,16.04 14.33,17.5 12,17.5Z" />
        </g>
    </symbol>
    <symbol xmlns="http://www.w3.org/2000/svg" viewBox="0 0 24 24" id="dot_found_offline">
        <g transform="translate(2,2) scale(0.8333333333333333)">
            <circle fill="#5D4037" cx="12" cy="12" r="12" />
            <path fill="#F57C00" d="M12,2C6.47,2 2,6.5 2,12A10,10 0 0,0 12,22A10,10 0 0,0 22,12A10,10 0 0,0 12,2M15.5,8A1.5,1.5 0 0,1 17,9.5A1.5,1.5 0 0,1 15.5,11A1.5,1.5 0 0,1 14,9.5A1.5,1.5 0 0,1 15.5,8M8.5,8A1.5,1.5 0 0,1 10,9.5A1.5,1.5 0 0,1 8.5,11A1.5,1.5 0 0,1 7,9.5A1.5,1.5 0 0,1 8.5,8M12,17.5C9.67,17.5 7.69,16.04 6.89,14H17.11C16.3,16.04 14.33,17.5 12,17.5Z" />
        </g>
    </symbol>
    <symbol xmlns="http://www.w3.org/2000/svg" viewBox="0 0 24 24" id="dot_found2">
            <circle fill="#5D4037" cx="12" cy="12" r="12" />
            <path fill="#FBC02D" d="M12,2C6.47,2 2,6.5 2,12A10,10 0 0,0 12,22A10,10 0 0,0 22,12A10,10 0 0,0 12,2M15.5,8A1.5,1.5 0 0,1 17,9.5A1.5,1.5 0 0,1 15.5,11A1.5,1.5 0 0,1 14,9.5A1.5,1.5 0 0,1 15.5,8M8.5,8A1.5,1.5 0 0,1 10,9.5A1.5,1.5 0 0,1 8.5,11A1.5,1.5 0 0,1 7,9.5A1.5,1.5 0 0,1 8.5,8M12,17.5C9.67,17.5 7.69,16.04 6.89,14H17.11C16.3,16.04 14.33,17.5 12,17.5Z" />
    </symbol>
    <symbol xmlns="http://www.w3.org/2000/svg" viewBox="0 0 24 24" id="type_advlab4">
        <circle fill="#90CAF9" cx="12" cy="12" r="12" />
        <circle fill="#90CAF9" cx="12" cy="10" r="2" />
        <g transform="translate(2.4,2.4)">
            <path fill="#fff" d="M12,11.5A2.5,2.5 0 0,1 9.5,9A2.5,2.5 0 0,1 12,6.5A2.5,2.5 0 0,1 14.5,9A2.5,2.5 0 0,1 12,11.5M12,2A7,7 0 0,0 5,9C5,14.25 12,22 12,22C12,22 19,14.25 19,9A7,7 0 0,0 12,2Z" transform="scale(0.8)" />
        </g>
    </symbol>
    <symbol xmlns="http://www.w3.org/2000/svg" viewBox="0 0 24 24" id="type_advlab5">
        <circle fill="#7b1fa2" cx="12" cy="12" r="12" />
        <circle fill="#7b1fa2" cx="12" cy="10" r="2" />
        <g transform="translate(2.4,2.4)">
            <path fill="#fff" d="M12,11.5A2.5,2.5 0 0,1 9.5,9A2.5,2.5 0 0,1 12,6.5A2.5,2.5 0 0,1 14.5,9A2.5,2.5 0 0,1 12,11.5M12,2A7,7 0 0,0 5,9C5,14.25 12,22 12,22C12,22 19,14.25 19,9A7,7 0 0,0 12,2Z" transform="scale(0.8)" />
        </g>
    </symbol>
    <symbol xmlns="http://www.w3.org/2000/svg" viewBox="0 0 24 24" id="type_advlab2">
        <circle fill="#90CAF9" cx="12" cy="12" r="12" />
        <g transform="translate(8.7,-1)">
        <g transform="rotate(30)">
            <path fill="#fff" d="M19 15C19 18.87 15.87 22 12 22C8.13 22 5 18.87 5 15C5 12.21 6.64 9.8 9 8.67V5C9 4.45 9.45 4 10 4H10.5L9.5 2H14.5L13.5 4H14C14.55 4 15 4.45 15 5V8.67C17.36 9.8 19 12.21 19 15M11 6V10.1C8.72 10.56 7 12.58 7 15L7.08 15.91L9 13.93L13.07 18L16.93 14.14C16.58 12.12 15 10.5 13 10.1V6H11M13.07 12C13.62 12 14.07 12.45 14.07 13C14.07 13.55 13.62 14 13.07 14C12.5 14 12.07 13.55 12.07 13C12.07 12.45 12.5 12 13.07 12Z" transform="scale(0.8)" />
            </g>
        </g>
    </symbol>
    <symbol xmlns="http://www.w3.org/2000/svg" viewBox="0 0 24 24" id="type_advlab">
        <circle fill="#7b1fa2" cx="12" cy="12" r="12" />
        <g transform="translate(8.7,-1)">
        <g transform="rotate(30)">
            <path fill="#fff" d="M19 15C19 18.87 15.87 22 12 22C8.13 22 5 18.87 5 15C5 12.21 6.64 9.8 9 8.67V5C9 4.45 9.45 4 10 4H10.5L9.5 2H14.5L13.5 4H14C14.55 4 15 4.45 15 5V8.67C17.36 9.8 19 12.21 19 15M11 6V10.1C8.72 10.56 7 12.58 7 15L7.08 15.91L9 13.93L13.07 18L16.93 14.14C16.58 12.12 15 10.5 13 10.1V6H11M13.07 12C13.62 12 14.07 12.45 14.07 13C14.07 13.55 13.62 14 13.07 14C12.5 14 12.07 13.55 12.07 13C12.07 12.45 12.5 12 13.07 12Z" transform="scale(0.8)" />
            </g>
        </g>
    </symbol>
    <symbol xmlns="http://www.w3.org/2000/svg" viewBox="0 0 24 24" id="type_advlab6">
        <circle fill="#7b1fa2" cx="12" cy="12" r="12" />
        <g transform="translate(3,3)">
            <path fill="#fff" d="M11,23A2,2 0 0,1 9,21V19H15V21A2,2 0 0,1 13,23H11M12,1C12.71,1 13.39,1.09 14.05,1.26C15.22,2.83 16,5.71 16,9C16,11.28 15.62,13.37 15,16A2,2 0 0,1 13,18H11A2,2 0 0,1 9,16C8.38,13.37 8,11.28 8,9C8,5.71 8.78,2.83 9.95,1.26C10.61,1.09 11.29,1 12,1M20,8C20,11.18 18.15,15.92 15.46,17.21C16.41,15.39 17,11.83 17,9C17,6.17 16.41,3.61 15.46,1.79C18.15,3.08 20,4.82 20,8M4,8C4,4.82 5.85,3.08 8.54,1.79C7.59,3.61 7,6.17 7,9C7,11.83 7.59,15.39 8.54,17.21C5.85,15.92 4,11.18 4,8Z" transform="scale(0.75)" />
        </g>
    </symbol>
    <symbol xmlns="http://www.w3.org/2000/svg" viewBox="0 0 24 24" id="type_advlab3">
        <circle fill="#90CAF9" cx="12" cy="12" r="12" />
        <circle fill="#fff" cx="12" cy="10" r="2" />
        <g transform="translate(2.4,2.4)">
            <path fill="#e64a19" stroke-width="1" stroke="#212121" d="M12,11.5A2.5,2.5 0 0,1 9.5,9A2.5,2.5 0 0,1 12,6.5A2.5,2.5 0 0,1 14.5,9A2.5,2.5 0 0,1 12,11.5M12,2A7,7 0 0,0 5,9C5,14.25 12,22 12,22C12,22 19,14.25 19,9A7,7 0 0,0 12,2Z" transform="scale(0.8)" />
        </g>
    </symbol>
    <symbol xmlns="http://www.w3.org/2000/svg" viewBox="0 0 24 24" id="type_earth">
        <circle fill="#0288d1" cx="12" cy="12" r="12" />
        <g transform="translate(2.4,2.4)">
            <path fill="#fff" d="M17.9,17.39C17.64,16.59 16.89,16 16,16H15V13A1,1 0 0,0 14,12H8V10H10A1,1 0 0,0 11,9V7H13A2,2 0 0,0 15,5V4.59C17.93,5.77 20,8.64 20,12C20,14.08 19.2,15.97 17.9,17.39M11,19.93C7.05,19.44 4,16.08 4,12C4,11.38 4.08,10.78 4.21,10.21L9,15V16A2,2 0 0,0 11,18M12,2A10,10 0 0,0 2,12A10,10 0 0,0 12,22A10,10 0 0,0 22,12A10,10 0 0,0 12,2Z" transform="scale(0.8)" />
        </g>
    </symbol>
    <symbol xmlns="http://www.w3.org/2000/svg" viewBox="0 0 24 24" id="type_mystery">
        <circle fill="#303f9f" cx="12" cy="12" r="12" />
        <g transform="translate(2.4,2.4)">
            <path fill="#fff" d="M10,19H13V22H10V19M12,2C17.35,2.22 19.68,7.62 16.5,11.67C15.67,12.67 14.33,13.33 13.67,14.17C13,15 13,16 13,17H10C10,15.33 10,13.92 10.67,12.92C11.33,11.92 12.67,11.33 13.5,10.67C15.92,8.43 15.32,5.26 12,5A3,3 0 0,0 9,8H6A6,6 0 0,1 12,2Z" transform="scale(0.8)" />
        </g>
    </symbol>
    <symbol xmlns="http://www.w3.org/2000/svg" viewBox="0 0 24 24" id="type_letterbox">
        <circle fill="#303f9f" cx="12" cy="12" r="12" />
        <g transform="translate(3.6,4)">
            <path fill="#fff" d="M20,8L12,13L4,8V6L12,11L20,6M20,4H4C2.89,4 2,4.89 2,6V18A2,2 0 0,0 4,20H20A2,2 0 0,0 22,18V6C22,4.89 21.1,4 20,4Z" transform="scale(0.7 0.65)" />
        </g>
    </symbol>
    <symbol xmlns="http://www.w3.org/2000/svg" viewBox="0 0 24 24" id="type_virtual">
        <circle fill="#0288d1" cx="12" cy="12" r="12" />
        <g transform="translate(3.6,3)">
            <path fill="#fff" d="M12,2A9,9 0 0,0 3,11V22L6,19L9,22L12,19L15,22L18,19L21,22V11A9,9 0 0,0 12,2M9,8A2,2 0 0,1 11,10A2,2 0 0,1 9,12A2,2 0 0,1 7,10A2,2 0 0,1 9,8M15,8A2,2 0 0,1 17,10A2,2 0 0,1 15,12A2,2 0 0,1 13,10A2,2 0 0,1 15,8Z" transform="scale(0.7)" />
        </g>
    </symbol>
    <symbol xmlns="http://www.w3.org/2000/svg" viewBox="0 0 24 24" id="type_webcam">
        <circle fill="#0288d1" cx="12" cy="12" r="12" />
        <g transform="translate(3,2.5)">
            <path fill="#fff" d="M12,2A7,7 0 0,1 19,9A7,7 0 0,1 12,16A7,7 0 0,1 5,9A7,7 0 0,1 12,2M12,4A5,5 0 0,0 7,9A5,5 0 0,0 12,14A5,5 0 0,0 17,9A5,5 0 0,0 12,4M12,6A3,3 0 0,1 15,9A3,3 0 0,1 12,12A3,3 0 0,1 9,9A3,3 0 0,1 12,6M6,22A2,2 0 0,1 4,20C4,19.62 4.1,19.27 4.29,18.97L6.11,15.81C7.69,17.17 9.75,18 12,18C14.25,18 16.31,17.17 17.89,15.81L19.71,18.97C19.9,19.27 20,19.62 20,20A2,2 0 0,1 18,22H6Z" transform="scale(0.75)" />
        </g>
    </symbol>
    <symbol xmlns="http://www.w3.org/2000/svg" viewBox="0 0 24 24" id="type_event">
        <circle fill="#d32f2f" cx="12" cy="12" r="12" />
        <g transform="translate(3.3,2.5)">
            <path fill="#fff" d="M12,3C17.5,3 22,6.58 22,11C22,15.42 17.5,19 12,19C10.76,19 9.57,18.82 8.47,18.5C5.55,21 2,21 2,21C4.33,18.67 4.7,17.1 4.75,16.5C3.05,15.07 2,13.13 2,11C2,6.58 6.5,3 12,3M17,12V10H15V12H17M13,12V10H11V12H13M9,12V10H7V12H9Z" transform="scale(0.75)" />
        </g>
    </symbol>
    <symbol xmlns="http://www.w3.org/2000/svg" viewBox="0 0 24 24" id="type_celebrationevent">
        <circle fill="#d32f2f" cx="12" cy="12" r="12" />
        <g transform="translate(3.3,2.5)">
            <path fill="#fff" d="M14.53 1.45L13.45 2.53L15.05 4.13C15.27 4.38 15.38 4.67 15.38 5S15.27 5.64 15.05 5.86L11.5 9.47L12.5 10.55L16.13 6.94C16.66 6.35 16.92 5.7 16.92 5C16.92 4.3 16.66 3.64 16.13 3.05L14.53 1.45M10.55 3.47L9.47 4.55L10.08 5.11C10.3 5.33 10.41 5.63 10.41 6S10.3 6.67 10.08 6.89L9.47 7.45L10.55 8.53L11.11 7.92C11.64 7.33 11.91 6.69 11.91 6C11.91 5.28 11.64 4.63 11.11 4.03L10.55 3.47M21 5.06C20.31 5.06 19.67 5.33 19.08 5.86L13.45 11.5L14.53 12.5L20.11 6.94C20.36 6.69 20.66 6.56 21 6.56S21.64 6.69 21.89 6.94L22.5 7.55L23.53 6.47L22.97 5.86C22.38 5.33 21.72 5.06 21 5.06M7 8L2 22L16 17L7 8M19 11.06C18.3 11.06 17.66 11.33 17.06 11.86L15.47 13.45L16.55 14.53L18.14 12.94C18.39 12.69 18.67 12.56 19 12.56C19.33 12.56 19.63 12.69 19.88 12.94L21.5 14.53L22.55 13.5L20.95 11.86C20.36 11.33 19.7 11.06 19 11.06Z" transform="scale(0.75)" />
        </g>
    </symbol>
    <symbol xmlns="http://www.w3.org/2000/svg" viewBox="0 0 24 24" id="type_giga">
        <circle fill="#d32f2f" cx="12" cy="12" r="12" />
        <text text-anchor="middle" dominant-baseline="middle" font-family="Fira Sans" font-weight="bold" font-size="9" fill="#fff">
            <tspan x="12" y="12">giga</tspan>
        </text>
    </symbol>
    <symbol xmlns="http://www.w3.org/2000/svg" viewBox="0 0 24 24" id="type_giga2">
        <circle fill="#d32f2f" cx="12" cy="12" r="12" />
        <text text-anchor="middle" dominant-baseline="middle" font-family="Fira Sans" font-weight="bold" font-size="18" fill="#fff">
            <tspan x="11.6" y="13">G</tspan>
        </text>
    </symbol>
    <symbol xmlns="http://www.w3.org/2000/svg" viewBox="0 0 24 24" id="type_mega">
        <circle fill="#d32f2f" cx="12" cy="12" r="12" />
        <text text-anchor="middle" dominant-baseline="middle" font-family="Fira Sans" font-weight="bold" font-size="9" fill="#fff">
            <tspan x="12" y="12">mega</tspan>
        </text>
    </symbol>
    <symbol xmlns="http://www.w3.org/2000/svg" viewBox="0 0 24 24" id="type_mega2">
        <circle fill="#d32f2f" cx="12" cy="12" r="12" />
        <g transform="translate(3.5,2.5)">
            <path fill="#fff" d="M12,8H4A2,2 0 0,0 2,10V14A2,2 0 0,0 4,16H5V20A1,1 0 0,0 6,21H8A1,1 0 0,0 9,20V16H12L17,20V4L12,8M21.5,12C21.5,13.71 20.54,15.26 19,16V8C20.53,8.75 21.5,10.3 21.5,12Z" transform="scale(0.75)" />
        </g>
    </symbol>
    <symbol xmlns="http://www.w3.org/2000/svg" viewBox="0 0 24 24" id="type_mega3">
        <circle fill="#d32f2f" cx="12" cy="12" r="12" />
        <text text-anchor="middle" dominant-baseline="middle" font-family="Fira Sans" font-weight="bold" font-size="18" fill="#fff">
            <tspan x="11.6" y="13">M</tspan>
        </text>
    </symbol>
    <symbol xmlns="http://www.w3.org/2000/svg" viewBox="0 0 24 24" id="type_cito3">
        <circle fill="#d32f2f" cx="12" cy="12" r="12" />
        <g transform="translate(3.3,3.3)">
            <path fill="#fff" d="M9,3V4H4V6H5V19A2,2 0 0,0 7,21H17A2,2 0 0,0 19,19V6H20V4H15V3H9M9,8H11V17H9V8M13,8H15V17H13V8Z" transform="scale(0.75)" />
        </g>
    </symbol>
    <symbol xmlns="http://www.w3.org/2000/svg" viewBox="0 0 24 24" id="type_cito2">
        <circle fill="#303f9f" cx="12" cy="12" r="12" />
        <g transform="translate(-2.1,-2.1)">
            <path fill="#689F38" d="m13.736 2.1519c-5.4389-0.95903-10.626 2.6727-11.585 8.1116-0.95903 5.4389 2.6727 10.626 8.1116 11.585 5.4389 0.95903 10.626-2.6727 11.585-8.1116 0.95903-5.4389-2.6727-10.626-8.1116-11.585m-0.10729 0.61953c5.2681 1.0463 8.4916 6.3463 7.6845 10.857-0.77821 4.3492-5.5145 8.3728-10.543 7.6454 3.2121-1.0117 4.0907-2.4644 4.4744-4.64s-1.0691-4.2502-3.2446-4.6338c-2.1756-0.38361-3.6283-2.4582-3.2446-4.6338 0.38361-2.1756 2.6983-4.9783 4.8738-4.5947m-2.5843 14.645c9.9044-10.1 4.9522-5.0501 0 0z" transform="scale(1.2)" />
        </g>
    </symbol>
    <symbol xmlns="http://www.w3.org/2000/svg" viewBox="0 0 24 24" id="type_cito">
        <circle fill="#d32f2f" cx="12" cy="12" r="12" />
        <g transform="translate(3.3,21) scale(1,-1)">
            <path fill="#fff" d="m8.5798 2.6031c5.1898-1.8889 10.928 0.78695 12.817 5.9767 1.8889 5.1898-0.78695 10.928-5.9767 12.817-5.1898 1.8889-10.928-0.78695-12.817-5.9767-1.8889-5.1898 0.78695-10.928 5.9767-12.817m0.68404 1.8794c-4.1518 1.5111-6.2925 6.1019-4.7814 10.254 1.5111 4.1518 6.1019 6.2925 10.254 4.7814-2.0759 0.75557-4.3713-0.31478-5.1269-2.3907-0.75557-2.0759 0.31478-4.3713 2.3907-5.1269 2.0759-0.75557 3.1463-3.0509 2.3907-5.1269-0.75557-2.0759-3.0509-3.1463-5.1269-2.3907m4.6173 12.686c-11.508-8.2269-5.7539-4.1135 0 0z" transform="scale(0.75)" />
        </g>
    </symbol>
    <symbol xmlns="http://www.w3.org/2000/svg" viewBox="0 0 24 24" id="type_traditional">
        <circle fill="#388E3C" cx="12" cy="12" r="12" />
        <g transform="translate(3.8,3.6) scale(0.7)">
            <path d="m22.728 9.3045c-0.42044 2.0106-0.83827 4.0217-1.2562 6.0328l-13.273 6.5925c-0.37493 0.12498-0.64626 0.11052-0.88371-0.0707l-6.2037-7.1404 0.093493-6.1414z" fill="none" stroke="#fff" stroke-width="1.5" />
            <path d="m23.598 8.4876-0.3835 1.2639c-0.26933 0.2688-0.44314 0.37116-0.44314 0.37116l-14.139 6.4688c-0.64362 0.23745-0.97208-0.0707-0.97208-0.0707l-6.9813-6.9106c-0.18746-0.17497-0.15907-0.38883-0.15907-0.38883s-0.063329-0.4547-0.002326-1.8774z" fill="#fffffe" />
            <path d="m16.116 2.0639 7.4939 6.1153c0.21209 0.28279-0.08837 0.45953-0.08837 0.45953l-14.793 6.0092c-0.34705 0.16835-0.69625 0.050181-0.88371-0.10604l-7.1757-6.6102c-0.63627-0.72464 0.31814-1.0251 0.31814-1.0251l14.157-4.8781c0.56557-0.22976 0.97208 0.035349 0.97208 0.035349z" fill="#fffffe" />
            <path d="m7.9375 22.344 0.125-6.125" fill="none" stroke="#fff" stroke-width="1.5" />
        </g>
    </symbol>
    <symbol xmlns="http://www.w3.org/2000/svg" viewBox="0 0 24 24" id="type_cgeo">
        <circle fill="#f7991d" cx="12" cy="12" r="12" />
        <g transform="translate(3.8,3.6) scale(0.7)">
            
 <path d="m22.728 9.3045c-0.42044 2.0106-0.83827 4.0217-1.2562 6.0328l-13.273 6.5925c-0.37493 0.12498-0.64626 0.11052-0.88371-0.0707l-6.2037-7.1404 0.060481-5.8773 5.3486 3.7766z" fill="none" stroke="#fff" stroke-width="1.5"/>
 <path d="m23.598 8.4876-0.3835 1.2639c-0.26933 0.2688-0.44314 0.37116-0.44314 0.37116l-14.139 6.4688c-0.64362 0.23745-0.97208-0.0707-0.97208-0.0707l-6.9813-6.9106c-0.18746-0.17497 0.96335-1.3462 0.96335-1.3462s6.8363 6.775 6.8973 5.3523z" fill="#fffffe"/>
 <path d="m15.535 1.9375c-0.11764 0.007456-0.24923 0.034357-0.39062 0.091797l-14.158 4.877c1e-8 0-0.95268 0.30075-0.31641 1.0254l7.1758 6.6094c0.18746 0.15622 0.53576 0.27577 0.88281 0.10742l14.793-6.0098s0.29998-0.17619 0.087891-0.45898l-7.4922-6.1152h-0.001954c-0.003161-0.0020494-0.22961-0.14917-0.58008-0.12695zm1.2383 2.457c0.096674 0.0021312 0.19753 0.0097361 0.29883 0.023438 0.4052 0.054812 0.72763 0.1865 0.96875 0.39258l0.96875 0.82812c0.24121 0.20616 0.33106 0.42682 0.26758 0.66406-0.06349 0.23725-0.26063 0.42241-0.5918 0.55273l-0.025391 0.0097656c-0.33117 0.13032-0.69998 0.1687-1.1035 0.11523-0.40353-0.053463-0.72558-0.18447-0.9668-0.39062l-0.96875-0.82812c-0.24112-0.20607-0.33134-0.42742-0.26953-0.66602 0.061821-0.23859 0.25868-0.42436 0.58984-0.55469l0.025391-0.0097656c0.24838-0.09774 0.51662-0.14311 0.80664-0.13672zm-0.035157 0.46094c-0.11276 0.004437-0.21818 0.025802-0.31641 0.064453l-0.025391 0.0097656c-0.15703 0.061799-0.25064 0.15134-0.28125 0.26562-0.03061 0.11429 0.011419 0.22185 0.12891 0.32227l0.9707 0.82812c0.11438 0.097756 0.2684 0.15978 0.46289 0.18555 0.19449 0.025768 0.37031 0.0071055 0.52734-0.054688l0.025391-0.0097656c0.15716-0.061846 0.25075-0.14936 0.28125-0.26367 0.0305-0.11431-0.010624-0.2206-0.125-0.31836l-0.9707-0.83008c-0.11749-0.10041-0.27242-0.16174-0.4668-0.1875-0.072891-0.009659-0.14328-0.014379-0.21094-0.011719zm-3.1602 0.79688c0.096674 0.002131 0.19557 0.009736 0.29688 0.023437 0.4052 0.054812 0.72763 0.18651 0.96875 0.39258l0.48242 0.41211c0.06493 0.055493 0.090762 0.11403 0.076172 0.17578-0.0146 0.061757-0.06711 0.10945-0.15625 0.14453l-1.4453 0.56836c-0.02552 0.010046-0.031105 0.02193-0.015625 0.035156l0.23242 0.19922c0.11438 0.097756 0.26841 0.15978 0.46289 0.18555 0.19449 0.025768 0.37031 0.0071055 0.52734-0.054688l0.025391-0.0097656c0.22506-0.088563 0.3201-0.21711 0.28516-0.38477-0.02093-0.092121 0.031207-0.1625 0.1543-0.21094 0.08914-0.035077 0.18476-0.044204 0.28906-0.029297 0.1043 0.01491 0.18809 0.048654 0.25 0.10156 0.0402 0.034361 0.063865 0.070296 0.072265 0.10938 0.03736 0.15904 0.003531 0.31071-0.10352 0.45508-0.10706 0.14438-0.27141 0.26078-0.49219 0.34766l-0.02539 0.0097657c-0.33118 0.13032-0.69803 0.1687-1.1016 0.11523-0.40354-0.053463-0.72558-0.18251-0.9668-0.38867l-0.9707-0.83008c-0.24112-0.20607-0.33134-0.42742-0.26953-0.66602 0.06182-0.23859 0.25868-0.42436 0.58984-0.55469l0.02539-0.0097656c0.24838-0.09774 0.51857-0.14311 0.80859-0.13672zm-0.037109 0.46094c-0.11276 0.0044371-0.21818 0.025802-0.31641 0.064453l-0.02539 0.0097656c-0.15703 0.061799-0.25064 0.15134-0.28125 0.26562-0.03061 0.11429 0.01337 0.22185 0.13086 0.32227l0.23047 0.19727c0.01548 0.01323 0.03698 0.0159 0.0625 0.0058594l1.0957-0.43164c0.02539-0.00999 0.029142-0.021926 0.013672-0.035156l-0.23047-0.19922c-0.11749-0.10041-0.27437-0.16174-0.46875-0.1875-0.072891-0.009659-0.14328-0.014379-0.21094-0.011719zm-3.1465 0.80859c0.096665 0.0021236 0.19559 0.011699 0.29688 0.025391 0.40516 0.054772 0.72949 0.18447 0.9707 0.39062l1.8555 1.5859c0.24121 0.20616 0.3295 0.42744 0.26758 0.66602-0.061931 0.23858-0.25868 0.42436-0.58984 0.55469l-0.02539 0.009766c-0.22078 0.086886-0.4659 0.13176-0.73828 0.13476-0.27238 0.003001-0.53203-0.034118-0.77734-0.11133-0.059497-0.01899-0.10824-0.045718-0.14844-0.080078-0.06186-0.05291-0.085069-0.1113-0.068359-0.17383 0.01672-0.06253 0.067344-0.10913 0.15234-0.14258 0.12736-0.050117 0.26051-0.053124 0.40039-0.0078125 0.25144 0.082452 0.4915 0.078478 0.7207-0.011719l0.02539-0.0097657c0.15716-0.061844 0.25075-0.15132 0.28125-0.26562 0.0305-0.11431-0.010624-0.21865-0.125-0.31641l-0.12109-0.10352c-0.01548-0.013227-0.030032-0.013633-0.044922 0-0.10493 0.12234-0.25225 0.22167-0.44336 0.29688l-0.025391 0.0097657c-0.33117 0.13032-0.70038 0.16808-1.1055 0.11328-0.40509-0.054794-0.72754-0.18447-0.96875-0.39062l-0.94141-0.80469c-0.24121-0.20615-0.33139-0.42941-0.26953-0.66797 0.061864-0.23855 0.25868-0.42241 0.58984-0.55273l0.025391-0.0097656c0.24838-0.09774 0.51665-0.14504 0.80664-0.13867zm-0.035156 0.46094c-0.11278 0.004421-0.21818 0.025802-0.31641 0.064453l-0.025391 0.011719c-0.15703 0.061799-0.25264 0.14934-0.2832 0.26367-0.03057 0.11433 0.013369 0.22185 0.13086 0.32227l0.94141 0.80469c0.11438 0.097756 0.27035 0.15978 0.46484 0.18555 0.19449 0.02577 0.36836 0.0071055 0.52539-0.054687l0.027344-0.0097657c0.15716-0.061846 0.25075-0.14936 0.28125-0.26367 0.0305-0.1143-0.012577-0.2206-0.12695-0.31836l-0.94141-0.80469c-0.11749-0.10041-0.27237-0.16366-0.4668-0.18945-0.072908-0.009669-0.14327-0.014369-0.21094-0.011719zm-2.3867 1.0449c0.044059-0.0019611 0.09112-3.1e-5 0.13867 0.0058594 0.12681 0.015712 0.2274 0.056992 0.30469 0.12305 0.074177 0.063398 0.10215 0.13351 0.082031 0.20898-0.020118 0.075474-0.081625 0.13175-0.18359 0.17188-0.10184 0.040076-0.21727 0.052173-0.3457 0.035156-0.12843-0.017014-0.22856-0.057697-0.30273-0.12109-0.077284-0.066055-0.10572-0.13482-0.083984-0.20898 0.021743-0.074164 0.08371-0.1318 0.18555-0.17188 0.063731-0.025078 0.13165-0.039699 0.20508-0.042969zm-2.2832 0.30078c0.27093-0.00431 0.53008 0.032168 0.77539 0.10938 0.059498 0.018995 0.10823 0.045722 0.14844 0.080078 0.061813 0.052833 0.085093 0.11123 0.068359 0.17383-0.016735 0.062599-0.067478 0.11114-0.15234 0.14453-0.12309 0.04844-0.25466 0.049227-0.39453 0.0039063-0.25572-0.080766-0.49565-0.076839-0.7207 0.011719l-0.025391 0.0097657c-0.15703 0.061802-0.25064 0.15134-0.28125 0.26562-0.030613 0.11429 0.011415 0.2199 0.12891 0.32031l0.9707 0.83008c0.11438 0.09776 0.2684 0.15978 0.46289 0.18555 0.19449 0.02577 0.37031 0.007148 0.52734-0.054687l0.025391-0.009766c0.22505-0.08856 0.3193-0.21836 0.28125-0.38867-0.020936-0.09212 0.029255-0.1625 0.15234-0.21094 0.08914-0.03505 0.1866-0.04534 0.29297-0.03125 0.10637 0.014096 0.19279 0.047945 0.25781 0.10352 0.037086 0.031701 0.059779 0.068392 0.068359 0.10742 0.036196 0.16339-3.671e-4 0.31656-0.10742 0.46094-0.10706 0.14438-0.26946 0.26078-0.49023 0.34766l-0.025391 0.009766c-0.33117 0.13032-0.6998 0.16785-1.1055 0.11523-0.40567-0.052622-0.72949-0.18056-0.9707-0.38672l-0.96875-0.83008c-0.24112-0.20607-0.33153-0.42853-0.26758-0.66797 0.063955-0.23943 0.26258-0.42436 0.59375-0.55469l0.025391-0.0097657c0.2165-0.085196 0.45954-0.13045 0.73047-0.13477zm3.6211 0.8418c0.044425-0.00165 0.090536 0.0014225 0.13867 0.0078125 0.12836 0.017042 0.22856 0.057699 0.30273 0.12109 0.077285 0.066058 0.10562 0.1348 0.083984 0.20898-0.02163 0.074182-0.083581 0.13174-0.18555 0.17187-0.10184 0.04011-0.21683 0.052829-0.34375 0.03711-0.12692-0.015725-0.2274-0.056989-0.30469-0.12305-0.074171-0.063395-0.10222-0.13349-0.082031-0.20898 0.020184-0.075496 0.081755-0.1318 0.18359-0.17188 0.06373-0.025079 0.13299-0.040219 0.20703-0.042969z" color="#000000" fill="#fffffe" style="-inkscape-stroke:none"/>
 <path d="m7.9375 22.344 0.125-6.125" fill="none" stroke="#fff" stroke-width="1.5"/>
        </g>
    </symbol>
    <symbol xmlns="http://www.w3.org/2000/svg" viewBox="0 0 24 24" id="type_multi">
        <circle fill="#F57C00" cx="12" cy="12" r="12" />
        <g transform="translate(3,3)">
            <path fill="#fff" d="M18,15A3,3 0 0,1 21,18A3,3 0 0,1 18,21C16.69,21 15.58,20.17 15.17,19H14V17H15.17C15.58,15.83 16.69,15 18,15M18,17A1,1 0 0,0 17,18A1,1 0 0,0 18,19A1,1 0 0,0 19,18A1,1 0 0,0 18,17M18,8A1.43,1.43 0 0,0 19.43,6.57C19.43,5.78 18.79,5.14 18,5.14C17.21,5.14 16.57,5.78 16.57,6.57A1.43,1.43 0 0,0 18,8M18,2.57A4,4 0 0,1 22,6.57C22,9.56 18,14 18,14C18,14 14,9.56 14,6.57A4,4 0 0,1 18,2.57M8.83,17H10V19H8.83C8.42,20.17 7.31,21 6,21A3,3 0 0,1 3,18C3,16.69 3.83,15.58 5,15.17V14H7V15.17C7.85,15.47 8.53,16.15 8.83,17M6,17A1,1 0 0,0 5,18A1,1 0 0,0 6,19A1,1 0 0,0 7,18A1,1 0 0,0 6,17M6,3A3,3 0 0,1 9,6C9,7.31 8.17,8.42 7,8.83V10H5V8.83C3.83,8.42 3,7.31 3,6A3,3 0 0,1 6,3M6,5A1,1 0 0,0 5,6A1,1 0 0,0 6,7A1,1 0 0,0 7,6A1,1 0 0,0 6,5M11,19V17H13V19H11M7,13H5V11H7V13Z" transform="scale(0.75)" />
        </g>
    </symbol>
    <symbol xmlns="http://www.w3.org/2000/svg" viewBox="0 0 24 24" id="type_multi3">
        <circle fill="#F57C00" cx="12" cy="12" r="12" />
        <g transform="translate(3.84,3.84)">
            <path fill="#fff" d="M6.5,8.11C5.61,8.11 4.89,7.39 4.89,6.5A1.61,1.61 0 0,1 6.5,4.89C7.39,4.89 8.11,5.61 8.11,6.5V6.5A1.61,1.61 0 0,1 6.5,8.11M6.5,2C4,2 2,4 2,6.5C2,9.87 6.5,14.86 6.5,14.86C6.5,14.86 11,9.87 11,6.5C11,4 9,2 6.5,2M17.5,8.11A1.61,1.61 0 0,1 15.89,6.5C15.89,5.61 16.61,4.89 17.5,4.89C18.39,4.89 19.11,5.61 19.11,6.5A1.61,1.61 0 0,1 17.5,8.11M17.5,2C15,2 13,4 13,6.5C13,9.87 17.5,14.86 17.5,14.86C17.5,14.86 22,9.87 22,6.5C22,4 20,2 17.5,2M17.5,16C16.23,16 15.1,16.8 14.68,18H9.32C8.77,16.44 7.05,15.62 5.5,16.17C3.93,16.72 3.11,18.44 3.66,20C4.22,21.56 5.93,22.38 7.5,21.83C8.35,21.53 9,20.85 9.32,20H14.69C15.24,21.56 16.96,22.38 18.5,21.83C20.08,21.28 20.9,19.56 20.35,18C19.92,16.8 18.78,16 17.5,16V16M17.5,20.5A1.5,1.5 0 0,1 16,19A1.5,1.5 0 0,1 17.5,17.5A1.5,1.5 0 0,1 19,19A1.5,1.5 0 0,1 17.5,20.5Z" transform="scale(0.68)" />
        </g>
    </symbol>
    <symbol xmlns="http://www.w3.org/2000/svg" viewBox="0 0 24 24" id="type_multi2">
        <circle fill="#F57C00" cx="12" cy="12" r="12" />
        <g transform="translate(3.3,3.3)">
            <path fill="#fff" d="M2 3V9H4.95L6.95 15H6V21H12V16.41L17.41 11H22V5H16V9.57L10.59 15H9.06L7.06 9H8V3M4 5H6V7H4M18 7H20V9H18M8 17H10V19H8Z" transform="scale(0.75)" />
        </g>
    </symbol>
    <symbol xmlns="http://www.w3.org/2000/svg" viewBox="0 0 24 24" id="type_multi4">
        <circle fill="#F57C00" cx="12" cy="12" r="12" />
        <g transform="translate(3,2.3)">
            <path fill="#fff" d="M18,19C16.89,19 16,18.1 16,17C16,15.89 16.89,15 18,15A2,2 0 0,1 20,17A2,2 0 0,1 18,19M18,13A4,4 0 0,0 14,17A4,4 0 0,0 18,21A4,4 0 0,0 22,17A4,4 0 0,0 18,13M12,11.1A1.9,1.9 0 0,0 10.1,13A1.9,1.9 0 0,0 12,14.9A1.9,1.9 0 0,0 13.9,13A1.9,1.9 0 0,0 12,11.1M6,19C4.89,19 4,18.1 4,17C4,15.89 4.89,15 6,15A2,2 0 0,1 8,17A2,2 0 0,1 6,19M6,13A4,4 0 0,0 2,17A4,4 0 0,0 6,21A4,4 0 0,0 10,17A4,4 0 0,0 6,13M12,4A2,2 0 0,1 14,6A2,2 0 0,1 12,8C10.89,8 10,7.1 10,6C10,4.89 10.89,4 12,4M12,10A4,4 0 0,0 16,6A4,4 0 0,0 12,2A4,4 0 0,0 8,6A4,4 0 0,0 12,10Z" transform="scale(0.75)" />
        </g>
    </symbol>
    <symbol xmlns="http://www.w3.org/2000/svg" viewBox="0 0 24 24" id="type_multi5">
        <circle fill="#F57C00" cx="12" cy="12" r="12" />
        <g transform="translate(2.3,3)">
            <path fill="#fff" d="M19 3A3 3 0 0 0 16.61 4.21A11.5 11.5 0 0 0 13.75 4L13.88 6A9.47 9.47 0 0 1 16 6.13A3 3 0 1 0 19 3M19 7A1 1 0 1 1 20 6A1 1 0 0 1 19 7M8.86 7.86L7.67 6.25A11.5 11.5 0 0 1 11.6 4.37L12.1 6.31A9.5 9.5 0 0 0 8.86 7.86M21 18A3 3 0 1 1 15.69 16.11A9.47 9.47 0 0 0 8.59 13.46C8.37 13.47 8.16 13.5 7.94 13.54A3 3 0 1 1 4.39 10.06A11.54 11.54 0 0 1 6.04 7.7L7.5 9.06A9.34 9.34 0 0 0 6.5 10.41A3.04 3.04 0 0 1 7.62 11.56C7.91 11.5 8.19 11.5 8.5 11.46A11.47 11.47 0 0 1 17.46 15.05A2.96 2.96 0 0 1 18 15A3 3 0 0 1 21 18Z" transform="scale(0.75)" />
        </g>
    </symbol>
    <symbol xmlns="http://www.w3.org/2000/svg" viewBox="0 0 24 24" id="type_wherigo">
        <circle fill="#303f9f" cx="12" cy="12" r="12" />
        <g transform="translate(2.4,2.4)">
            <path fill="#fff" d="M22 12C22 6.46 17.54 2 12 2C10.83 2 9.7 2.19 8.62 2.56L9.32 4.5C10.17 4.16 11.06 3.97 12 3.97C16.41 3.97 20.03 7.59 20.03 12C20.03 16.41 16.41 20.03 12 20.03C7.59 20.03 3.97 16.41 3.97 12C3.97 11.06 4.16 10.12 4.5 9.28L2.56 8.62C2.19 9.7 2 10.83 2 12C2 17.54 6.46 22 12 22C17.54 22 22 17.54 22 12M5.47 3.97C6.32 3.97 7 4.68 7 5.47C7 6.32 6.32 7 5.47 7C4.68 7 3.97 6.32 3.97 5.47C3.97 4.68 4.68 3.97 5.47 3.97M18 12C18 8.67 15.33 6 12 6C8.67 6 6 8.67 6 12C6 15.33 8.67 18 12 18C15.33 18 18 15.33 18 12M15 12L10 15V9" transform="scale(0.8)" />
        </g>
    </symbol>
    <symbol xmlns="http://www.w3.org/2000/svg" viewBox="0 0 24 24" id="type_unknown2">
        <circle fill="#616161" cx="12" cy="12" r="12" />
        <g transform="translate(2.4,2.4)">
            <path fill="#fff" d="M10,19H13V22H10V19M12,2C17.35,2.22 19.68,7.62 16.5,11.67C15.67,12.67 14.33,13.33 13.67,14.17C13,15 13,16 13,17H10C10,15.33 10,13.92 10.67,12.92C11.33,11.92 12.67,11.33 13.5,10.67C15.92,8.43 15.32,5.26 12,5A3,3 0 0,0 9,8H6A6,6 0 0,1 12,2Z" transform="scale(0.8)" />
        </g>
    </symbol>
    <symbol xmlns="http://www.w3.org/2000/svg" viewBox="0 0 24 24" id="type_unknown">
        <circle fill="#616161" cx="12" cy="12" r="12" />
        <text text-anchor="middle" dominant-baseline="middle" font-family="Fira Sans" font-weight="bold" font-size="4" fill="#fff">
            <tspan x="12" y="12">⬤⬤⬤</tspan>
        </text>
    </symbol>
    <symbol xmlns="http://www.w3.org/2000/svg" viewBox="0 0 24 24" id="type_hq2">
        <circle fill="#689F38" cx="12" cy="12" r="12" />
        <g transform="translate(3,3)">
            <path fill="#fff" d="M14.5,13.5H16.5V10.5H14.5M18,14A1,1 0 0,1 17,15H16.25V16.5H14.75V15H14A1,1 0 0,1 13,14V10A1,1 0 0,1 14,9H17A1,1 0 0,1 18,10M11,15H9.5V13H7.5V15H6V9H7.5V11.5H9.5V9H11M19,4H5C3.89,4 3,4.89 3,6V18A2,2 0 0,0 5,20H19A2,2 0 0,0 21,18V6C21,4.89 20.1,4 19,4Z" transform="scale(0.75)" />
        </g>
    </symbol>
    <symbol xmlns="http://www.w3.org/2000/svg" viewBox="0 0 24 24" id="type_maze">
        <circle fill="#689F38" cx="12" cy="12" r="12" />
        <g transform="translate(4,3)">
            <path fill="#fff" d="M11.5,1L2,6V8H21V6M16,10V17H19V10M2,22H21V19H2M10,10V17H13V10M4,10V17H7V10H4Z" transform="scale(0.7)" />
        </g>
    </symbol>
    <symbol xmlns="http://www.w3.org/2000/svg" viewBox="0 0 24 24" id="type_hq">
        <circle fill="#689F38" cx="12" cy="12" r="12" />
        <text text-anchor="middle" dominant-baseline="middle" font-family="Fira Sans" font-weight="bold" font-size="11" fill="#fff">
            <tspan x="12" y="13">HQ</tspan>
        </text>
    </symbol>
    <symbol xmlns="http://www.w3.org/2000/svg" viewBox="0 0 24 24" id="type_ape">
        <circle fill="#689F38" cx="12" cy="12" r="12" />
        <text text-anchor="middle" dominant-baseline="middle" font-family="Fira Sans" font-weight="bold" font-size="9" fill="#fff">
            <tspan x="12" y="12">APE</tspan>
        </text>
    </symbol>
    <symbol xmlns="http://www.w3.org/2000/svg" viewBox="0 0 24 24" id="waypoint_flag">
        <g transform="translate(3,3)">
            <path fill="#C62828" d="M6,3A1,1 0 0,1 7,4V4.88C8.06,4.44 9.5,4 11,4C14,4 14,6 16,6C19,6 20,4 20,4V12C20,12 19,14 16,14C13,14 13,12 11,12C8,12 7,14 7,14V21H5V4A1,1 0 0,1 6,3Z" transform="scale(0.75)" />
        </g>
    </symbol>
    <symbol xmlns="http://www.w3.org/2000/svg" viewBox="0 0 24 24" id="waypoint_pkg">
        <circle fill="#01579B" cx="12" cy="12" r="12" />
        <g transform="translate(3.3,3)">
            <path fill="#fff" d="M13.2,11H10V7H13.2A2,2 0 0,1 15.2,9A2,2 0 0,1 13.2,11M13,3H6V21H10V15H13A6,6 0 0,0 19,9C19,5.68 16.31,3 13,3Z" transform="scale(0.75)" />
        </g>
    </symbol>
    <symbol xmlns="http://www.w3.org/2000/svg" viewBox="0 0 24 24" id="waypoint_pkg2">
        <g transform="translate(3.3,3)">
            <path fill="#01579B" d="M13.2,11H10V7H13.2A2,2 0 0,1 15.2,9A2,2 0 0,1 13.2,11M13,3H6V21H10V15H13A6,6 0 0,0 19,9C19,5.68 16.31,3 13,3Z" transform="scale(0.75)" />
        </g>
    </symbol>
    <symbol xmlns="http://www.w3.org/2000/svg" viewBox="0 0 24 24" id="waypoint_puzzle">
        <g transform="translate(3.9,3.3)">
            <path fill="#689f38" d="M20.5,11H19V7C19,5.89 18.1,5 17,5H13V3.5A2.5,2.5 0 0,0 10.5,1A2.5,2.5 0 0,0 8,3.5V5H4A2,2 0 0,0 2,7V10.8H3.5C5,10.8 6.2,12 6.2,13.5C6.2,15 5,16.2 3.5,16.2H2V20A2,2 0 0,0 4,22H7.8V20.5C7.8,19 9,17.8 10.5,17.8C12,17.8 13.2,19 13.2,20.5V22H17A2,2 0 0,0 19,20V16H20.5A2.5,2.5 0 0,0 23,13.5A2.5,2.5 0 0,0 20.5,11Z" transform="scale(0.7)" />
        </g>
    </symbol>
    <symbol xmlns="http://www.w3.org/2000/svg" viewBox="0 0 24 24" id="waypoint_stage">
        <g transform="translate(2.4,2.4)">
            <path fill="#6d4c41" d="M10.74,11.72C11.21,12.95 11.16,14.23 9.75,14.74C6.85,15.81 6.2,13 6.16,12.86L10.74,11.72M5.71,10.91L10.03,9.84C9.84,8.79 10.13,7.74 10.13,6.5C10.13,4.82 8.8,1.53 6.68,2.06C4.26,2.66 3.91,5.35 4,6.65C4.12,7.95 5.64,10.73 5.71,10.91M17.85,19.85C17.82,20 17.16,22.8 14.26,21.74C12.86,21.22 12.8,19.94 13.27,18.71L17.85,19.85M20,13.65C20.1,12.35 19.76,9.65 17.33,9.05C15.22,8.5 13.89,11.81 13.89,13.5C13.89,14.73 14.17,15.78 14,16.83L18.3,17.9C18.38,17.72 19.89,14.94 20,13.65Z" transform="scale(0.8)" />
        </g>
    </symbol>
    <symbol xmlns="http://www.w3.org/2000/svg" viewBox="0 0 24 24" id="waypoint_trailhead">
        <g transform="translate(3,3.3)">
            <path fill="#f57c00" d="M11,10H5L3,8L5,6H11V3L12,2L13,3V4H19L21,6L19,8H13V10H19L21,12L19,14H13V20A2,2 0 0,1 15,22H9A2,2 0 0,1 11,20V10Z" transform="scale(0.75)" />
        </g>
    </symbol>
    <symbol xmlns="http://www.w3.org/2000/svg" viewBox="0 0 24 24" id="waypoint_waypoint">
        <circle fill-opacity="0" stroke="#C62828" stroke-width="1.5" cx="12" cy="12" r="7.5" />
        <circle fill="#C62828" cx="12" cy="12" r="3" />
    </symbol>
    <symbol xmlns="http://www.w3.org/2000/svg" viewBox="0 0 24 24" id="type_overlay_archived">
        <line x1="10%" y1="90%" x2="90%" y2="10%" stroke="#b71c1c" stroke-width="3"/>
        <line x1="90%" y1="90%" x2="10%" y2="10%" stroke="#b71c1c" stroke-width="3"/>
    </symbol>
    <symbol xmlns="http://www.w3.org/2000/svg" viewBox="0 0 24 24" id="marker">
        <circle fill="#000" cx="12" cy="12" r="12" />
        <circle fill="#fff" cx="12" cy="12" r="11.5" />
    </symbol>
    <symbol xmlns="http://www.w3.org/2000/svg" viewBox="0 0 24 24" id="tick">
        <path fill="#43a047" d="M9,20.42L2.79,14.21L5.62,11.38L9,14.77L18.88,4.88L21.71,7.71L9,20.42Z" />
    </symbol>
    <symbol xmlns="http://www.w3.org/2000/svg" viewBox="0 0 24 24" id="compass_arrow_mini_black">
        <path fill="#212121" d="M12,2L4.5,20.29L5.21,21L12,18L18.79,21L19.5,20.29L12,2Z" />
    </symbol>
    <symbol xmlns="http://www.w3.org/2000/svg" viewBox="0 0 24 24" id="compass_arrow_mini_white">
        <path fill="#e0e0e0" d="M12,2L4.5,20.29L5.21,21L12,18L18.79,21L19.5,20.29L12,2Z" />
    </symbol>
    <!-- off-center intentional -->
    <symbol xmlns="http://www.w3.org/2000/svg" viewBox="0 0 24 24" id="type_locationless">
        <circle fill="#616161" cx="12" cy="12" r="12" />
        <g transform="translate(3.8,3.6)">
            <path fill="#fff" d="M16.37,16.1L11.75,11.47L11.64,11.36L3.27,3L2,4.27L5.18,7.45C5.06,7.95 5,8.46 5,9C5,14.25 12,22 12,22C12,22 13.67,20.15 15.37,17.65L18.73,21L20,19.72M12,6.5A2.5,2.5 0 0,1 14.5,9C14.5,9.73 14.17,10.39 13.67,10.85L17.3,14.5C18.28,12.62 19,10.68 19,9A7,7 0 0,0 12,2C10,2 8.24,2.82 6.96,4.14L10.15,7.33C10.61,6.82 11.26,6.5 12,6.5Z" transform="scale(0.7)" />
        </g>
    </symbol>
</svg>