<!--

colors:
700 for cache types
800 for markers / waypoints

-->
<svg width="0" height="0" class="hidden"
    xmlns="http://www.w3.org/2000/svg"
    xmlns:xlink="http://www.w3.org/1999/xlink">
    <symbol xmlns="http://www.w3.org/2000/svg" viewBox="0 0 24 24" id="marker_found">
        <circle fill="#5D4037" cx="12" cy="12" r="12" />
        <path fill="#FBC02D" d="M12,2C6.47,2 2,6.5 2,12A10,10 0 0,0 12,22A10,10 0 0,0 22,12A10,10 0 0,0 12,2M15.5,8A1.5,1.5 0 0,1 17,9.5A1.5,1.5 0 0,1 15.5,11A1.5,1.5 0 0,1 14,9.5A1.5,1.5 0 0,1 15.5,8M8.5,8A1.5,1.5 0 0,1 10,9.5A1.5,1.5 0 0,1 8.5,11A1.5,1.5 0 0,1 7,9.5A1.5,1.5 0 0,1 8.5,8M12,17.5C9.67,17.5 7.69,16.04 6.89,14H17.11C16.3,16.04 14.33,17.5 12,17.5Z" />
    </symbol>
    <symbol xmlns="http://www.w3.org/2000/svg" viewBox="0 0 24 24" id="marker_found_offline">
        <circle fill="#5D4037" cx="12" cy="12" r="12" />
        <path fill="#F57C00" d="M12,2C6.47,2 2,6.5 2,12A10,10 0 0,0 12,22A10,10 0 0,0 22,12A10,10 0 0,0 12,2M15.5,8A1.5,1.5 0 0,1 17,9.5A1.5,1.5 0 0,1 15.5,11A1.5,1.5 0 0,1 14,9.5A1.5,1.5 0 0,1 15.5,8M8.5,8A1.5,1.5 0 0,1 10,9.5A1.5,1.5 0 0,1 8.5,11A1.5,1.5 0 0,1 7,9.5A1.5,1.5 0 0,1 8.5,8M12,17.5C9.67,17.5 7.69,16.04 6.89,14H17.11C16.3,16.04 14.33,17.5 12,17.5Z" />
    </symbol>
    <symbol xmlns="http://www.w3.org/2000/svg" viewBox="0 0 24 24" id="marker_not_found_offline">
        <circle fill="#1A237E" cx="12" cy="12" r="12" />
        <path fill="#448AFF" d="m 12,2 c -5.5228475,10e-8 -9.9999999,4.4771525 -9.9999999,10 0,5.522847 4.4771524,10 9.9999999,10 5.522847,0 10,-4.477153 10,-10 C 22,6.4771525 17.522847,2 12,2 M 7.0000001,9.5 c 0,-0.8 0.7,-1.5 1.5,-1.5 C 9.3,8 10,8.7 10,9.5 10,10.3 9.3,11 8.5000001,11 c -0.8,0 -1.5,-0.7 -1.5,-1.5 M 6.89,17.5 C 7.8497124,15.16013 9.9475614,14.045447 12,14 c 1.75,0 4.130266,1.014652 5.11,3.5 M 15.5,11 C 14.7,11 14,10.3 14,9.5 14,8.7 14.7,8 15.5,8 16.3,8 17,8.7 17,9.5 17,10.3 16.3,11 15.5,11 Z" />
    </symbol>
    <symbol xmlns="http://www.w3.org/2000/svg" viewBox="0 0 24 24" id="marker_unknown_offline">
        <circle fill="#424242" cx="12" cy="12" r="12" />
        <path fill="#9E9E9E" d="M12,2A10,10 0 0,0 2,12A10,10 0 0,0 12,22A10,10 0 0,0 22,12A10,10 0 0,0 12,2M7,9.5C7,8.7 7.7,8 8.5,8C9.3,8 10,8.7 10,9.5C10,10.3 9.3,11 8.5,11C7.7,11 7,10.3 7,9.5M14.77,17.23C14.32,16.5 13.25,16 12,16C10.75,16 9.68,16.5 9.23,17.23L7.81,15.81C8.71,14.72 10.25,14 12,14C13.75,14 15.29,14.72 16.19,15.81L14.77,17.23M15.5,11C14.7,11 14,10.3 14,9.5C14,8.7 14.7,8 15.5,8C16.3,8 17,8.7 17,9.5C17,10.3 16.3,11 15.5,11Z" />
    </symbol>
    <symbol xmlns="http://www.w3.org/2000/svg" viewBox="0 0 24 24" id="marker_own">
        <circle fill="#fff" cx="12" cy="12" r="12" />
        <path fill="#FFAB00" d="M16.23,18L12,15.45L7.77,18L8.89,13.19L5.16,9.96L10.08,9.54L12,5L13.92,9.53L18.84,9.95L15.11,13.18L16.23,18M12,2C6.47,2 2,6.5 2,12A10,10 0 0,0 12,22A10,10 0 0,0 22,12A10,10 0 0,0 12,2Z" />
    </symbol>
    <symbol xmlns="http://www.w3.org/2000/svg" viewBox="0 0 24 24" id="marker_own2">
        <circle fill="#fff" cx="12" cy="12" r="12" />
        <circle fill="#FFAB00" cx="12" cy="12" r="10" />
        <g transform="translate(3,3)">
            <path fill="#fff" d="M12,17.27L18.18,21L16.54,13.97L22,9.24L14.81,8.62L12,2L9.19,8.62L2,9.24L7.45,13.97L5.82,21L12,17.27Z" transform="scale(0.75)" />
        </g>
    </symbol>
    <symbol xmlns="http://www.w3.org/2000/svg" viewBox="0 0 24 24" id="marker_personalnote">
        <circle fill="#fff" cx="12" cy="12" r="12" />
        <circle fill="#689F38" cx="12" cy="12" r="10" />
        <g transform="translate(4,3.5)">
            <path fill="#fff" d="M16.84,2.73C16.45,2.73 16.07,2.88 15.77,3.17L13.65,5.29L18.95,10.6L21.07,8.5C21.67,7.89 21.67,6.94 21.07,6.36L17.9,3.17C17.6,2.88 17.22,2.73 16.84,2.73M12.94,6L4.84,14.11L7.4,14.39L7.58,16.68L9.86,16.85L10.15,19.41L18.25,11.3M4.25,15.04L2.5,21.73L9.2,19.94L8.96,17.78L6.65,17.61L6.47,15.29" transform="scale(0.666666667)" />
        </g>
    </symbol>
    <symbol xmlns="http://www.w3.org/2000/svg" viewBox="0 0 24 24" id="marker_maintenance">
        <circle fill="#fff" cx="12" cy="12" r="12" />
        <circle fill="#C62828" cx="12" cy="12" r="10" />
        <path fill="#fff" d="M18 14H14V18H10V14H6V10H10V6H14V10H18" />
    </symbol>
    <symbol xmlns="http://www.w3.org/2000/svg" viewBox="0 0 24 24" id="marker_owner_maintenance">
        <circle fill="#fff" cx="12" cy="12" r="12" />
        <circle fill="#2E7D32" cx="12" cy="12" r="10" />
        <path fill="#fff" d="M18 14H14V18H10V14H6V10H10V6H14V10H18" />
    </symbol>
    <symbol xmlns="http://www.w3.org/2000/svg" viewBox="0 0 24 24" id="marker_archive">
        <circle fill="#fff" cx="12" cy="12" r="12" />
        <circle fill="#424242" cx="12" cy="12" r="10" />
        <g transform="translate(4.5,4.5)">
            <path fill="#fff" d="M10,2H14C17.31,2 19,4.69 19,8V18.66C16.88,17.63 15.07,17 12,17C8.93,17 7.12,17.63 5,18.66V8C5,4.69 6.69,2 10,2M8,8V9.5H16V8H8M9,12V13.5H15V12H9M3,22V21.31C5.66,19.62 13.23,15.84 21,21.25V22H3Z" transform="scale(0.625)" />
        </g>
    </symbol>
    <symbol xmlns="http://www.w3.org/2000/svg" viewBox="0 0 24 24" id="marker_usermodifiedcoords">
        <circle fill="#fff" cx="12" cy="12" r="12" />
        <circle fill="#0288D1" cx="12" cy="12" r="10" />
        <g transform="translate(4,3.5)">
            <path fill="#fff" d="M14.4,6H20V16H13L12.6,14H7V21H5V4H14L14.4,6M14,14H16V12H18V10H16V8H14V10L13,8V6H11V8H9V6H7V8H9V10H7V12H9V10H11V12H13V10L14,12V14M11,10V8H13V10H11M14,10H16V12H14V10Z" transform="scale(0.666666667)" />
        </g>
    </symbol>
    <symbol xmlns="http://www.w3.org/2000/svg" viewBox="0 0 24 24" id="marker_calendar">
        <circle fill="#fff" cx="12" cy="12" r="12" />
        <circle fill="#D32F2F" cx="12" cy="12" r="10" />
        <g transform="translate(4.5,4.5)">
            <path fill="#fff" d="M19,19H5V8H19M16,1V3H8V1H6V3H5C3.89,3 3,3.89 3,5V19A2,2 0 0,0 5,21H19A2,2 0 0,0 21,19V5C21,3.89 20.1,3 19,3H18V1M17,12H12V17H17V12Z" transform="scale(0.625)" />
        </g>
    </symbol>
    <!-- want to keep this small as most caches will have it -->
    <symbol xmlns="http://www.w3.org/2000/svg" viewBox="0 0 24 24" id="marker_stored">
        <g transform="translate(4,2)">
            <path fill="#3c3c3c" stroke-width="1" stroke="#fff" d="M15,9H5V5H15M12,19A3,3 0 0,1 9,16A3,3 0 0,1 12,13A3,3 0 0,1 15,16A3,3 0 0,1 12,19M17,3H5C3.89,3 3,3.9 3,5V19A2,2 0 0,0 5,21H19A2,2 0 0,0 21,19V7L17,3Z" transform="scale(0.75)" />
        </g>
    </symbol>
    <symbol xmlns="http://www.w3.org/2000/svg" viewBox="0 0 24 24" id="dot_advlab">
        <circle fill="#fff" cx="12" cy="12" r="12" />
        <circle fill="#90CAF9" cx="12" cy="12" r="10" />
    </symbol>
    <symbol xmlns="http://www.w3.org/2000/svg" viewBox="0 0 24 24" id="dot_advlab2">
        <circle fill="#fff" cx="12" cy="12" r="12" />
        <circle fill="#90CAF9" cx="12" cy="12" r="10" />
        <circle fill="#fff" cx="12" cy="9" r="2" />
        <g transform="translate(3.6,3.6)">
            <path fill="#e64a19" stroke-width="1" stroke="#212121" d="M12,11.5A2.5,2.5 0 0,1 9.5,9A2.5,2.5 0 0,1 12,6.5A2.5,2.5 0 0,1 14.5,9A2.5,2.5 0 0,1 12,11.5M12,2A7,7 0 0,0 5,9C5,14.25 12,22 12,22C12,22 19,14.25 19,9A7,7 0 0,0 12,2Z" transform="scale(0.7)" />
        </g>
    </symbol>
    <symbol xmlns="http://www.w3.org/2000/svg" viewBox="0 0 24 24" id="dot_black">
        <circle fill="#fff" cx="12" cy="12" r="12" />
        <circle fill="#212121" cx="12" cy="12" r="10" />
    </symbol>
    <symbol xmlns="http://www.w3.org/2000/svg" viewBox="0 0 24 24" id="dot_event">
        <circle fill="#fff" cx="12" cy="12" r="12" />
        <circle fill="#D32F2F" cx="12" cy="12" r="10" />
    </symbol>
    <symbol xmlns="http://www.w3.org/2000/svg" viewBox="0 0 24 24" id="dot_event2">
        <circle fill="#fff" cx="12" cy="12" r="12" />
        <circle fill="#D32F2F" cx="12" cy="12" r="10" />
        <g transform="translate(5,4.8)">
            <path fill="#fff" d="M12,3C17.5,3 22,6.58 22,11C22,15.42 17.5,19 12,19C10.76,19 9.57,18.82 8.47,18.5C5.55,21 2,21 2,21C4.33,18.67 4.7,17.1 4.75,16.5C3.05,15.07 2,13.13 2,11C2,6.58 6.5,3 12,3M17,12V10H15V12H17M13,12V10H11V12H13M9,12V10H7V12H9Z" transform="scale(0.6)" />
        </g>
    </symbol>
    <symbol xmlns="http://www.w3.org/2000/svg" viewBox="0 0 24 24" id="dot_multi">
        <circle fill="#fff" cx="12" cy="12" r="12" />
        <circle fill="#F57C00" cx="12" cy="12" r="10" />
    </symbol>
    <symbol xmlns="http://www.w3.org/2000/svg" viewBox="0 0 24 24" id="dot_multi2">
        <circle fill="#fff" cx="12" cy="12" r="12" />
        <circle fill="#F57C00" cx="12" cy="12" r="10" />
    </symbol>
    <symbol xmlns="http://www.w3.org/2000/svg" viewBox="0 0 24 24" id="dot_mystery">
        <circle fill="#fff" cx="12" cy="12" r="12" />
        <circle fill="#303F9F" cx="12" cy="12" r="10" />
    </symbol>
    <symbol xmlns="http://www.w3.org/2000/svg" viewBox="0 0 24 24" id="dot_mystery2">
        <circle fill="#fff" cx="12" cy="12" r="12" />
        <path fill="#303F9F" d="M15.07,11.25L14.17,12.17C13.45,12.89 13,13.5 13,15H11V14.5C11,13.39 11.45,12.39 12.17,11.67L13.41,10.41C13.78,10.05 14,9.55 14,9C14,7.89 13.1,7 12,7A2,2 0 0,0 10,9H8A4,4 0 0,1 12,5A4,4 0 0,1 16,9C16,9.88 15.64,10.67 15.07,11.25M13,19H11V17H13M12,2A10,10 0 0,0 2,12A10,10 0 0,0 12,22A10,10 0 0,0 22,12C22,6.47 17.5,2 12,2Z" />
    </symbol>
    <symbol xmlns="http://www.w3.org/2000/svg" viewBox="0 0 24 24" id="dot_traditional">
        <circle fill="#fff" cx="12" cy="12" r="12" />
        <circle fill="#388E3C" cx="12" cy="12" r="10" />
    </symbol>
    <symbol xmlns="http://www.w3.org/2000/svg" viewBox="0 0 24 24" id="dot_traditional2">
        <circle fill="#fff" cx="12" cy="12" r="12" />
        <circle fill="#388E3C" cx="12" cy="12" r="10" />
        <g transform="translate(5.4,5.2) scale(0.55)">
            <path d="m22.728 9.3045c-0.42044 2.0106-0.83827 4.0217-1.2562 6.0328l-13.273 6.5925c-0.37493 0.12498-0.64626 0.11052-0.88371-0.0707l-6.2037-7.1404 0.093493-6.1414z" fill="none" stroke="#fff" stroke-width="1.5" />
            <path d="m23.598 8.4876-0.3835 1.2639c-0.26933 0.2688-0.44314 0.37116-0.44314 0.37116l-14.139 6.4688c-0.64362 0.23745-0.97208-0.0707-0.97208-0.0707l-6.9813-6.9106c-0.18746-0.17497-0.15907-0.38883-0.15907-0.38883s-0.063329-0.4547-0.002326-1.8774z" fill="#fffffe" />
            <path d="m16.116 2.0639 7.4939 6.1153c0.21209 0.28279-0.08837 0.45953-0.08837 0.45953l-14.793 6.0092c-0.34705 0.16835-0.69625 0.050181-0.88371-0.10604l-7.1757-6.6102c-0.63627-0.72464 0.31814-1.0251 0.31814-1.0251l14.157-4.8781c0.56557-0.22976 0.97208 0.035349 0.97208 0.035349z" fill="#fffffe" />
            <path d="m7.9375 22.344 0.125-6.125" fill="none" stroke="#fff" stroke-width="1.5" />
        </g>
    </symbol>
    <symbol xmlns="http://www.w3.org/2000/svg" viewBox="0 0 24 24" id="dot_virtual">
        <circle fill="#fff" cx="12" cy="12" r="12" />
        <circle fill="#0288d1" cx="12" cy="12" r="10" />
    </symbol>
    <symbol xmlns="http://www.w3.org/2000/svg" viewBox="0 0 24 24" id="dot_waypoint_flag">
        <circle fill="#999" cx="12" cy="12" r="12" />
        <circle fill="#fff" cx="12" cy="12" r="10" />
        <g transform="translate(3,3)">
            <path fill="#C62828" d="M6,3A1,1 0 0,1 7,4V4.88C8.06,4.44 9.5,4 11,4C14,4 14,6 16,6C19,6 20,4 20,4V12C20,12 19,14 16,14C13,14 13,12 11,12C8,12 7,14 7,14V21H5V4A1,1 0 0,1 6,3Z" transform="scale(0.75)" />
        </g>
    </symbol>
    <symbol xmlns="http://www.w3.org/2000/svg" viewBox="0 0 24 24" id="dot_waypoint_pkg">
        <circle fill="#999" cx="12" cy="12" r="12" />
        <circle fill="#fff" cx="12" cy="12" r="10" />
        <g transform="translate(3.3,3)">
            <path fill="#01579B" d="M13.2,11H10V7H13.2A2,2 0 0,1 15.2,9A2,2 0 0,1 13.2,11M13,3H6V21H10V15H13A6,6 0 0,0 19,9C19,5.68 16.31,3 13,3Z" transform="scale(0.75)" />
        </g>
    </symbol>
    <symbol xmlns="http://www.w3.org/2000/svg" viewBox="0 0 24 24" id="dot_waypoint_reference">
        <circle fill="#999" cx="12" cy="12" r="12" />
        <circle fill="#fff" cx="12" cy="12" r="10" />
        <circle fill="#C62828" cx="12" cy="12" r="7" />
        <circle fill="#fff" cx="12" cy="12" r="5.5" />
        <circle fill="#C62828" cx="12" cy="12" r="2" />
    </symbol>
    <symbol xmlns="http://www.w3.org/2000/svg" viewBox="0 0 24 24" id="dot_waypoint">
        <circle fill="#999" cx="12" cy="12" r="12" />
        <circle fill="#fff" cx="12" cy="12" r="10" />
    </symbol>
    <symbol xmlns="http://www.w3.org/2000/svg" viewBox="0 0 24 24" id="dot_unknown">
        <circle fill="#fff" cx="12" cy="12" r="12" />
        <path fill="#616161" d="M15.07,11.25L14.17,12.17C13.45,12.89 13,13.5 13,15H11V14.5C11,13.39 11.45,12.39 12.17,11.67L13.41,10.41C13.78,10.05 14,9.55 14,9C14,7.89 13.1,7 12,7A2,2 0 0,0 10,9H8A4,4 0 0,1 12,5A4,4 0 0,1 16,9C16,9.88 15.64,10.67 15.07,11.25M13,19H11V17H13M12,2A10,10 0 0,0 2,12A10,10 0 0,0 12,22A10,10 0 0,0 22,12C22,6.47 17.5,2 12,2Z" />
    </symbol>
    <!-- scale down the smiley as it seems larger due to the dark border -->
    <symbol xmlns="http://www.w3.org/2000/svg" viewBox="0 0 24 24" id="dot_found">
        <g transform="translate(2,2) scale(0.8333333333333333)">
            <circle fill="#5D4037" cx="12" cy="12" r="12" />
            <path fill="#FBC02D" d="M12,2C6.47,2 2,6.5 2,12A10,10 0 0,0 12,22A10,10 0 0,0 22,12A10,10 0 0,0 12,2M15.5,8A1.5,1.5 0 0,1 17,9.5A1.5,1.5 0 0,1 15.5,11A1.5,1.5 0 0,1 14,9.5A1.5,1.5 0 0,1 15.5,8M8.5,8A1.5,1.5 0 0,1 10,9.5A1.5,1.5 0 0,1 8.5,11A1.5,1.5 0 0,1 7,9.5A1.5,1.5 0 0,1 8.5,8M12,17.5C9.67,17.5 7.69,16.04 6.89,14H17.11C16.3,16.04 14.33,17.5 12,17.5Z" />
        </g>
    </symbol>
    <symbol xmlns="http://www.w3.org/2000/svg" viewBox="0 0 24 24" id="dot_found2">
            <circle fill="#5D4037" cx="12" cy="12" r="12" />
            <path fill="#FBC02D" d="M12,2C6.47,2 2,6.5 2,12A10,10 0 0,0 12,22A10,10 0 0,0 22,12A10,10 0 0,0 12,2M15.5,8A1.5,1.5 0 0,1 17,9.5A1.5,1.5 0 0,1 15.5,11A1.5,1.5 0 0,1 14,9.5A1.5,1.5 0 0,1 15.5,8M8.5,8A1.5,1.5 0 0,1 10,9.5A1.5,1.5 0 0,1 8.5,11A1.5,1.5 0 0,1 7,9.5A1.5,1.5 0 0,1 8.5,8M12,17.5C9.67,17.5 7.69,16.04 6.89,14H17.11C16.3,16.04 14.33,17.5 12,17.5Z" />
    </symbol>
    <symbol xmlns="http://www.w3.org/2000/svg" viewBox="0 0 24 24" id="type_advlab">
        <circle fill="#90CAF9" cx="12" cy="12" r="12" />
        <circle fill="#fff" cx="12" cy="10" r="2" />
        <g transform="translate(2.4,2.4)">
            <path fill="#e64a19" stroke-width="1" stroke="#212121" d="M12,11.5A2.5,2.5 0 0,1 9.5,9A2.5,2.5 0 0,1 12,6.5A2.5,2.5 0 0,1 14.5,9A2.5,2.5 0 0,1 12,11.5M12,2A7,7 0 0,0 5,9C5,14.25 12,22 12,22C12,22 19,14.25 19,9A7,7 0 0,0 12,2Z" transform="scale(0.8)" />
        </g>
    </symbol>
    <symbol xmlns="http://www.w3.org/2000/svg" viewBox="0 0 24 24" id="type_earth">
        <circle fill="#0288d1" cx="12" cy="12" r="12" />
        <g transform="translate(2.4,2.4)">
            <path fill="#fff" d="M17.9,17.39C17.64,16.59 16.89,16 16,16H15V13A1,1 0 0,0 14,12H8V10H10A1,1 0 0,0 11,9V7H13A2,2 0 0,0 15,5V4.59C17.93,5.77 20,8.64 20,12C20,14.08 19.2,15.97 17.9,17.39M11,19.93C7.05,19.44 4,16.08 4,12C4,11.38 4.08,10.78 4.21,10.21L9,15V16A2,2 0 0,0 11,18M12,2A10,10 0 0,0 2,12A10,10 0 0,0 12,22A10,10 0 0,0 22,12A10,10 0 0,0 12,2Z" transform="scale(0.8)" />
        </g>
    </symbol>
    <symbol xmlns="http://www.w3.org/2000/svg" viewBox="0 0 24 24" id="type_mystery">
        <circle fill="#303f9f" cx="12" cy="12" r="12" />
        <g transform="translate(2.4,2.4)">
            <path fill="#fff" d="M10,19H13V22H10V19M12,2C17.35,2.22 19.68,7.62 16.5,11.67C15.67,12.67 14.33,13.33 13.67,14.17C13,15 13,16 13,17H10C10,15.33 10,13.92 10.67,12.92C11.33,11.92 12.67,11.33 13.5,10.67C15.92,8.43 15.32,5.26 12,5A3,3 0 0,0 9,8H6A6,6 0 0,1 12,2Z" transform="scale(0.8)" />
        </g>
    </symbol>
    <symbol xmlns="http://www.w3.org/2000/svg" viewBox="0 0 24 24" id="type_letterbox">
        <circle fill="#303f9f" cx="12" cy="12" r="12" />
        <g transform="translate(3.6,4)">
            <path fill="#fff" d="M20,8L12,13L4,8V6L12,11L20,6M20,4H4C2.89,4 2,4.89 2,6V18A2,2 0 0,0 4,20H20A2,2 0 0,0 22,18V6C22,4.89 21.1,4 20,4Z" transform="scale(0.7 0.65)" />
        </g>
    </symbol>
    <symbol xmlns="http://www.w3.org/2000/svg" viewBox="0 0 24 24" id="type_virtual">
        <circle fill="#0288d1" cx="12" cy="12" r="12" />
        <g transform="translate(3.6,3)">
            <path fill="#fff" d="M12,2A9,9 0 0,0 3,11V22L6,19L9,22L12,19L15,22L18,19L21,22V11A9,9 0 0,0 12,2M9,8A2,2 0 0,1 11,10A2,2 0 0,1 9,12A2,2 0 0,1 7,10A2,2 0 0,1 9,8M15,8A2,2 0 0,1 17,10A2,2 0 0,1 15,12A2,2 0 0,1 13,10A2,2 0 0,1 15,8Z" transform="scale(0.7)" />
        </g>
    </symbol>
    <symbol xmlns="http://www.w3.org/2000/svg" viewBox="0 0 24 24" id="type_webcam">
        <circle fill="#0288d1" cx="12" cy="12" r="12" />
        <g transform="translate(3,2.5)">
            <path fill="#fff" d="M12,2A7,7 0 0,1 19,9A7,7 0 0,1 12,16A7,7 0 0,1 5,9A7,7 0 0,1 12,2M12,4A5,5 0 0,0 7,9A5,5 0 0,0 12,14A5,5 0 0,0 17,9A5,5 0 0,0 12,4M12,6A3,3 0 0,1 15,9A3,3 0 0,1 12,12A3,3 0 0,1 9,9A3,3 0 0,1 12,6M6,22A2,2 0 0,1 4,20C4,19.62 4.1,19.27 4.29,18.97L6.11,15.81C7.69,17.17 9.75,18 12,18C14.25,18 16.31,17.17 17.89,15.81L19.71,18.97C19.9,19.27 20,19.62 20,20A2,2 0 0,1 18,22H6Z" transform="scale(0.75)" />
        </g>
    </symbol>
    <symbol xmlns="http://www.w3.org/2000/svg" viewBox="0 0 24 24" id="type_event">
        <circle fill="#d32f2f" cx="12" cy="12" r="12" />
        <g transform="translate(3.3,2.5)">
            <path fill="#fff" d="M12,3C17.5,3 22,6.58 22,11C22,15.42 17.5,19 12,19C10.76,19 9.57,18.82 8.47,18.5C5.55,21 2,21 2,21C4.33,18.67 4.7,17.1 4.75,16.5C3.05,15.07 2,13.13 2,11C2,6.58 6.5,3 12,3M17,12V10H15V12H17M13,12V10H11V12H13M9,12V10H7V12H9Z" transform="scale(0.75)" />
        </g>
    </symbol>
    <symbol xmlns="http://www.w3.org/2000/svg" viewBox="0 0 24 24" id="type_giga">
        <circle fill="#d32f2f" cx="12" cy="12" r="12" />
        <text text-anchor="middle" dominant-baseline="middle" font-family="Fira Sans" font-weight="bold" font-size="9" fill="#fff">
            <tspan x="12" y="12">giga</tspan>
        </text>
    </symbol>
    <symbol xmlns="http://www.w3.org/2000/svg" viewBox="0 0 24 24" id="type_giga2">
        <circle fill="#d32f2f" cx="12" cy="12" r="12" />
        <text text-anchor="middle" dominant-baseline="middle" font-family="Fira Sans" font-weight="bold" font-size="18" fill="#fff">
            <tspan x="11.6" y="13">G</tspan>
        </text>
    </symbol>
    <symbol xmlns="http://www.w3.org/2000/svg" viewBox="0 0 24 24" id="type_mega">
        <circle fill="#d32f2f" cx="12" cy="12" r="12" />
        <text text-anchor="middle" dominant-baseline="middle" font-family="Fira Sans" font-weight="bold" font-size="9" fill="#fff">
            <tspan x="12" y="12">mega</tspan>
        </text>
    </symbol>
    <symbol xmlns="http://www.w3.org/2000/svg" viewBox="0 0 24 24" id="type_mega2">
        <circle fill="#d32f2f" cx="12" cy="12" r="12" />
        <g transform="translate(3.5,2.5)">
            <path fill="#fff" d="M12,8H4A2,2 0 0,0 2,10V14A2,2 0 0,0 4,16H5V20A1,1 0 0,0 6,21H8A1,1 0 0,0 9,20V16H12L17,20V4L12,8M21.5,12C21.5,13.71 20.54,15.26 19,16V8C20.53,8.75 21.5,10.3 21.5,12Z" transform="scale(0.75)" />
        </g>
    </symbol>
    <symbol xmlns="http://www.w3.org/2000/svg" viewBox="0 0 24 24" id="type_mega3">
        <circle fill="#d32f2f" cx="12" cy="12" r="12" />
        <text text-anchor="middle" dominant-baseline="middle" font-family="Fira Sans" font-weight="bold" font-size="18" fill="#fff">
            <tspan x="11.6" y="13">M</tspan>
        </text>
    </symbol>
    <symbol xmlns="http://www.w3.org/2000/svg" viewBox="0 0 24 24" id="type_cito">
        <circle fill="#d32f2f" cx="12" cy="12" r="12" />
        <g transform="translate(3.3,3.3)">
            <path fill="#fff" d="M9,3V4H4V6H5V19A2,2 0 0,0 7,21H17A2,2 0 0,0 19,19V6H20V4H15V3H9M9,8H11V17H9V8M13,8H15V17H13V8Z" transform="scale(0.75)" />
        </g>
    </symbol>
    <symbol xmlns="http://www.w3.org/2000/svg" viewBox="0 0 24 24" id="type_traditional">
        <circle fill="#388E3C" cx="12" cy="12" r="12" />
        <g transform="translate(3.8,3.6) scale(0.7)">
            <path d="m22.728 9.3045c-0.42044 2.0106-0.83827 4.0217-1.2562 6.0328l-13.273 6.5925c-0.37493 0.12498-0.64626 0.11052-0.88371-0.0707l-6.2037-7.1404 0.093493-6.1414z" fill="none" stroke="#fff" stroke-width="1.5" />
            <path d="m23.598 8.4876-0.3835 1.2639c-0.26933 0.2688-0.44314 0.37116-0.44314 0.37116l-14.139 6.4688c-0.64362 0.23745-0.97208-0.0707-0.97208-0.0707l-6.9813-6.9106c-0.18746-0.17497-0.15907-0.38883-0.15907-0.38883s-0.063329-0.4547-0.002326-1.8774z" fill="#fffffe" />
            <path d="m16.116 2.0639 7.4939 6.1153c0.21209 0.28279-0.08837 0.45953-0.08837 0.45953l-14.793 6.0092c-0.34705 0.16835-0.69625 0.050181-0.88371-0.10604l-7.1757-6.6102c-0.63627-0.72464 0.31814-1.0251 0.31814-1.0251l14.157-4.8781c0.56557-0.22976 0.97208 0.035349 0.97208 0.035349z" fill="#fffffe" />
            <path d="m7.9375 22.344 0.125-6.125" fill="none" stroke="#fff" stroke-width="1.5" />
        </g>
    </symbol>
    <symbol xmlns="http://www.w3.org/2000/svg" viewBox="0 0 24 24" id="type_multi">
        <circle fill="#F57C00" cx="12" cy="12" r="12" />
        <g transform="translate(3.3,3.3)">
        </g>
    </symbol>
    <symbol xmlns="http://www.w3.org/2000/svg" viewBox="0 0 24 24" id="type_wherigo">
        <circle fill="#303f9f" cx="12" cy="12" r="12" />
        <g transform="translate(2.4,2.4)">
            <path fill="#fff" d="M22 12C22 6.46 17.54 2 12 2C10.83 2 9.7 2.19 8.62 2.56L9.32 4.5C10.17 4.16 11.06 3.97 12 3.97C16.41 3.97 20.03 7.59 20.03 12C20.03 16.41 16.41 20.03 12 20.03C7.59 20.03 3.97 16.41 3.97 12C3.97 11.06 4.16 10.12 4.5 9.28L2.56 8.62C2.19 9.7 2 10.83 2 12C2 17.54 6.46 22 12 22C17.54 22 22 17.54 22 12M5.47 3.97C6.32 3.97 7 4.68 7 5.47C7 6.32 6.32 7 5.47 7C4.68 7 3.97 6.32 3.97 5.47C3.97 4.68 4.68 3.97 5.47 3.97M18 12C18 8.67 15.33 6 12 6C8.67 6 6 8.67 6 12C6 15.33 8.67 18 12 18C15.33 18 18 15.33 18 12M15 12L10 15V9" transform="scale(0.8)" />
        </g>
    </symbol>
    <symbol xmlns="http://www.w3.org/2000/svg" viewBox="0 0 24 24" id="type_unknown">
        <circle fill="#616161" cx="12" cy="12" r="12" />
        <g transform="translate(2.4,2.4)">
            <path fill="#fff" d="M10,19H13V22H10V19M12,2C17.35,2.22 19.68,7.62 16.5,11.67C15.67,12.67 14.33,13.33 13.67,14.17C13,15 13,16 13,17H10C10,15.33 10,13.92 10.67,12.92C11.33,11.92 12.67,11.33 13.5,10.67C15.92,8.43 15.32,5.26 12,5A3,3 0 0,0 9,8H6A6,6 0 0,1 12,2Z" transform="scale(0.8)" />
        </g>
    </symbol>
    <symbol xmlns="http://www.w3.org/2000/svg" viewBox="0 0 24 24" id="type_hq">
        <circle fill="#689F38" cx="12" cy="12" r="12" />
        <g transform="translate(3,3)">
            <path fill="#fff" d="M14.5,13.5H16.5V10.5H14.5M18,14A1,1 0 0,1 17,15H16.25V16.5H14.75V15H14A1,1 0 0,1 13,14V10A1,1 0 0,1 14,9H17A1,1 0 0,1 18,10M11,15H9.5V13H7.5V15H6V9H7.5V11.5H9.5V9H11M19,4H5C3.89,4 3,4.89 3,6V18A2,2 0 0,0 5,20H19A2,2 0 0,0 21,18V6C21,4.89 20.1,4 19,4Z" transform="scale(0.75)" />
        </g>
    </symbol>
    <symbol xmlns="http://www.w3.org/2000/svg" viewBox="0 0 24 24" id="type_hq2">
        <circle fill="#689F38" cx="12" cy="12" r="12" />
        <text text-anchor="middle" dominant-baseline="middle" font-family="Fira Sans" font-weight="bold" font-size="11" fill="#fff">
            <tspan x="12" y="13">HQ</tspan>
        </text>
    </symbol>
    <symbol xmlns="http://www.w3.org/2000/svg" viewBox="0 0 24 24" id="type_ape">
        <circle fill="#689F38" cx="12" cy="12" r="12" />
        <text text-anchor="middle" dominant-baseline="middle" font-family="Fira Sans" font-weight="bold" font-size="9" fill="#fff">
            <tspan x="12" y="12">APE</tspan>
        </text>
    </symbol>
    <symbol xmlns="http://www.w3.org/2000/svg" viewBox="0 0 24 24" id="waypoint_flag">
        <g transform="translate(3,3)">
            <path fill="#C62828" d="M6,3A1,1 0 0,1 7,4V4.88C8.06,4.44 9.5,4 11,4C14,4 14,6 16,6C19,6 20,4 20,4V12C20,12 19,14 16,14C13,14 13,12 11,12C8,12 7,14 7,14V21H5V4A1,1 0 0,1 6,3Z" transform="scale(0.75)" />
        </g>
    </symbol>
    <symbol xmlns="http://www.w3.org/2000/svg" viewBox="0 0 24 24" id="waypoint_pkg">
        <circle fill="#01579B" cx="12" cy="12" r="12" />
        <g transform="translate(3.3,3)">
            <path fill="#fff" d="M13.2,11H10V7H13.2A2,2 0 0,1 15.2,9A2,2 0 0,1 13.2,11M13,3H6V21H10V15H13A6,6 0 0,0 19,9C19,5.68 16.31,3 13,3Z" transform="scale(0.75)" />
        </g>
    </symbol>
    <symbol xmlns="http://www.w3.org/2000/svg" viewBox="0 0 24 24" id="waypoint_pkg2">
        <g transform="translate(3.3,3)">
            <path fill="#01579B" d="M13.2,11H10V7H13.2A2,2 0 0,1 15.2,9A2,2 0 0,1 13.2,11M13,3H6V21H10V15H13A6,6 0 0,0 19,9C19,5.68 16.31,3 13,3Z" transform="scale(0.75)" />
        </g>
    </symbol>
    <symbol xmlns="http://www.w3.org/2000/svg" viewBox="0 0 24 24" id="waypoint_puzzle">
        <g transform="translate(3.9,3.3)">
            <path fill="#689f38" d="M20.5,11H19V7C19,5.89 18.1,5 17,5H13V3.5A2.5,2.5 0 0,0 10.5,1A2.5,2.5 0 0,0 8,3.5V5H4A2,2 0 0,0 2,7V10.8H3.5C5,10.8 6.2,12 6.2,13.5C6.2,15 5,16.2 3.5,16.2H2V20A2,2 0 0,0 4,22H7.8V20.5C7.8,19 9,17.8 10.5,17.8C12,17.8 13.2,19 13.2,20.5V22H17A2,2 0 0,0 19,20V16H20.5A2.5,2.5 0 0,0 23,13.5A2.5,2.5 0 0,0 20.5,11Z" transform="scale(0.7)" />
        </g>
    </symbol>
    <symbol xmlns="http://www.w3.org/2000/svg" viewBox="0 0 24 24" id="waypoint_stage">
        <g transform="translate(2.4,2.4)">
            <path fill="#5d4037" d="M10.74,11.72C11.21,12.95 11.16,14.23 9.75,14.74C6.85,15.81 6.2,13 6.16,12.86L10.74,11.72M5.71,10.91L10.03,9.84C9.84,8.79 10.13,7.74 10.13,6.5C10.13,4.82 8.8,1.53 6.68,2.06C4.26,2.66 3.91,5.35 4,6.65C4.12,7.95 5.64,10.73 5.71,10.91M17.85,19.85C17.82,20 17.16,22.8 14.26,21.74C12.86,21.22 12.8,19.94 13.27,18.71L17.85,19.85M20,13.65C20.1,12.35 19.76,9.65 17.33,9.05C15.22,8.5 13.89,11.81 13.89,13.5C13.89,14.73 14.17,15.78 14,16.83L18.3,17.9C18.38,17.72 19.89,14.94 20,13.65Z" transform="scale(0.8)" />
        </g>
    </symbol>
    <symbol xmlns="http://www.w3.org/2000/svg" viewBox="0 0 24 24" id="waypoint_trailhead">
        <g transform="translate(3,3.3)">
            <path fill="#f57c00" d="M11,10H5L3,8L5,6H11V3L12,2L13,3V4H19L21,6L19,8H13V10H19L21,12L19,14H13V20A2,2 0 0,1 15,22H9A2,2 0 0,1 11,20V10Z" transform="scale(0.75)" />
        </g>
    </symbol>
    <symbol xmlns="http://www.w3.org/2000/svg" viewBox="0 0 24 24" id="waypoint_waypoint">
        <circle fill="#C62828" cx="12" cy="12" r="9" />
        <circle fill="#fff" cx="12" cy="12" r="7.5" />
        <circle fill="#C62828" cx="12" cy="12" r="3" />
    </symbol>
    <symbol xmlns="http://www.w3.org/2000/svg" viewBox="0 0 24 24" id="type_overlay_archived">
        <line x1="10%" y1="90%" x2="90%" y2="10%" stroke="#b71c1c" stroke-width="3"/>
        <line x1="90%" y1="90%" x2="10%" y2="10%" stroke="#b71c1c" stroke-width="3"/>
    </symbol>
    <symbol xmlns="http://www.w3.org/2000/svg" viewBox="0 0 24 24" id="marker">
        <circle fill="#000" cx="12" cy="12" r="12" />
        <circle fill="#fff" cx="12" cy="12" r="11.5" />
    </symbol>
</svg>