<!--

colors:
700 for cache types
800 for markers / waypoints

-->
<svg width="0" height="0" class="hidden"
    xmlns="http://www.w3.org/2000/svg"
    xmlns:xlink="http://www.w3.org/1999/xlink">
    <symbol xmlns="http://www.w3.org/2000/svg" viewBox="0 0 24 24" id="type_advlab_disabled">
        <circle fill="#90a4ae" cx="12" cy="12" r="12" />
        <g transform="translate(8.7,-1)">
            <g transform="rotate(30)">
                <path fill="#fff" d="M19 15C19 18.87 15.87 22 12 22C8.13 22 5 18.87 5 15C5 12.21 6.64 9.8 9 8.67V5C9 4.45 9.45 4 10 4H10.5L9.5 2H14.5L13.5 4H14C14.55 4 15 4.45 15 5V8.67C17.36 9.8 19 12.21 19 15M11 6V10.1C8.72 10.56 7 12.58 7 15L7.08 15.91L9 13.93L13.07 18L16.93 14.14C16.58 12.12 15 10.5 13 10.1V6H11M13.07 12C13.62 12 14.07 12.45 14.07 13C14.07 13.55 13.62 14 13.07 14C12.5 14 12.07 13.55 12.07 13C12.07 12.45 12.5 12 13.07 12Z" transform="scale(0.8)" />
            </g>
        </g>
    </symbol>
    <symbol xmlns="http://www.w3.org/2000/svg" viewBox="0 0 24 24" id="type_earth_disabled">
        <circle fill="#90a4ae" cx="12" cy="12" r="12" />
        <g transform="translate(1.8,1.8)">
            <path fill="#fff" d="M17.9,17.39C17.64,16.59 16.89,16 16,16H15V13A1,1 0 0,0 14,12H8V10H10A1,1 0 0,0 11,9V7H13A2,2 0 0,0 15,5V4.59C17.93,5.77 20,8.64 20,12C20,14.08 19.2,15.97 17.9,17.39M11,19.93C7.05,19.44 4,16.08 4,12C4,11.38 4.08,10.78 4.21,10.21L9,15V16A2,2 0 0,0 11,18M12,2A10,10 0 0,0 2,12A10,10 0 0,0 12,22A10,10 0 0,0 22,12A10,10 0 0,0 12,2Z" transform="scale(0.85)" />
        </g>
    </symbol>
    <symbol xmlns="http://www.w3.org/2000/svg" viewBox="0 0 24 24" id="type_mystery_disabled">
        <circle fill="#90a4ae" cx="12" cy="12" r="12" />
        <g dominant-baseline="middle" fill="#fff" aria-label="?">
            <path d="m12.648 4.221c-2.266 0-3.894 0.88-5.148 2.354l2.222 1.716c0.792-0.902 1.672-1.342 2.574-1.342 0.968 0 1.54 0.462 1.54 1.254 0 1.804-3.498 1.54-3.498 5.346v0.682h3.168v-0.55c0-2.464 3.96-2.222 3.96-5.786 0-1.958-1.606-3.674-4.818-3.674zm-0.682 12.012c-1.1 0-1.98 0.902-1.98 1.98 0 1.1 0.88 2.002 1.98 2.002s1.98-0.902 1.98-2.002c0-1.078-0.88-1.98-1.98-1.98z"/>
        </g>
        <!-- 
        <text text-anchor="middle" dominant-baseline="middle" font-family="Fira Sans" font-weight="bold" font-size="22" fill="#fff">
            <tspan x="12" y="14">?</tspan>
        </text> -->
    </symbol>
    <symbol xmlns="http://www.w3.org/2000/svg" viewBox="0 0 24 24" id="type_letterbox_disabled">
        <circle fill="#90a4ae" cx="12" cy="12" r="12" />
        <g transform="translate(3.6,4)">
            <path fill="#fff" d="M20,8L12,13L4,8V6L12,11L20,6M20,4H4C2.89,4 2,4.89 2,6V18A2,2 0 0,0 4,20H20A2,2 0 0,0 22,18V6C22,4.89 21.1,4 20,4Z" transform="scale(0.7 0.65)" />
        </g>
    </symbol>
    <symbol xmlns="http://www.w3.org/2000/svg" viewBox="0 0 24 24" id="type_virtual_disabled">
        <circle fill="#90a4ae" cx="12" cy="12" r="12" />
        <g transform="translate(3.6,3)">
            <path fill="#fff" d="M12,2A9,9 0 0,0 3,11V22L6,19L9,22L12,19L15,22L18,19L21,22V11A9,9 0 0,0 12,2M9,8A2,2 0 0,1 11,10A2,2 0 0,1 9,12A2,2 0 0,1 7,10A2,2 0 0,1 9,8M15,8A2,2 0 0,1 17,10A2,2 0 0,1 15,12A2,2 0 0,1 13,10A2,2 0 0,1 15,8Z" transform="scale(0.7)" />
        </g>
    </symbol>
    <symbol xmlns="http://www.w3.org/2000/svg" viewBox="0 0 24 24" id="type_webcam_disabled">
        <circle fill="#90a4ae" cx="12" cy="12" r="12" />
        <g transform="translate(3,2.5)">
            <path fill="#fff" d="M12,2A7,7 0 0,1 19,9A7,7 0 0,1 12,16A7,7 0 0,1 5,9A7,7 0 0,1 12,2M12,4A5,5 0 0,0 7,9A5,5 0 0,0 12,14A5,5 0 0,0 17,9A5,5 0 0,0 12,4M12,6A3,3 0 0,1 15,9A3,3 0 0,1 12,12A3,3 0 0,1 9,9A3,3 0 0,1 12,6M6,22A2,2 0 0,1 4,20C4,19.62 4.1,19.27 4.29,18.97L6.11,15.81C7.69,17.17 9.75,18 12,18C14.25,18 16.31,17.17 17.89,15.81L19.71,18.97C19.9,19.27 20,19.62 20,20A2,2 0 0,1 18,22H6Z" transform="scale(0.75)" />
        </g>
    </symbol>
    <symbol xmlns="http://www.w3.org/2000/svg" viewBox="0 0 24 24" id="type_event_disabled">
        <circle fill="#90a4ae" cx="12" cy="12" r="12" />
        <g transform="translate(3.3,2.5)">
            <path fill="#fff" d="M12,3C17.5,3 22,6.58 22,11C22,15.42 17.5,19 12,19C10.76,19 9.57,18.82 8.47,18.5C5.55,21 2,21 2,21C4.33,18.67 4.7,17.1 4.75,16.5C3.05,15.07 2,13.13 2,11C2,6.58 6.5,3 12,3M17,12V10H15V12H17M13,12V10H11V12H13M9,12V10H7V12H9Z" transform="scale(0.75)" />
        </g>
    </symbol>
    <symbol xmlns="http://www.w3.org/2000/svg" viewBox="0 0 24 24" id="type_specialevent_disabled">
        <circle fill="#90a4ae" cx="12" cy="12" r="12" />
        <g transform="translate(3.3,2.5)">
            <path fill="#fff" d="M14.53 1.45L13.45 2.53L15.05 4.13C15.27 4.38 15.38 4.67 15.38 5S15.27 5.64 15.05 5.86L11.5 9.47L12.5 10.55L16.13 6.94C16.66 6.35 16.92 5.7 16.92 5C16.92 4.3 16.66 3.64 16.13 3.05L14.53 1.45M10.55 3.47L9.47 4.55L10.08 5.11C10.3 5.33 10.41 5.63 10.41 6S10.3 6.67 10.08 6.89L9.47 7.45L10.55 8.53L11.11 7.92C11.64 7.33 11.91 6.69 11.91 6C11.91 5.28 11.64 4.63 11.11 4.03L10.55 3.47M21 5.06C20.31 5.06 19.67 5.33 19.08 5.86L13.45 11.5L14.53 12.5L20.11 6.94C20.36 6.69 20.66 6.56 21 6.56S21.64 6.69 21.89 6.94L22.5 7.55L23.53 6.47L22.97 5.86C22.38 5.33 21.72 5.06 21 5.06M7 8L2 22L16 17L7 8M19 11.06C18.3 11.06 17.66 11.33 17.06 11.86L15.47 13.45L16.55 14.53L18.14 12.94C18.39 12.69 18.67 12.56 19 12.56C19.33 12.56 19.63 12.69 19.88 12.94L21.5 14.53L22.55 13.5L20.95 11.86C20.36 11.33 19.7 11.06 19 11.06Z" transform="scale(0.75)" />
        </g>
    </symbol>
    <symbol xmlns="http://www.w3.org/2000/svg" viewBox="0 0 24 24" id="type_giga_disabled">
        <circle fill="#90a4ae" cx="12" cy="12" r="12" />
        <g dominant-baseline="middle" fill="#fff" aria-label="giga">
            <path d="m7.932 8.8365c-0.576 0.342-1.188 0.648-2.25 0.621-1.251 0-2.097 0.666-2.097 1.746 0 0.621 0.243 1.044 0.855 1.368-0.342 0.216-0.567 0.567-0.567 0.918 0 0.513 0.423 0.945 1.467 0.945h0.693c0.477 0 0.684 0.189 0.684 0.468 0 0.306-0.198 0.54-1.035 0.54-0.864 0-1.044-0.18-1.044-0.594h-1.278c0 0.945 0.477 1.539 2.286 1.539 1.638 0 2.502-0.603 2.502-1.584 0-0.801-0.711-1.386-1.827-1.386h-0.72c-0.459 0-0.522-0.144-0.522-0.288 0-0.108 0.054-0.216 0.153-0.27 0.171 0.036 0.351 0.054 0.549 0.054 1.242 0 2.007-0.675 2.007-1.602 0-0.621-0.297-0.972-0.9-1.233 0.603 0 1.044-0.054 1.377-0.189zm-2.214 1.557c0.477 0 0.72 0.243 0.72 0.774 0 0.549-0.252 0.828-0.72 0.828-0.432 0-0.72-0.288-0.72-0.81 0-0.495 0.279-0.792 0.72-0.792z" />
            <path d="m9.525 7.0905c-0.495 0-0.837 0.351-0.837 0.81s0.342 0.81 0.837 0.81c0.495 0 0.846-0.351 0.846-0.81s-0.351-0.81-0.846-0.81zm0.72 2.52h-1.422v4.779h1.422z" />
            <path d="m15.429 8.8365c-0.576 0.342-1.188 0.648-2.25 0.621-1.251 0-2.097 0.666-2.097 1.746 0 0.621 0.243 1.044 0.855 1.368-0.342 0.216-0.567 0.567-0.567 0.918 0 0.513 0.423 0.945 1.467 0.945h0.693c0.477 0 0.684 0.189 0.684 0.468 0 0.306-0.198 0.54-1.035 0.54-0.864 0-1.044-0.18-1.044-0.594h-1.278c0 0.945 0.477 1.539 2.286 1.539 1.638 0 2.502-0.603 2.502-1.584 0-0.801-0.711-1.386-1.827-1.386h-0.72c-0.459 0-0.522-0.144-0.522-0.288 0-0.108 0.054-0.216 0.153-0.27 0.171 0.036 0.351 0.054 0.549 0.054 1.242 0 2.007-0.675 2.007-1.602 0-0.621-0.297-0.972-0.9-1.233 0.603 0 1.044-0.054 1.377-0.189zm-2.214 1.557c0.477 0 0.72 0.243 0.72 0.774 0 0.549-0.252 0.828-0.72 0.828-0.432 0-0.72-0.288-0.72-0.81 0-0.495 0.279-0.792 0.72-0.792z" />
            <path d="m20.118 13.004v-1.854c0-1.107-0.594-1.692-1.98-1.692-0.54 0-1.197 0.126-1.8 0.351l0.324 0.936c0.477-0.162 0.945-0.252 1.251-0.252 0.585 0 0.81 0.171 0.81 0.738v0.207h-0.486c-1.449 0-2.241 0.567-2.241 1.611 0 0.873 0.603 1.494 1.557 1.494 0.567 0 1.098-0.189 1.44-0.711 0.225 0.468 0.594 0.639 1.152 0.684l0.297-0.927c-0.225-0.081-0.324-0.216-0.324-0.585zm-2.151 0.522c-0.351 0-0.558-0.225-0.558-0.603 0-0.477 0.315-0.702 0.963-0.702h0.351v0.855c-0.171 0.279-0.432 0.45-0.756 0.45z" />
        </g>
        <!-- 
        <text text-anchor="middle" dominant-baseline="middle" font-family="Fira Sans" font-weight="bold" font-size="9" fill="#fff">
            <tspan x="12" y="12">giga</tspan>
        </text> -->
    </symbol>
    <symbol xmlns="http://www.w3.org/2000/svg" viewBox="0 0 24 24" id="type_mega_disabled">
        <circle fill="#90a4ae" cx="12" cy="12" r="12" />
        <g dominant-baseline="middle" fill="#fff" aria-label="mega">
            <path d="m6.6 9.4575c-0.612 0-1.053 0.261-1.431 0.756-0.189-0.486-0.594-0.756-1.125-0.756-0.585 0-1.017 0.243-1.386 0.711l-0.099-0.558h-1.242v4.779h1.422v-3.267c0.207-0.396 0.432-0.621 0.729-0.621 0.216 0 0.405 0.135 0.405 0.639v3.249h1.422v-3.267c0.207-0.396 0.423-0.621 0.729-0.621 0.216 0 0.405 0.135 0.405 0.639v3.249h1.422v-3.492c0-0.909-0.513-1.44-1.251-1.44z" />
            <path d="m13.089 11.906c0-1.548-0.837-2.448-2.205-2.448-1.449 0-2.232 1.134-2.232 2.565 0 1.494 0.81 2.52 2.403 2.52 0.774 0 1.386-0.288 1.863-0.666l-0.585-0.792c-0.414 0.288-0.756 0.423-1.143 0.423-0.585 0-0.99-0.234-1.08-1.089h2.952c0.018-0.144 0.027-0.36 0.027-0.513zm-1.395-0.342h-1.593c0.072-0.864 0.342-1.161 0.819-1.161 0.567 0 0.765 0.45 0.774 1.098z" />
            <path d="m17.976 8.8365c-0.576 0.342-1.188 0.648-2.25 0.621-1.251 0-2.097 0.666-2.097 1.746 0 0.621 0.243 1.044 0.855 1.368-0.342 0.216-0.567 0.567-0.567 0.918 0 0.513 0.423 0.945 1.467 0.945h0.693c0.477 0 0.684 0.189 0.684 0.468 0 0.306-0.198 0.54-1.035 0.54-0.864 0-1.044-0.18-1.044-0.594h-1.278c0 0.945 0.477 1.539 2.286 1.539 1.638 0 2.502-0.603 2.502-1.584 0-0.801-0.711-1.386-1.827-1.386h-0.72c-0.459 0-0.522-0.144-0.522-0.288 0-0.108 0.054-0.216 0.153-0.27 0.171 0.036 0.351 0.054 0.549 0.054 1.242 0 2.007-0.675 2.007-1.602 0-0.621-0.297-0.972-0.9-1.233 0.603 0 1.044-0.054 1.377-0.189zm-2.214 1.557c0.477 0 0.72 0.243 0.72 0.774 0 0.549-0.252 0.828-0.72 0.828-0.432 0-0.72-0.288-0.72-0.81 0-0.495 0.279-0.792 0.72-0.792z" />
            <path d="m22.665 13.004v-1.854c0-1.107-0.594-1.692-1.98-1.692-0.54 0-1.197 0.126-1.8 0.351l0.324 0.936c0.477-0.162 0.945-0.252 1.251-0.252 0.585 0 0.81 0.171 0.81 0.738v0.207h-0.486c-1.449 0-2.241 0.567-2.241 1.611 0 0.873 0.603 1.494 1.557 1.494 0.567 0 1.098-0.189 1.44-0.711 0.225 0.468 0.594 0.639 1.152 0.684l0.297-0.927c-0.225-0.081-0.324-0.216-0.324-0.585zm-2.151 0.522c-0.351 0-0.558-0.225-0.558-0.603 0-0.477 0.315-0.702 0.963-0.702h0.351v0.855c-0.171 0.279-0.432 0.45-0.756 0.45z" />
            <!-- 
        <text text-anchor="middle" dominant-baseline="middle" font-family="Fira Sans" font-weight="bold" font-size="9" fill="#fff">
            <tspan x="12" y="12">mega</tspan>
        </text>-->
        </g>
    </symbol>
    <symbol xmlns="http://www.w3.org/2000/svg" viewBox="0 0 24 24" id="type_cito_disabled">
        <circle fill="#90a4ae" cx="12" cy="12" r="12" />
        <g transform="translate(1.8,22.2) scale(1,-1)">
            <path fill="#fff" d="m8.5798 2.6031c5.1898-1.8889 10.928 0.78695 12.817 5.9767 1.8889 5.1898-0.78695 10.928-5.9767 12.817-5.1898 1.8889-10.928-0.78695-12.817-5.9767-1.8889-5.1898 0.78695-10.928 5.9767-12.817m0.68404 1.8794c-4.1518 1.5111-6.2925 6.1019-4.7814 10.254 1.5111 4.1518 6.1019 6.2925 10.254 4.7814-2.0759 0.75557-4.3713-0.31478-5.1269-2.3907-0.75557-2.0759 0.31478-4.3713 2.3907-5.1269 2.0759-0.75557 3.1463-3.0509 2.3907-5.1269-0.75557-2.0759-3.0509-3.1463-5.1269-2.3907m4.6173 12.686c-11.508-8.2269-5.7539-4.1135 0 0z" transform="scale(0.85)" />
        </g>
    </symbol>
    <symbol xmlns="http://www.w3.org/2000/svg" viewBox="0 0 24 24" id="type_traditional_disabled">
        <circle fill="#90a4ae" cx="12" cy="12" r="12" />
        <g transform="translate(4.2,3.8) scale(0.68)">
            <path d="m22.728 9.3045c-0.42044 2.0106-0.83827 4.0217-1.2562 6.0328l-13.273 6.5925c-0.37493 0.12498-0.64626 0.11052-0.88371-0.0707l-6.2037-7.1404 0.093493-6.1414z" fill="none" stroke="#fff" stroke-width="1.5" />
            <path d="m23.598 8.4876-0.3835 1.2639c-0.26933 0.2688-0.44314 0.37116-0.44314 0.37116l-14.139 6.4688c-0.64362 0.23745-0.97208-0.0707-0.97208-0.0707l-6.9813-6.9106c-0.18746-0.17497-0.15907-0.38883-0.15907-0.38883s-0.063329-0.4547-0.002326-1.8774z" fill="#fffffe" />
            <path d="m16.116 2.0639 7.4939 6.1153c0.21209 0.28279-0.08837 0.45953-0.08837 0.45953l-14.793 6.0092c-0.34705 0.16835-0.69625 0.050181-0.88371-0.10604l-7.1757-6.6102c-0.63627-0.72464 0.31814-1.0251 0.31814-1.0251l14.157-4.8781c0.56557-0.22976 0.97208 0.035349 0.97208 0.035349z" fill="#fffffe" />
            <path d="m7.9375 22.344 0.125-6.125" fill="none" stroke="#fff" stroke-width="1.5" />
        </g>
    </symbol>
    <symbol xmlns="http://www.w3.org/2000/svg" viewBox="0 0 24 24" id="type_cgeo_disabled">
        <circle fill="#90a4ae" cx="12" cy="12" r="12" />
        <g transform="translate(3.8,3.6) scale(0.7)">

            <path d="m22.728 9.3045c-0.42044 2.0106-0.83827 4.0217-1.2562 6.0328l-13.273 6.5925c-0.37493 0.12498-0.64626 0.11052-0.88371-0.0707l-6.2037-7.1404 0.060481-5.8773 5.3486 3.7766z" fill="none" stroke="#fff" stroke-width="1.5" />
            <path d="m23.598 8.4876-0.3835 1.2639c-0.26933 0.2688-0.44314 0.37116-0.44314 0.37116l-14.139 6.4688c-0.64362 0.23745-0.97208-0.0707-0.97208-0.0707l-6.9813-6.9106c-0.18746-0.17497 0.96335-1.3462 0.96335-1.3462s6.8363 6.775 6.8973 5.3523z" fill="#fffffe" />
            <path d="m15.535 1.9375c-0.11764 0.007456-0.24923 0.034357-0.39062 0.091797l-14.158 4.877c1e-8 0-0.95268 0.30075-0.31641 1.0254l7.1758 6.6094c0.18746 0.15622 0.53576 0.27577 0.88281 0.10742l14.793-6.0098s0.29998-0.17619 0.087891-0.45898l-7.4922-6.1152h-0.001954c-0.003161-0.0020494-0.22961-0.14917-0.58008-0.12695zm1.2383 2.457c0.096674 0.0021312 0.19753 0.0097361 0.29883 0.023438 0.4052 0.054812 0.72763 0.1865 0.96875 0.39258l0.96875 0.82812c0.24121 0.20616 0.33106 0.42682 0.26758 0.66406-0.06349 0.23725-0.26063 0.42241-0.5918 0.55273l-0.025391 0.0097656c-0.33117 0.13032-0.69998 0.1687-1.1035 0.11523-0.40353-0.053463-0.72558-0.18447-0.9668-0.39062l-0.96875-0.82812c-0.24112-0.20607-0.33134-0.42742-0.26953-0.66602 0.061821-0.23859 0.25868-0.42436 0.58984-0.55469l0.025391-0.0097656c0.24838-0.09774 0.51662-0.14311 0.80664-0.13672zm-0.035157 0.46094c-0.11276 0.004437-0.21818 0.025802-0.31641 0.064453l-0.025391 0.0097656c-0.15703 0.061799-0.25064 0.15134-0.28125 0.26562-0.03061 0.11429 0.011419 0.22185 0.12891 0.32227l0.9707 0.82812c0.11438 0.097756 0.2684 0.15978 0.46289 0.18555 0.19449 0.025768 0.37031 0.0071055 0.52734-0.054688l0.025391-0.0097656c0.15716-0.061846 0.25075-0.14936 0.28125-0.26367 0.0305-0.11431-0.010624-0.2206-0.125-0.31836l-0.9707-0.83008c-0.11749-0.10041-0.27242-0.16174-0.4668-0.1875-0.072891-0.009659-0.14328-0.014379-0.21094-0.011719zm-3.1602 0.79688c0.096674 0.002131 0.19557 0.009736 0.29688 0.023437 0.4052 0.054812 0.72763 0.18651 0.96875 0.39258l0.48242 0.41211c0.06493 0.055493 0.090762 0.11403 0.076172 0.17578-0.0146 0.061757-0.06711 0.10945-0.15625 0.14453l-1.4453 0.56836c-0.02552 0.010046-0.031105 0.02193-0.015625 0.035156l0.23242 0.19922c0.11438 0.097756 0.26841 0.15978 0.46289 0.18555 0.19449 0.025768 0.37031 0.0071055 0.52734-0.054688l0.025391-0.0097656c0.22506-0.088563 0.3201-0.21711 0.28516-0.38477-0.02093-0.092121 0.031207-0.1625 0.1543-0.21094 0.08914-0.035077 0.18476-0.044204 0.28906-0.029297 0.1043 0.01491 0.18809 0.048654 0.25 0.10156 0.0402 0.034361 0.063865 0.070296 0.072265 0.10938 0.03736 0.15904 0.003531 0.31071-0.10352 0.45508-0.10706 0.14438-0.27141 0.26078-0.49219 0.34766l-0.02539 0.0097657c-0.33118 0.13032-0.69803 0.1687-1.1016 0.11523-0.40354-0.053463-0.72558-0.18251-0.9668-0.38867l-0.9707-0.83008c-0.24112-0.20607-0.33134-0.42742-0.26953-0.66602 0.06182-0.23859 0.25868-0.42436 0.58984-0.55469l0.02539-0.0097656c0.24838-0.09774 0.51857-0.14311 0.80859-0.13672zm-0.037109 0.46094c-0.11276 0.0044371-0.21818 0.025802-0.31641 0.064453l-0.02539 0.0097656c-0.15703 0.061799-0.25064 0.15134-0.28125 0.26562-0.03061 0.11429 0.01337 0.22185 0.13086 0.32227l0.23047 0.19727c0.01548 0.01323 0.03698 0.0159 0.0625 0.0058594l1.0957-0.43164c0.02539-0.00999 0.029142-0.021926 0.013672-0.035156l-0.23047-0.19922c-0.11749-0.10041-0.27437-0.16174-0.46875-0.1875-0.072891-0.009659-0.14328-0.014379-0.21094-0.011719zm-3.1465 0.80859c0.096665 0.0021236 0.19559 0.011699 0.29688 0.025391 0.40516 0.054772 0.72949 0.18447 0.9707 0.39062l1.8555 1.5859c0.24121 0.20616 0.3295 0.42744 0.26758 0.66602-0.061931 0.23858-0.25868 0.42436-0.58984 0.55469l-0.02539 0.009766c-0.22078 0.086886-0.4659 0.13176-0.73828 0.13476-0.27238 0.003001-0.53203-0.034118-0.77734-0.11133-0.059497-0.01899-0.10824-0.045718-0.14844-0.080078-0.06186-0.05291-0.085069-0.1113-0.068359-0.17383 0.01672-0.06253 0.067344-0.10913 0.15234-0.14258 0.12736-0.050117 0.26051-0.053124 0.40039-0.0078125 0.25144 0.082452 0.4915 0.078478 0.7207-0.011719l0.02539-0.0097657c0.15716-0.061844 0.25075-0.15132 0.28125-0.26562 0.0305-0.11431-0.010624-0.21865-0.125-0.31641l-0.12109-0.10352c-0.01548-0.013227-0.030032-0.013633-0.044922 0-0.10493 0.12234-0.25225 0.22167-0.44336 0.29688l-0.025391 0.0097657c-0.33117 0.13032-0.70038 0.16808-1.1055 0.11328-0.40509-0.054794-0.72754-0.18447-0.96875-0.39062l-0.94141-0.80469c-0.24121-0.20615-0.33139-0.42941-0.26953-0.66797 0.061864-0.23855 0.25868-0.42241 0.58984-0.55273l0.025391-0.0097656c0.24838-0.09774 0.51665-0.14504 0.80664-0.13867zm-0.035156 0.46094c-0.11278 0.004421-0.21818 0.025802-0.31641 0.064453l-0.025391 0.011719c-0.15703 0.061799-0.25264 0.14934-0.2832 0.26367-0.03057 0.11433 0.013369 0.22185 0.13086 0.32227l0.94141 0.80469c0.11438 0.097756 0.27035 0.15978 0.46484 0.18555 0.19449 0.02577 0.36836 0.0071055 0.52539-0.054687l0.027344-0.0097657c0.15716-0.061846 0.25075-0.14936 0.28125-0.26367 0.0305-0.1143-0.012577-0.2206-0.12695-0.31836l-0.94141-0.80469c-0.11749-0.10041-0.27237-0.16366-0.4668-0.18945-0.072908-0.009669-0.14327-0.014369-0.21094-0.011719zm-2.3867 1.0449c0.044059-0.0019611 0.09112-3.1e-5 0.13867 0.0058594 0.12681 0.015712 0.2274 0.056992 0.30469 0.12305 0.074177 0.063398 0.10215 0.13351 0.082031 0.20898-0.020118 0.075474-0.081625 0.13175-0.18359 0.17188-0.10184 0.040076-0.21727 0.052173-0.3457 0.035156-0.12843-0.017014-0.22856-0.057697-0.30273-0.12109-0.077284-0.066055-0.10572-0.13482-0.083984-0.20898 0.021743-0.074164 0.08371-0.1318 0.18555-0.17188 0.063731-0.025078 0.13165-0.039699 0.20508-0.042969zm-2.2832 0.30078c0.27093-0.00431 0.53008 0.032168 0.77539 0.10938 0.059498 0.018995 0.10823 0.045722 0.14844 0.080078 0.061813 0.052833 0.085093 0.11123 0.068359 0.17383-0.016735 0.062599-0.067478 0.11114-0.15234 0.14453-0.12309 0.04844-0.25466 0.049227-0.39453 0.0039063-0.25572-0.080766-0.49565-0.076839-0.7207 0.011719l-0.025391 0.0097657c-0.15703 0.061802-0.25064 0.15134-0.28125 0.26562-0.030613 0.11429 0.011415 0.2199 0.12891 0.32031l0.9707 0.83008c0.11438 0.09776 0.2684 0.15978 0.46289 0.18555 0.19449 0.02577 0.37031 0.007148 0.52734-0.054687l0.025391-0.009766c0.22505-0.08856 0.3193-0.21836 0.28125-0.38867-0.020936-0.09212 0.029255-0.1625 0.15234-0.21094 0.08914-0.03505 0.1866-0.04534 0.29297-0.03125 0.10637 0.014096 0.19279 0.047945 0.25781 0.10352 0.037086 0.031701 0.059779 0.068392 0.068359 0.10742 0.036196 0.16339-3.671e-4 0.31656-0.10742 0.46094-0.10706 0.14438-0.26946 0.26078-0.49023 0.34766l-0.025391 0.009766c-0.33117 0.13032-0.6998 0.16785-1.1055 0.11523-0.40567-0.052622-0.72949-0.18056-0.9707-0.38672l-0.96875-0.83008c-0.24112-0.20607-0.33153-0.42853-0.26758-0.66797 0.063955-0.23943 0.26258-0.42436 0.59375-0.55469l0.025391-0.0097657c0.2165-0.085196 0.45954-0.13045 0.73047-0.13477zm3.6211 0.8418c0.044425-0.00165 0.090536 0.0014225 0.13867 0.0078125 0.12836 0.017042 0.22856 0.057699 0.30273 0.12109 0.077285 0.066058 0.10562 0.1348 0.083984 0.20898-0.02163 0.074182-0.083581 0.13174-0.18555 0.17187-0.10184 0.04011-0.21683 0.052829-0.34375 0.03711-0.12692-0.015725-0.2274-0.056989-0.30469-0.12305-0.074171-0.063395-0.10222-0.13349-0.082031-0.20898 0.020184-0.075496 0.081755-0.1318 0.18359-0.17188 0.06373-0.025079 0.13299-0.040219 0.20703-0.042969z" color="#90a4ae" fill="#fffffe" style="-inkscape-stroke:none" />
            <path d="m7.9375 22.344 0.125-6.125" fill="none" stroke="#fff" stroke-width="1.5" />
        </g>
    </symbol>
    <symbol xmlns="http://www.w3.org/2000/svg" viewBox="0 0 24 24" id="type_multi_disabled">
        <circle fill="#90a4ae" cx="12" cy="12" r="12" />
        <g transform="translate(3,3)">
            <path fill="#fff" d="M18,15A3,3 0 0,1 21,18A3,3 0 0,1 18,21C16.69,21 15.58,20.17 15.17,19H14V17H15.17C15.58,15.83 16.69,15 18,15M18,17A1,1 0 0,0 17,18A1,1 0 0,0 18,19A1,1 0 0,0 19,18A1,1 0 0,0 18,17M18,8A1.43,1.43 0 0,0 19.43,6.57C19.43,5.78 18.79,5.14 18,5.14C17.21,5.14 16.57,5.78 16.57,6.57A1.43,1.43 0 0,0 18,8M18,2.57A4,4 0 0,1 22,6.57C22,9.56 18,14 18,14C18,14 14,9.56 14,6.57A4,4 0 0,1 18,2.57M8.83,17H10V19H8.83C8.42,20.17 7.31,21 6,21A3,3 0 0,1 3,18C3,16.69 3.83,15.58 5,15.17V14H7V15.17C7.85,15.47 8.53,16.15 8.83,17M6,17A1,1 0 0,0 5,18A1,1 0 0,0 6,19A1,1 0 0,0 7,18A1,1 0 0,0 6,17M6,3A3,3 0 0,1 9,6C9,7.31 8.17,8.42 7,8.83V10H5V8.83C3.83,8.42 3,7.31 3,6A3,3 0 0,1 6,3M6,5A1,1 0 0,0 5,6A1,1 0 0,0 6,7A1,1 0 0,0 7,6A1,1 0 0,0 6,5M11,19V17H13V19H11M7,13H5V11H7V13Z" transform="scale(0.75)" />
        </g>
    </symbol>
    <symbol xmlns="http://www.w3.org/2000/svg" viewBox="0 0 24 24" id="type_wherigo_disabled">
        <circle fill="#90a4ae" cx="12" cy="12" r="12" />
        <g transform="translate(-1.5,12)">
            <path fill="#fff" d="M10,16.5V7.5L16,12M12,2A10,10 0 0,0 2,12A10,10 0 0,0 12,22A10,10 0 0,0 22,12A10,10 0 0,0 12,2Z" transform="scale(0.8) rotate(-45)" />
        </g>
    </symbol>
    <symbol xmlns="http://www.w3.org/2000/svg" viewBox="0 0 24 24" id="type_unknown_disabled">
        <circle fill="#90a4ae" cx="12" cy="12" r="12" />
        <g dominant-baseline="middle" fill="#fff" aria-label="⬤ ⬤ ⬤">
            <path d="m5.5657 13.801q-1.0098-0.58203-1.0098-1.7461 0-1.1641 1.0098-1.7461 0.50586-0.29297 1.0098-0.29297 0.50391 0 1.0098 0.29297 1.0098 0.58203 1.0098 1.7461 0 1.1641-1.0098 1.7461-0.50586 0.29297-1.0098 0.29297-0.50391 0-1.0098-0.29297z" />
            <path d="m10.99 13.801q-1.0098-0.58203-1.0098-1.7461 0-1.1641 1.0098-1.7461 0.50586-0.29297 1.0098-0.29297t1.0098 0.29297q1.0098 0.58203 1.0098 1.7461 0 1.1641-1.0098 1.7461-0.50586 0.29297-1.0098 0.29297t-1.0098-0.29297z" />
            <path d="m16.415 13.801q-1.0098-0.58203-1.0098-1.7461 0-1.1641 1.0098-1.7461 0.50586-0.29297 1.0098-0.29297 0.50391 0 1.0098 0.29297 1.0098 0.58203 1.0098 1.7461 0 1.1641-1.0098 1.7461-0.50586 0.29297-1.0098 0.29297-0.50391 0-1.0098-0.29297z" />
        </g>
        <!-- 
        <circle fill="#90a4ae" cx="12" cy="12" r="12" />
        <text text-anchor="middle" dominant-baseline="middle" font-family="Fira Sans" font-weight="bold" font-size="4" fill="#fff">
            <tspan x="12" y="12">⬤ ⬤ ⬤</tspan>
        </text> -->
    </symbol>
    <symbol xmlns="http://www.w3.org/2000/svg" viewBox="0 0 24 24" id="type_maze_disabled">
        <circle fill="#90a4ae" cx="12" cy="12" r="12" />
        <g transform="translate(4,3)">
            <path fill="#fff" d="M11.5,1L2,6V8H21V6M16,10V17H19V10M2,22H21V19H2M10,10V17H13V10M4,10V17H7V10H4Z" transform="scale(0.7)" />
        </g>
    </symbol>
    <symbol xmlns="http://www.w3.org/2000/svg" viewBox="0 0 24 24" id="type_hq_disabled">
        <circle fill="#90a4ae" cx="12" cy="12" r="12" />
 <g transform="translate(.3)" dominant-baseline="middle" fill="#fff" aria-label="HQ">
  <path d="m8.658 16.077h1.968v-8.316h-1.968v3.216h-2.496v-3.216h-1.968v8.316h1.968v-3.564h2.496z"/>
  <path d="m17.346 15.537c1.02-0.564 1.956-1.608 1.956-3.624 0-2.772-1.404-4.356-3.756-4.356-2.34 0-3.744 1.644-3.744 4.356 0 2.772 1.404 4.332 3.624 4.332 1.56 0 2.424 0.732 3.192 1.596l1.188-1.548c-0.672-0.48-1.38-0.756-2.46-0.756zm-3.48-3.624c0-2.1 0.576-2.916 1.68-2.916 1.116 0 1.692 0.816 1.692 2.916 0 2.112-0.564 2.928-1.692 2.928-1.08 0-1.68-0.816-1.68-2.928z"/>
 </g>
 <!-- 
 <text x="-0.4500078" y="-0.10899974" dominant-baseline="middle" fill="#ffffff" font-family="'Fira Sans'" font-size="12px" font-weight="bold" text-anchor="middle" style="font-variant-caps:normal;font-variant-east-asian:normal;font-variant-ligatures:normal;font-variant-numeric:normal"><tspan x="11.549992" y="12.891" font-family="'Fira Sans'" font-size="12px" font-weight="bold" style="font-variant-caps:normal;font-variant-east-asian:normal;font-variant-ligatures:normal;font-variant-numeric:normal">HQ</tspan></text> -->
    </symbol>
    <symbol xmlns="http://www.w3.org/2000/svg" viewBox="0 0 24 24" id="type_ape_disabled">
        <circle fill="#90a4ae" cx="12" cy="12" r="12" />
 <g transform="translate(-.1)" dominant-baseline="middle" fill="#fff" aria-label="APE">
  <path d="m7.696 15.696h1.856l-2.2293-7.392h-2.1227l-2.2293 7.392h1.8133l0.37333-1.5893h2.1653zm-2.24-2.8587 0.77867-3.264 0.77867 3.264z"/>
  <path d="m12.485 8.304h-2.3893v7.392h1.7493v-2.464h0.8c1.7067 0 2.9227-0.8 2.9227-2.5173 0-1.6213-1.1733-2.4107-3.0827-2.4107zm0.010667 3.6693h-0.65067v-2.4213h0.61867c0.864 0 1.3013 0.37333 1.3013 1.1627 0 0.928-0.48 1.2587-1.2693 1.2587z"/>
  <path d="m21.029 8.304h-4.5333v7.392h4.5333v-1.2587h-2.784v-1.888h2.272v-1.2267h-2.272v-1.7707h2.6027z"/>
 </g>
 <!--<text x="0.26132917" y="0.86400294" dominant-baseline="middle" fill="#ffffff" font-family="'Fira Sans'" font-size="10.667px" font-weight="bold" text-anchor="middle" style="font-variant-caps:normal;font-variant-east-asian:normal;font-variant-ligatures:normal;font-variant-numeric:normal"><tspan x="12.261329" y="12.864003" font-family="'Fira Sans'" font-size="10.667px" font-weight="bold" style="font-variant-caps:normal;font-variant-east-asian:normal;font-variant-ligatures:normal;font-variant-numeric:normal">APE</tspan></text>-->
    </symbol>
    <!-- off-center intentional -->
    <symbol xmlns="http://www.w3.org/2000/svg" viewBox="0 0 24 24" id="type_locationless_disabled">
        <circle fill="#90a4ae" cx="12" cy="12" r="12" />
        <g transform="translate(3.8,3.6)">
            <path fill="#fff" d="M16.37,16.1L11.75,11.47L11.64,11.36L3.27,3L2,4.27L5.18,7.45C5.06,7.95 5,8.46 5,9C5,14.25 12,22 12,22C12,22 13.67,20.15 15.37,17.65L18.73,21L20,19.72M12,6.5A2.5,2.5 0 0,1 14.5,9C14.5,9.73 14.17,10.39 13.67,10.85L17.3,14.5C18.28,12.62 19,10.68 19,9A7,7 0 0,0 12,2C10,2 8.24,2.82 6.96,4.14L10.15,7.33C10.61,6.82 11.26,6.5 12,6.5Z" transform="scale(0.7)" />
        </g>
    </symbol>
</svg>