<?xml version="1.0" encoding="UTF-8" standalone="no"?>
<svg
   version="1.1"
   width="24"
   height="24"
   viewBox="0 0 24 24"
   id="svg2779"
   sodipodi:docname="type_earthcache3.svg"
   inkscape:version="1.1 (c68e22c387, 2021-05-23)"
   xmlns:inkscape="http://www.inkscape.org/namespaces/inkscape"
   xmlns:sodipodi="http://sodipodi.sourceforge.net/DTD/sodipodi-0.dtd"
   xmlns="http://www.w3.org/2000/svg"
   xmlns:svg="http://www.w3.org/2000/svg"
   xmlns:rdf="http://www.w3.org/1999/02/22-rdf-syntax-ns#"
   xmlns:cc="http://creativecommons.org/ns#"
   xmlns:dc="http://purl.org/dc/elements/1.1/">
  <defs
     id="defs2783">
    <inkscape:path-effect
       effect="bspline"
       id="path-effect5251"
       is_visible="true"
       lpeversion="1"
       weight="33.333333"
       steps="2"
       helper_size="0"
       apply_no_weight="true"
       apply_with_weight="true"
       only_selected="false" />
    <inkscape:path-effect
       effect="bspline"
       id="path-effect5082"
       is_visible="true"
       lpeversion="1"
       weight="33.333333"
       steps="2"
       helper_size="0"
       apply_no_weight="true"
       apply_with_weight="true"
       only_selected="false" />
    <inkscape:path-effect
       effect="bspline"
       id="path-effect4352"
       is_visible="true"
       lpeversion="1"
       weight="33.333333"
       steps="2"
       helper_size="0"
       apply_no_weight="true"
       apply_with_weight="true"
       only_selected="false" />
    <inkscape:path-effect
       effect="bspline"
       id="path-effect3042"
       is_visible="true"
       lpeversion="1"
       weight="33.333333"
       steps="2"
       helper_size="0"
       apply_no_weight="true"
       apply_with_weight="true"
       only_selected="false" />
  </defs>
  <sodipodi:namedview
     id="namedview2781"
     pagecolor="#505050"
     bordercolor="#ffffff"
     borderopacity="1"
     inkscape:pageshadow="0"
     inkscape:pageopacity="0"
     inkscape:pagecheckerboard="1"
     showgrid="false"
     inkscape:zoom="32"
     inkscape:cx="6.75"
     inkscape:cy="6.75"
     inkscape:window-width="2472"
     inkscape:window-height="1411"
     inkscape:window-x="88"
     inkscape:window-y="240"
     inkscape:window-maximized="1"
     inkscape:current-layer="svg2779" />
  <title
     id="title2767">EarthCache</title>
  <metadata
     id="metadata2842">
    <rdf:RDF>
      <cc:Work
         rdf:about="">
        <dc:title>EarthCache</dc:title>
      </cc:Work>
    </rdf:RDF>
  </metadata>
  <circle
     fill="#0288d1"
     cx="16.970425"
     cy="5.7407069e-05"
     r="12"
     id="background"
     transform="rotate(45)"
     style="fill:#0288d1;fill-opacity:1" />
  <circle
     style="fill:none;fill-opacity:1;stroke:#ffffff;stroke-width:1.5;stroke-linecap:square;stroke-linejoin:round;stroke-miterlimit:4;stroke-dasharray:none;stroke-opacity:1"
     id="path11019"
     cx="12"
     cy="12"
     r="8.25" />
  <path
     style="fill:#faffff;fill-opacity:1;stroke:#000000;stroke-width:0;stroke-linecap:butt;stroke-linejoin:miter;stroke-miterlimit:4;stroke-dasharray:none;stroke-opacity:1"
     d="M 6.5849319,6.4523494 C 7.2456384,6.1165797 8.284751,5.3854623 8.7530929,5.9598579 9.0295411,6.2989064 7.9397396,6.8114577 8.2106788,7.1549245 8.420738,7.4212143 8.8978483,6.8282552 9.2096663,6.9616892 9.4686215,7.072502 9.5970382,7.3996313 9.6663968,7.672627 9.730183,7.9236897 9.7788319,8.2517235 9.6093791,8.4476493 9.3160987,8.7867477 8.7023418,8.548697 8.2962446,8.7386606 8.0568064,8.8506647 7.8367002,9.0192253 7.6683039,9.2229857 7.2916594,9.6787275 7.4568486,10.743558 6.8689569,10.806368 c -0.1654731,0.01768 -0.1543078,-0.341492 -0.3140685,-0.38808 -0.4237949,-0.123583 -1.0498843,0.02984 -1.2558813,0.42028 -0.1462229,0.277143 -0.034071,0.788135 0.2569723,0.904251 0.2157465,0.08607 0.3840053,-0.441577 0.5995889,-0.355095 0.4255401,0.170707 0.046876,1.000241 0.3710076,1.324531 0.1187325,0.11879 0.3182098,0.154823 0.4851215,0.13614 0.2103295,-0.02354 0.3476839,-0.281205 0.5582565,-0.302464 0.1528483,-0.01543 0.2921824,0.09571 0.4409274,0.134125 0.1737847,0.04488 0.3796548,0.0093 0.5266109,0.112337 0.1405078,0.09853 0.1326382,0.33739 0.2725398,0.436777 0.1192829,0.08474 0.3127999,0.0068 0.4281431,0.09683 0.1332021,0.103968 0.101843,0.340678 0.228542,0.452479 0.2655826,0.234354 0.7579989,0.09934 1.0007169,0.357306 0.188847,0.200706 0.248195,0.519087 0.230123,0.794077 -0.01262,0.192101 -0.1788,0.343886 -0.231974,0.528912 -0.108203,0.376506 0.04385,0.835367 -0.171407,1.162671 -0.135174,0.205532 -0.5549847,0.153049 -0.627744,0.388041 -0.020837,0.0673 0.084296,0.122835 0.085527,0.193275 0.00446,0.255313 -0.1317318,0.506942 -0.2853241,0.710937 -0.1161215,0.154228 -0.3381526,0.203688 -0.4569268,0.355882 -0.086851,0.111289 -0.071082,0.287862 -0.1712494,0.387334 -0.284757,0.282782 -0.7711659,0.702658 -1.1044819,0.479157 -0.2758219,-0.184949 -0.021026,-0.666504 0.019811,-0.996074 0.031262,-0.2523 0.19552,-0.490094 0.1714065,-0.743177 C 7.9118043,17.25628 7.8052928,17.140971 7.7537878,17.009525 7.6154001,16.656345 7.5512421,16.27389 7.3847852,15.933039 7.155106,15.462729 6.640636,15.129004 6.5264552,14.618214 6.4814075,14.416692 6.5541122,14.202881 6.6119822,14.00466 6.7016042,13.697679 7.1511054,13.420202 7.0115772,13.13245 6.9517796,13.009128 6.738485,13.088262 6.6120239,13.035426 6.1580001,12.845732 5.7462087,12.559596 5.3561034,12.259697 5.0410782,12.017517 4.7309819,11.756559 4.49,11.440617 4.2887996,11.176831 4.0512183,10.89285 4.0216698,10.562408 3.940343,9.6529282 4.3589194,8.7173961 4.8613591,7.9549513 5.28076,7.3185166 5.9054438,6.7976639 6.5849319,6.4523494 Z"
     id="path2050"
     sodipodi:nodetypes="aaaaaaaaaaaaaaaaaaaaaaaaaaaaaaaaaaaaaaaaaaaa" />
  <path
     style="fill:#fcffff;fill-opacity:1;stroke:#000000;stroke-width:0;stroke-linecap:butt;stroke-linejoin:miter;stroke-miterlimit:4;stroke-dasharray:none;stroke-opacity:1"
     d="m 10.149133,5.3239609 c -0.02269,-0.1090489 0.151366,-0.1754429 0.360743,-0.2562238 0.209377,-0.080781 0.45407,-0.1759445 0.719249,-0.2396128 0.26518,-0.063668 0.550485,-0.095946 0.817043,-0.063328 0.266558,0.032617 0.514023,0.1295534 0.579914,0.3234201 0.06589,0.1938668 -0.04838,0.4845975 -0.314401,0.7103876 -0.266024,0.22579 -0.684525,0.3873595 -0.979722,0.5652419 -0.295196,0.1778823 -0.466481,0.3717942 -0.608931,0.3561606 -0.142449,-0.015634 -0.256717,-0.2419403 -0.271333,-0.3987726 -0.01462,-0.1568323 0.07102,-0.2429809 0.113848,-0.3286365 0.04282,-0.085656 0.04282,-0.1718063 -0.06602,-0.2903427 C 10.390669,5.583718 10.171827,5.4330099 10.149133,5.3239609 Z"
     id="path3040"
     inkscape:path-effect="#path-effect3042"
     inkscape:original-d="M 9.9518386,5.2815121 C 10.126899,5.216118 10.300959,5.149724 10.474019,5.08233 10.719722,4.9881626 10.964415,4.8929991 11.208113,4.7968336 11.494429,4.7655551 11.779734,4.7332779 12.064045,4.7 12.31252,4.7979402 12.559984,4.8948766 12.806453,4.990815 12.69318,5.2825572 12.578911,5.5732879 12.46364,5.8630243 12.046123,6.0256001 11.627622,6.1871695 11.208113,6.3477421 11.03782,6.5426619 10.866535,6.7365739 10.694247,6.9294899 10.580973,6.7041737 10.466705,6.4778667 10.351434,6.2505551 c 0.08665,-0.085155 0.172288,-0.1713057 0.256933,-0.2584586 0.001,-0.085155 0.001,-0.1713057 0,-0.2584586 C 10.390524,5.5839292 10.171682,5.4332209 9.9518386,5.2815121 Z"
     sodipodi:nodetypes="cccccccccccc" />
  <path
     style="fill:#ffffff;fill-opacity:1;stroke:#000000;stroke-width:0;stroke-linecap:butt;stroke-linejoin:miter;stroke-miterlimit:4;stroke-dasharray:none;stroke-opacity:1"
     d="m 15.450598,17.850273 c -0.01413,-0.128813 -0.04251,-0.387533 -0.113619,-0.678284 -0.07111,-0.290752 -0.185264,-0.613629 -0.214045,-0.947576 -0.02878,-0.333946 0.02836,-0.67855 0.02395,-0.915345 -0.0044,-0.236794 -0.07114,-0.366152 -0.102403,-0.519783 -0.03126,-0.153631 -0.0264,-0.331299 -0.06874,-0.471226 -0.04234,-0.139927 -0.132841,-0.242191 -0.156031,-0.367549 -0.02319,-0.125358 0.02206,-0.273381 -0.05573,-0.38923 -0.07779,-0.115849 -0.28,-0.199382 -0.552627,-0.203803 -0.272627,-0.0044 -0.615184,0.07093 -0.90768,-0.02809 -0.292495,-0.09903 -0.535104,-0.373645 -0.704179,-0.624007 -0.169075,-0.250363 -0.264181,-0.476605 -0.293022,-0.681407 -0.02884,-0.204803 0.0092,-0.387708 0.08055,-0.603226 0.0713,-0.215519 0.175857,-0.46337 0.361405,-0.743639 0.185547,-0.280268 0.451939,-0.59253 0.756857,-0.7810587 0.304919,-0.188529 0.647489,-0.2530833 1.042553,-0.2204996 0.395064,0.032584 0.842191,0.1618104 1.208521,0.2532667 0.36633,0.091457 0.651884,0.1452646 0.855947,0.1074566 0.204064,-0.037808 0.327796,-0.1670355 0.275986,-0.2637657 C 16.836481,9.6757721 16.60793,9.6112311 16.43174,9.4985613 16.25555,9.3858916 16.132066,9.224322 16.036428,9.2240174 c -0.09564,-3.046e-4 -0.162366,0.161265 -0.237983,0.1938854 -0.07562,0.03262 -0.16126,-0.064264 -0.261198,-0.2041723 C 15.43731,9.0738221 15.32329,8.890787 15.247304,8.798683 c -0.07598,-0.092104 -0.114205,-0.092104 -0.105083,0.010751 0.0091,0.1028549 0.06626,0.3073681 0.01651,0.4226604 -0.04975,0.1152922 -0.206837,0.1426841 -0.264474,0.083902 -0.05764,-0.058783 -0.01483,-0.2045243 -0.03083,-0.3202688 -0.016,-0.1157444 -0.09193,-0.2018971 -0.211057,-0.2080256 -0.119126,-0.00613 -0.280948,0.069028 -0.404773,0.1335975 -0.123825,0.064569 -0.209465,0.1185073 -0.2763,0.2050672 -0.06683,0.08656 -0.114389,0.205056 -0.197302,0.2935344 -0.08291,0.088479 -0.201788,0.1476534 -0.315541,0.1480754 -0.113753,4.219e-4 -0.223166,-0.058753 -0.278469,-0.1851169 -0.0553,-0.1263638 -0.0553,-0.3202627 0.05444,-0.4501473 0.109748,-0.1298845 0.328587,-0.194557 0.390497,-0.3015705 0.06191,-0.1070135 -0.0332,-0.2577191 -0.01657,-0.3472247 0.01663,-0.089506 0.144968,-0.1164817 0.272861,-0.2186371 0.127893,-0.1021554 0.256219,-0.2798244 0.373361,-0.3687518 0.117141,-0.088927 0.22196,-0.088927 0.255822,-0.1494136 0.03386,-0.060486 -0.0026,-0.1826503 0.0168,-0.2424018 0.01939,-0.059751 0.09394,-0.055953 0.130682,-0.010503 0.03675,0.04545 0.03675,0.1316008 0.108656,0.1904154 0.07191,0.058815 0.214555,0.091026 0.328759,0.013254 0.114203,-0.077772 0.201325,-0.2656952 0.339622,-0.3952176 0.138297,-0.1295224 0.327001,-0.1999834 0.324922,-0.216602 -0.0021,-0.016619 -0.195167,0.02055 -0.238481,-0.070749 -0.04331,-0.091299 0.06413,-0.31162 0.09468,-0.4219899 0.03055,-0.11037 -0.01701,-0.11037 -0.107888,-0.034955 -0.09088,0.075415 -0.224023,0.2261729 -0.276018,0.3398669 -0.05199,0.1136939 -0.02336,0.1891775 -0.03321,0.2911459 -0.0099,0.1019683 -0.05754,0.2310629 -0.118718,0.2741306 -0.06118,0.043068 -0.137239,-5.7e-6 -0.195891,-0.086272 -0.05865,-0.086266 -0.09908,-0.2162364 -0.194063,-0.1933509 -0.09498,0.022886 -0.244071,0.1997315 -0.32846,0.179094 -0.08439,-0.020637 -0.104249,-0.2397486 -0.02373,-0.4091428 0.08052,-0.1693942 0.261268,-0.2878227 0.351524,-0.3787964 0.09025,-0.090974 0.09025,-0.1556459 0.238028,-0.2478355 0.147772,-0.09219 0.442789,-0.2106834 0.766648,-0.2265741 0.323858,-0.015891 0.675879,0.070326 0.97636,0.1480629 0.30048,0.077737 0.54939,0.1469476 1.012484,0.6644216 0.463094,0.517474 1.140725,1.4823606 1.523422,2.2704867 0.382698,0.7881261 0.471085,1.3994664 0.445811,1.7164404 -0.02527,0.316974 -0.16485,0.340827 -0.410483,0.234712 -0.245633,-0.106116 -0.597653,-0.343103 -0.774243,-0.391563 -0.17659,-0.04846 -0.17659,0.09138 -0.104741,0.22596 0.07185,0.134578 0.214495,0.263936 0.32336,0.285096 0.108864,0.02116 0.185042,-0.06499 0.251886,1.86e-4 0.06684,0.06517 0.123978,0.280552 -0.0284,0.549261 -0.152375,0.268708 -0.51399,0.591965 -0.732455,0.710943 -0.218466,0.118979 -0.294644,0.03257 -0.314258,-0.05935 -0.01962,-0.09192 0.01847,-0.188801 -0.118974,-0.479159 -0.137447,-0.290359 -0.451378,-0.774805 -0.62307,-1.001477 -0.171691,-0.226671 -0.20033,-0.19446 -0.0763,0.14 0.124025,0.334459 0.400128,0.96999 0.676305,1.276259 0.276177,0.306269 0.552019,0.284543 0.689485,0.311926 0.137465,0.02738 0.137465,0.102802 0.08028,0.280271 -0.05718,0.177468 -0.171332,0.457465 -0.323558,0.748181 -0.152225,0.290716 -0.342555,0.592375 -0.423282,0.953628 -0.08073,0.361253 -0.05209,0.781276 -0.16864,1.095655 -0.116553,0.31438 -0.378337,0.524261 -0.463574,0.680913 -0.08524,0.156653 0.0053,0.258918 -3.1e-5,0.398527 -0.0053,0.139609 -0.105256,0.317276 -0.247979,0.511054 -0.142724,0.193778 -0.328329,0.403921 -0.568247,0.541217 -0.239918,0.137296 -0.534935,0.201968 -0.682819,0.234387 -0.147884,0.03242 -0.147888,0.03242 -0.162016,-0.0964 z"
     id="path4350"
     inkscape:path-effect="#path-effect4352"
     inkscape:original-d="m 15.464726,17.979085 c -0.02738,-0.257721 -0.05576,-0.516441 -0.08513,-0.776161 -0.113155,-0.32189 -0.227306,-0.644767 -0.342459,-0.968651 0.05815,-0.343618 0.115297,-0.688222 0.171445,-1.033834 -0.06573,-0.128363 -0.13246,-0.25772 -0.20019,-0.38808 0.0059,-0.176676 0.01071,-0.354345 0.01457,-0.533017 -0.0895,-0.101268 -0.180001,-0.203532 -0.271502,-0.306797 0.04625,-0.147028 0.0915,-0.295051 0.135751,-0.444076 -0.201223,-0.08254 -0.403438,-0.16607 -0.606657,-0.250605 -0.341571,0.07636 -0.684129,0.151708 -1.027693,0.226063 -0.241618,-0.273629 -0.484226,-0.548248 -0.727839,-0.823871 -0.09411,-0.225251 -0.189216,-0.451493 -0.285324,-0.678739 0.03909,-0.181911 0.07718,-0.364816 0.114271,-0.548724 0.10556,-0.246861 0.210117,-0.494712 0.313676,-0.743569 0.267402,-0.311274 0.533793,-0.623536 0.79919,-0.936804 0.343584,-0.063557 0.686154,-0.1281115 1.027732,-0.1936672 0.448144,0.1302319 0.895271,0.2594586 1.341407,0.3876879 0.286566,0.05481 0.57212,0.1086193 0.856679,0.1614283 C 16.81739,9.9994374 16.941123,9.8702107 17.063857,9.7399814 16.836293,9.6764375 16.607742,9.6118961 16.378187,9.5463535 16.255699,9.3857776 16.132215,9.2242083 16.007729,9.0616357 15.941998,9.2242115 15.875269,9.3857809 15.807539,9.5463535 15.722893,9.4504656 15.63725,9.3535815 15.550606,9.2556956 15.437581,9.0736531 15.323561,8.8906179 15.208539,8.7065791 c -0.03722,10e-4 -0.07544,10e-4 -0.114664,0 0.05814,0.2055222 0.115271,0.4100363 0.171407,0.6135544 -0.156097,0.028393 -0.313188,0.055785 -0.471282,0.082177 0.04381,-0.1447475 0.08662,-0.2904891 0.12843,-0.4372336 -0.07493,-0.085155 -0.150864,-0.1713057 -0.227796,-0.2584586 -0.160828,0.076159 -0.32265,0.151316 -0.485475,0.2254739 -0.08465,0.054941 -0.170289,0.1088809 -0.256933,0.1618213 -0.04655,0.1194986 -0.09411,0.2379924 -0.142662,0.3554886 -0.117881,0.060177 -0.236757,0.1193521 -0.356635,0.1775282 -0.108417,-0.058177 -0.21783,-0.1173522 -0.328245,-0.1775282 10e-4,-0.1929068 10e-4,-0.3868057 0,-0.5817085 0.219847,-0.063675 0.438686,-0.1283471 0.656528,-0.1940207 -0.09411,-0.1497116 -0.189216,-0.3004172 -0.285324,-0.4521258 0.129345,-0.025977 0.257684,-0.052954 0.385027,-0.08093 0.129331,-0.1766758 0.257658,-0.3543445 0.384987,-0.5330168 0.105822,0.001 0.210641,0.001 0.314461,0 -0.03545,-0.1211655 -0.07191,-0.2433272 -0.109357,-0.3664915 0.07554,0.0048 0.150085,0.0086 0.223627,0.011396 0.001,0.087155 0.001,0.1733057 0,0.2584586 0.143652,0.033213 0.286298,0.065425 0.427947,0.096637 0.08813,-0.1869342 0.175251,-0.3748579 0.261379,-0.5637921 0.189711,-0.069464 0.378415,-0.1399247 0.566123,-0.2113873 -0.192095,0.03817 -0.385183,0.075338 -0.579282,0.111509 0.108452,-0.219332 0.215899,-0.4396533 0.322349,-0.6609791 -0.04655,10e-4 -0.09411,10e-4 -0.142662,0 -0.132148,0.1517639 -0.265292,0.3025219 -0.399438,0.4522828 0.02964,0.076487 0.05828,0.1519704 0.08592,0.2264556 -0.04669,0.130101 -0.09437,0.2591968 -0.143054,0.3872952 -0.07507,-0.042077 -0.151126,-0.085153 -0.228189,-0.1292293 -0.03943,-0.1289789 -0.07985,-0.2589507 -0.12128,-0.3899291 -0.148093,0.1778541 -0.29718,0.3546994 -0.447273,0.5305541 -0.01886,-0.2181193 -0.03872,-0.4372303 -0.05958,-0.6573458 0.181756,-0.1174331 0.362505,-0.2358615 0.542257,-0.3552922 0.001,-0.063675 0.001,-0.1283471 0,-0.1940206 0.29603,-0.1174986 0.591047,-0.2359924 0.88507,-0.3554886 0.353035,0.08722 0.705056,0.1734367 1.056084,0.258655 0.249921,0.070213 0.498831,0.1394241 0.746747,0.2076362 0.678658,0.9659255 1.356288,1.9308123 2.032932,2.8947184 0.08939,0.612365 0.177777,1.2237057 0.265165,1.8340587 -0.13858,0.02485 -0.278155,0.04871 -0.418732,0.07156 -0.351035,-0.235997 -0.703056,-0.472984 -1.056084,-0.710977 10e-4,0.140848 10e-4,0.280689 0,0.419534 0.143652,0.130363 0.286298,0.25972 0.427947,0.388081 0.07718,-0.08516 0.153361,-0.171306 0.228542,-0.258459 0.05814,0.216386 0.115271,0.431764 0.171406,0.646146 -0.360629,0.32427 -0.722245,0.647526 -1.084867,0.969789 -0.07518,-0.08542 -0.151361,-0.171829 -0.228542,-0.259243 0.03909,-0.09589 0.07718,-0.192772 0.114271,-0.290658 -0.312944,-0.483466 -0.626875,-0.967912 -0.941813,-1.453368 -0.02764,0.03321 -0.05628,0.06542 -0.08592,0.09664 0.277115,0.636557 0.553218,1.272088 0.828327,1.906632 0.276853,-0.02073 0.552695,-0.04246 0.827542,-0.06518 0.001,0.07642 0.001,0.15184 0,0.22626 -0.113156,0.281009 -0.227306,0.561006 -0.34246,0.84001 -0.189337,0.302672 -0.379667,0.604331 -0.571001,0.904997 0.02964,0.42104 0.05828,0.841063 0.08592,1.260094 -0.260794,0.210889 -0.522578,0.420769 -0.785367,0.629654 0.0915,0.103268 0.182001,0.205531 0.271501,0.306797 -0.09897,0.178676 -0.198928,0.356344 -0.299892,0.533017 -0.184613,0.21115 -0.370217,0.421293 -0.556826,0.630439 -0.294029,0.06568 -0.589047,0.130347 -0.88507,0.194021 z"
     sodipodi:nodetypes="scccccccccccccccccccccccccccccccccccccccccccccccccccccccccccccccccccccccccccccccccccss" />
  <path
     style="fill:#ffffff;fill-opacity:1;stroke:#000000;stroke-width:0;stroke-linecap:butt;stroke-linejoin:miter;stroke-miterlimit:4;stroke-dasharray:none;stroke-opacity:1"
     d="m 13.606249,7.0261664 c 0.029,0 0.08601,0 0.185698,0.11908 0.09969,0.1190799 0.241823,0.3551821 0.256173,0.4999887 0.01435,0.1448066 -0.09848,0.1973019 -0.203683,0.2459795 -0.105203,0.048678 -0.200279,0.092376 -0.215886,0.038382 -0.01561,-0.053994 0.04912,-0.2057678 0.05429,-0.3730894 0.0052,-0.1673216 -0.05021,-0.3488523 -0.0779,-0.4395964 -0.02769,-0.090744 -0.02769,-0.090744 -0.02769,-0.090744 0,0 0,0 0,0 0,0 -3e-6,0 0.029,0 z"
     id="path5080"
     inkscape:path-effect="#path-effect5082"
     inkscape:original-d="m 13.577249,7.0261664 c 0.058,10e-4 0.115009,10e-4 0.171014,0 0.143665,0.237984 0.285799,0.4740862 0.427986,0.7109378 -0.113219,0.054142 -0.226048,0.1066375 -0.341401,0.1588417 -0.09506,0.045152 -0.190136,0.08885 -0.286793,0.1318162 0.0661,-0.151644 0.130821,-0.3034188 0.195166,-0.457647 -0.05457,-0.1811235 -0.109958,-0.3626543 -0.165969,-0.5439487 0.001,10e-4 0.001,10e-4 0,0 0,0 0.001,10e-4 0,0 z"
     sodipodi:nodetypes="ccccccccsc" />
  <path
     style="fill:#ffffff;stroke:#000000;stroke-width:0;stroke-linecap:butt;stroke-linejoin:miter;stroke-opacity:1;stroke-miterlimit:4;stroke-dasharray:none;fill-opacity:1"
     d="m 13.462981,7.413815 c -0.06612,0.021399 -0.132848,0.042996 -0.156839,0.1136437 -0.02399,0.070648 -0.0048,0.1890097 0.04771,0.2260526 0.05252,0.037043 0.13816,-0.0059 0.161975,-0.075179 0.02381,-0.069279 -0.01428,-0.1662937 -0.05284,-0.2645174"
     id="path5249"
     inkscape:path-effect="#path-effect5251"
     inkscape:original-d="m 13.462981,7.413815 c -0.06573,0.022597 -0.13246,0.044194 -0.20019,0.064791 0.02018,0.1193677 0.03935,0.2377306 0.05753,0.3550959 0.08665,-0.041946 0.172289,-0.084891 0.256933,-0.1288366 -0.03709,-0.096019 -0.07518,-0.1930337 -0.114271,-0.2910506" />
</svg>
