<?xml version="1.0" encoding="UTF-8"?>
<svg version="1.1" viewBox="0 0 24 24" xmlns="http://www.w3.org/2000/svg">
 <circle transform="rotate(-45)" cx="1.7764e-15" cy="16.971" r="12" fill="#303f9f"/>
 <ellipse cx="12" cy="12" rx="4.9539" ry="4.7422" fill="#fff" stroke-width="0"/>
 <g transform="matrix(.69139 -.69139 .69139 .69139 -1.2748 12)" fill="#303f9f" stroke-width="1.0227">
  <path d="m15 9.6c1e-6 -2.997-2.403-5.4-5.4-5.4-2.997-1e-7 -5.4 2.403-5.4 5.4-1e-7 2.997 2.403 5.4 5.4 5.4 2.997 0 5.4-2.403 5.4-5.4m-0.7 0-7.7 3.5-1e-7 -7" fill="#303f9f" stroke-width=".81818"/>
 </g>
 <path d="m20.8 12c0-4.8752-3.9248-8.8-8.8-8.8-1.0296 1e-7 -2.024 0.1672-2.9744 0.4928l0.616 1.7072c0.748-0.2992 1.5312-0.4664 2.3584-0.4664 3.8808 2e-7 7.0664 3.1856 7.0664 7.0664 1e-6 3.8808-3.1856 7.0664-7.0664 7.0664-3.8808 0-7.0664-3.1856-7.0664-7.0664 0-0.8272 0.1672-1.6544 0.4664-2.3936l-1.7072-0.5808c-0.3256 0.9504-0.4928 1.9448-0.4928 2.9744-1.5e-6 4.8752 3.9248 8.8 8.8 8.8 4.8752 0 8.8-3.9248 8.8-8.8m-14.546-7.0664c0.748 4e-7 1.3464 0.6248 1.3464 1.32-1e-7 0.748-0.5984 1.3464-1.3464 1.3464-0.6952 1e-7 -1.32-0.5984-1.32-1.3464 8e-7 -0.6952 0.6248-1.32 1.32-1.32" fill="#fff" stroke-width=".8"/>
</svg>
