<?xml version="1.0" encoding="UTF-8" standalone="no"?>
<svg
   viewBox="0 0 24 24"
   id="type_wherigo"
   version="1.1"
   sodipodi:docname="type_wherigo.svg"
   inkscape:version="1.1 (c68e22c387, 2021-05-23)"
   xmlns:inkscape="http://www.inkscape.org/namespaces/inkscape"
   xmlns:sodipodi="http://sodipodi.sourceforge.net/DTD/sodipodi-0.dtd"
   xmlns="http://www.w3.org/2000/svg"
   xmlns:svg="http://www.w3.org/2000/svg">
  <defs
     id="defs837" />
  <sodipodi:namedview
     id="namedview835"
     pagecolor="#505050"
     bordercolor="#ffffff"
     borderopacity="1"
     inkscape:pageshadow="0"
     inkscape:pageopacity="0"
     inkscape:pagecheckerboard="1"
     showgrid="false"
     inkscape:zoom="50.166667"
     inkscape:cx="11.13289"
     inkscape:cy="12"
     inkscape:window-width="2472"
     inkscape:window-height="1411"
     inkscape:window-x="88"
     inkscape:window-y="240"
     inkscape:window-maximized="1"
     inkscape:current-layer="type_wherigo" />
  <circle
     fill="#303f9f"
     cx="12"
     cy="12"
     r="12"
     id="background" />
  <path
     d="m20.8 12c0-4.8752-3.9248-8.8-8.8-8.8-1.0296 1e-7 -2.024 0.1672-2.9744 0.4928l0.616 1.7072c0.748-0.2992 1.5312-0.4664 2.3584-0.4664 3.8808 2e-7 7.0664 3.1856 7.0664 7.0664 1e-6 3.8808-3.1856 7.0664-7.0664 7.0664-3.8808 0-7.0664-3.1856-7.0664-7.0664 0-0.8272 0.1672-1.6544 0.4664-2.3936l-1.7072-0.5808c-0.3256 0.9504-0.4928 1.9448-0.4928 2.9744-1.5e-6 4.8752 3.9248 8.8 8.8 8.8 4.8752 0 8.8-3.9248 8.8-8.8m-14.546-7.0664c0.748 4e-7 1.3464 0.6248 1.3464 1.32-1e-7 0.748-0.5984 1.3464-1.3464 1.3464-0.6952 1e-7 -1.32-0.5984-1.32-1.3464 8e-7 -0.6952 0.6248-1.32 1.32-1.32"
     fill="#fff"
     stroke-width=".8"
     id="circle" />
  <path
     d="M 7.5058529,11.654305 15.249421,8.750467 12.345583,16.494035 Z"
     id="triangle"
     fill="#ffffff" />
</svg>
