<?xml version="1.0" encoding="UTF-8" standalone="no"?>
<svg
   viewBox="0 0 24 24"
   id="type_traditional"
   version="1.1"
   sodipodi:docname="type_traditional.svg"
   inkscape:version="1.1 (c68e22c387, 2021-05-23)"
   xmlns:inkscape="http://www.inkscape.org/namespaces/inkscape"
   xmlns:sodipodi="http://sodipodi.sourceforge.net/DTD/sodipodi-0.dtd"
   xmlns="http://www.w3.org/2000/svg"
   xmlns:svg="http://www.w3.org/2000/svg">
  <defs
     id="defs2507" />
  <sodipodi:namedview
     id="namedview2505"
     pagecolor="#505050"
     bordercolor="#ffffff"
     borderopacity="1"
     inkscape:pageshadow="0"
     inkscape:pageopacity="0"
     inkscape:pagecheckerboard="1"
     showgrid="false"
     inkscape:zoom="45.254834"
     inkscape:cx="12.297029"
     inkscape:cy="13.633903"
     inkscape:window-width="2472"
     inkscape:window-height="1411"
     inkscape:window-x="88"
     inkscape:window-y="240"
     inkscape:window-maximized="1"
     inkscape:current-layer="type_traditional" />
  <circle
     fill="#388E3C"
     cx="12"
     cy="12"
     r="12"
     id="background" />
  <g
     transform="translate(4.2,3.8) scale(0.68)"
     id="icon">
    <path
       id="outline"
       d="m 22.776471,9.1420214 c 0,0 -1.112924,5.6679756 -1.255927,5.9678086 C 21.106987,15.451534 8.1988,21.9298 8.1988,21.9298 7.82387,22.05478 7.55254,22.04032 7.31509,21.8591 c 0,0 -5.8446063,-6.561152 -6.0621582,-7.117422 -0.088017,-0.278231 -0.055864,-6.543514 -0.055864,-6.543514 z"
       style="stroke:#ffffff;stroke-opacity:1;stroke-width:1.5;stroke-miterlimit:4;stroke-dasharray:none"
       fill="none" />
    <path
       id="top"
       style="fill:#ffffff;fill-opacity:1"
       d="m 16.116,2.0639 7.4939,6.1153 c 0.21209,0.28279 -0.08837,0.45953 -0.08837,0.45953 l -14.793,6.0092 C 8.38148,14.81628 8.03228,14.698111 7.84482,14.54189 L 0.66912,7.93169 C 0.03285,7.20705 0.98726,6.90659 0.98726,6.90659 l 14.157,-4.8781 c 0.56557,-0.22976 0.97208,0.035349 0.97208,0.035349 z m 7.432116,6.4237 -0.3835,1.2639 c -0.26933,0.2688 -0.44314,0.37116 -0.44314,0.37116 l -14.139,6.4688 c -0.64362,0.23745 -0.97208,-0.0707 -0.97208,-0.0707 L 0.62909597,9.61016 c -0.18746,-0.17497 -0.15907,-0.38883 -0.15907,-0.38883 0,0 -0.063329,-0.4547 -0.00233,-1.8774 z" />
    <path
       d="M 7.9225864,22.368492 8.3224658,15.439103"
       fill="none"
       stroke-width="1.5"
       id="outline_center"
       style="stroke:#ffffff;stroke-opacity:1" />
  </g>
</svg>
